<svg width="70" height="62" viewBox="0 0 70 62" fill="none" xmlns="http://www.w3.org/2000/svg">
<path d="M0.752755 53.3919L30.4746 3.15955C32.5191 -0.29588 37.481 -0.29588 39.5255 3.15955L69.2473 53.3919C71.3438 56.9351 68.8129 61.4318 64.722 61.4318H5.27815C1.18725 61.432 -1.34369 56.9353 0.752755 53.3919Z" fill="#FD4755"/>
<path d="M24.7314 61.432H64.7217C68.8126 61.432 71.3437 56.9353 69.2471 53.3921L47.5312 16.6901C48.3913 20.359 48.8061 24.5104 48.3554 29.0384C46.2227 50.4612 26.7113 60.4496 25.4472 61.0699C25.2044 61.1957 24.9666 61.3153 24.7314 61.432Z" fill="#FB2B3A"/>
<path d="M5.27735 57.2158C4.4122 57.186 3.93122 56.3837 4.38841 55.5529L34.1101 5.32053C34.5693 4.6007 35.4415 4.61013 35.8881 5.32053L65.6098 55.5528C66.0689 56.3868 65.5919 57.1855 64.7209 57.2157H5.27735V57.2158Z" fill="#FED402"/>
<path d="M48.5148 26.6607C48.4871 27.4412 48.4355 28.2335 48.3554 29.0384C46.9369 43.2873 37.8313 52.4759 31.5192 57.2158H64.7209C65.5919 57.1856 66.0689 56.3869 65.6098 55.5529L48.5148 26.6607Z" fill="#F7BC09"/>
<path d="M34.9999 41.7926C34.2469 41.7926 33.6203 41.214 33.5604 40.4634L32.1716 23.0566C32.04 21.4059 33.344 19.9936 34.9999 19.9936C36.6559 19.9936 37.96 21.4059 37.8282 23.0566L36.4394 40.4634C36.3796 41.214 35.753 41.7926 34.9999 41.7926Z" fill="#554E56"/>
<path d="M34.9999 50.4571C36.2525 50.4571 37.2678 49.4418 37.2678 48.1892C37.2678 46.9367 36.2525 45.9213 34.9999 45.9213C33.7474 45.9213 32.7321 46.9367 32.7321 48.1892C32.7321 49.4418 33.7474 50.4571 34.9999 50.4571Z" fill="#554E56"/>
</svg>
