<svg width="16" height="16" viewBox="0 0 16 16" fill="none" xmlns="http://www.w3.org/2000/svg">
<path fill-rule="evenodd" clip-rule="evenodd" d="M12.4778 2.13646C11.7456 1.40422 10.5584 1.40422 9.82616 2.13646L3.06446 8.89816C1.81966 10.143 1.81966 12.1612 3.06446 13.406C4.30925 14.6508 6.32747 14.6508 7.57226 13.406L14.334 6.64426C14.6269 6.35137 15.1017 6.35137 15.3946 6.64426C15.6875 6.93715 15.6875 7.41203 15.3946 7.70492L8.63292 14.4666C6.80234 16.2972 3.83438 16.2972 2.0038 14.4666C0.173214 12.636 0.173214 9.66809 2.0038 7.8375L8.7655 1.0758C10.0835 -0.242224 12.2205 -0.242225 13.5385 1.07579C14.8565 2.39381 14.8565 4.53075 13.5385 5.84877L7.04193 12.3453C6.23648 13.1508 4.93057 13.1508 4.12512 12.3453C3.31966 11.5399 3.31966 10.2339 4.12512 9.42849L9.82617 3.72745C10.1191 3.43455 10.5939 3.43455 10.8868 3.72745C11.1797 4.02034 11.1797 4.49521 10.8868 4.78811L5.18578 10.4892C4.96611 10.7088 4.96611 11.065 5.18578 11.2846C5.40545 11.5043 5.7616 11.5043 5.98127 11.2846L12.4778 4.78811C13.21 4.05587 13.21 2.86869 12.4778 2.13646Z" fill="#000"/>
</svg>
