<svg width="14" height="14" viewBox="0 0 14 14" fill="none" xmlns="http://www.w3.org/2000/svg">
<circle cx="7" cy="7" r="7" fill="#000"/>
<path fill-rule="evenodd" clip-rule="evenodd" d="M9.88694 4.81057C9.62295 4.59111 9.2306 4.62669 9.0106 4.89004L6.77188 7.56994C6.55614 7.82819 6.43486 7.97116 6.33804 8.05902C6.33678 8.06016 6.33555 8.06127 6.33434 8.06236C6.33303 8.06139 6.3317 8.06039 6.33035 8.05937C6.22594 7.98062 6.09219 7.84918 5.8539 7.61148L4.95082 6.7106C4.70782 6.4682 4.31385 6.4682 4.07086 6.7106C3.82787 6.953 3.82787 7.346 4.07086 7.5884L4.97395 8.48928C4.98243 8.49774 4.99089 8.50619 4.99934 8.51462C5.2025 8.71736 5.39793 8.91239 5.57977 9.04955C5.78347 9.2032 6.05022 9.34768 6.39208 9.33221C6.73393 9.31674 6.98648 9.14877 7.17539 8.97735C7.34404 8.82433 7.52097 8.61245 7.70488 8.39221C7.71254 8.38304 7.72021 8.37386 7.72788 8.36467L9.96661 5.68476C10.1866 5.42142 10.1509 5.03002 9.88694 4.81057Z" fill="white"/>
</svg>
