<svg width="14" height="10" viewBox="0 0 14 10" fill="none" xmlns="http://www.w3.org/2000/svg">
<path fill-rule="evenodd" clip-rule="evenodd" d="M13.4962 0.308316C12.9022 -0.16195 12.0194 -0.0857048 11.5245 0.478614L6.48734 6.22126C6.00193 6.77465 5.72905 7.08102 5.51119 7.26929C5.50837 7.27173 5.50559 7.27412 5.50287 7.27645C5.49993 7.27436 5.49694 7.27222 5.49389 7.27004C5.25899 7.10128 4.95803 6.81963 4.42188 6.31027L2.38994 4.37982C1.84321 3.86039 0.956783 3.86039 0.410051 4.37982C-0.136682 4.89924 -0.136682 5.7414 0.410051 6.26082L2.44199 8.19127C2.46107 8.2094 2.48012 8.2275 2.49913 8.24557C2.95623 8.68001 3.39596 9.09793 3.8051 9.39186C4.26341 9.7211 4.86362 10.0307 5.63279 9.99756C6.40196 9.96441 6.97019 9.60446 7.39525 9.23714C7.77469 8.90923 8.17278 8.45521 8.5866 7.98326C8.60382 7.96361 8.62107 7.94394 8.63835 7.92424L13.6755 2.1816C14.1705 1.61728 14.0902 0.778581 13.4962 0.308316Z" fill="#2AAA5E"/>
</svg>
