<svg width="18" height="18" viewBox="0 0 18 18" fill="#000" xmlns="http://www.w3.org/2000/svg">
<path fill-rule="evenodd" clip-rule="evenodd" d="M12.8593 3.03838C12.3967 3.00058 11.8025 3 10.95 3H5.625C5.21079 3 4.875 2.66421 4.875 2.25C4.875 1.83579 5.21079 1.5 5.625 1.5L10.9821 1.5C11.7949 1.49999 12.4506 1.49999 12.9815 1.54336C13.5281 1.58803 14.0082 1.68239 14.4525 1.90873C15.1581 2.26825 15.7318 2.84193 16.0913 3.54754C16.3176 3.99175 16.412 4.4719 16.4566 5.01853C16.5 5.54944 16.5 6.20505 16.5 7.01788V12.375C16.5 12.7892 16.1642 13.125 15.75 13.125C15.3358 13.125 15 12.7892 15 12.375V7.05C15 6.19755 14.9994 5.60331 14.9616 5.14068C14.9245 4.68681 14.8554 4.42604 14.7548 4.22852C14.5391 3.80516 14.1948 3.46095 13.7715 3.24524C13.574 3.1446 13.3132 3.07547 12.8593 3.03838ZM4.62109 4.125H10.7539C11.1493 4.12499 11.4903 4.12497 11.7713 4.14793C12.0678 4.17215 12.3627 4.22564 12.6465 4.37024C13.0698 4.58595 13.4141 4.93016 13.6298 5.35352C13.7744 5.63731 13.8278 5.93222 13.8521 6.22873C13.875 6.50966 13.875 6.85074 13.875 7.24611V13.3789C13.875 13.7743 13.875 14.1153 13.8521 14.3963C13.8278 14.6928 13.7744 14.9877 13.6298 15.2715C13.4141 15.6948 13.0698 16.0391 12.6465 16.2548C12.3627 16.3994 12.0678 16.4528 11.7713 16.4771C11.4903 16.5 11.1493 16.5 10.7539 16.5H4.62108C4.22572 16.5 3.88466 16.5 3.60373 16.4771C3.30722 16.4528 3.01231 16.3994 2.72852 16.2548C2.30516 16.0391 1.96095 15.6948 1.74524 15.2715C1.60064 14.9877 1.54715 14.6928 1.52293 14.3963C1.49998 14.1153 1.49999 13.7743 1.5 13.3789V7.24609C1.49999 6.85073 1.49998 6.50966 1.52293 6.22873C1.54715 5.93222 1.60064 5.63731 1.74524 5.35352C1.96095 4.93016 2.30516 4.58595 2.72852 4.37024C3.01231 4.22564 3.30722 4.17215 3.60373 4.14793C3.88466 4.12497 4.22573 4.12499 4.62109 4.125ZM3.72588 5.64295C3.52213 5.65959 3.44659 5.68785 3.40951 5.70675C3.26839 5.77865 3.15365 5.89339 3.08175 6.03451C3.06285 6.07159 3.03459 6.14713 3.01795 6.35088C3.00058 6.56338 3 6.84259 3 7.275V13.35C3 13.7824 3.00058 14.0616 3.01795 14.2741C3.03459 14.4779 3.06285 14.5534 3.08175 14.5905C3.15365 14.7316 3.26839 14.8463 3.40951 14.9183C3.44659 14.9372 3.52213 14.9654 3.72588 14.9821C3.93838 14.9994 4.21759 15 4.65 15H10.725C11.1574 15 11.4366 14.9994 11.6491 14.9821C11.8529 14.9654 11.9284 14.9372 11.9655 14.9183C12.1066 14.8463 12.2214 14.7316 12.2933 14.5905C12.3122 14.5534 12.3404 14.4779 12.3571 14.2741C12.3744 14.0616 12.375 13.7824 12.375 13.35V7.275C12.375 6.84259 12.3744 6.56338 12.3571 6.35088C12.3404 6.14713 12.3122 6.07159 12.2933 6.03451C12.2214 5.89339 12.1066 5.77865 11.9655 5.70675C11.9284 5.68785 11.8529 5.65959 11.6491 5.64295C11.4366 5.62558 11.1574 5.625 10.725 5.625H4.65C4.21759 5.625 3.93838 5.62558 3.72588 5.64295Z" fill="#000"/>
</svg>
