<svg width="375" height="266" viewBox="0 0 375 266" fill="none" xmlns="http://www.w3.org/2000/svg">
<path d="M189.419 227.843C272.768 227.843 340.336 224.034 340.336 219.337C340.336 214.639 272.768 210.831 189.419 210.831C106.07 210.831 38.502 214.639 38.502 219.337C38.502 224.034 106.07 227.843 189.419 227.843Z" fill="#4433A0"/>
<path d="M284.1 206.943H100.132V92.7219C100.132 91.0208 101.59 89.8057 103.048 89.8057H280.941C282.642 89.8057 283.857 91.2638 283.857 92.7219V206.943H284.1Z" fill="#444A4D"/>
<path d="M294.55 219.823H89.6814C81.9047 219.823 75.8291 220.066 75.8291 213.99H308.645C308.402 220.066 302.083 219.823 294.55 219.823Z" fill="#383E41"/>
<path d="M210.949 215.935H173.038C172.552 215.935 173.281 217.879 177.655 217.879H206.332C210.706 217.879 211.678 215.935 210.949 215.935Z" fill="#4D5357"/>
<path d="M308.402 213.99H75.5859L99.8882 206.943H284.099L308.402 213.99Z" fill="#444A4D"/>
<path d="M92.5967 211.317L100.373 209.859H283.613L291.632 211.317H92.5967Z" fill="#4D5357"/>
<path d="M284.1 206.214H100.132V206.943H284.1V206.214Z" fill="#383E41"/>
<path d="M277.05 96.6104H106.934V198.923H277.05V96.6104Z" fill="white"/>
<path d="M277.05 96.6104H106.934V198.923H277.05V96.6104Z" fill="white"/>
<path d="M277.23 133.317H107.114V134.289H277.23V133.317Z" fill="#E5E5E5"/>
<path d="M108.816 129.915H110.517C110.76 129.915 110.76 130.158 110.76 130.158V132.102C110.76 132.345 110.517 132.345 110.517 132.345H108.816C108.573 132.345 108.573 132.102 108.573 132.102V130.158C108.573 129.915 108.573 129.915 108.816 129.915Z" fill="#B3B2B3"/>
<path d="M113.919 129.186H112.947V133.317H113.919V129.186Z" fill="#E5E5E5"/>
<path d="M128.744 129.186H127.771V133.317H128.744V129.186Z" fill="#E5E5E5"/>
<path d="M144.784 129.186H143.812V133.317H144.784V129.186Z" fill="#E5E5E5"/>
<path d="M160.823 129.186H159.851V133.317H160.823V129.186Z" fill="#E5E5E5"/>
<path d="M176.863 129.186H175.891V133.317H176.863V129.186Z" fill="#E5E5E5"/>
<path d="M192.902 129.186H191.93V133.317H192.902V129.186Z" fill="#E5E5E5"/>
<path d="M208.942 129.186H207.97V133.317H208.942V129.186Z" fill="#E5E5E5"/>
<path d="M225.223 129.186H224.251V133.317H225.223V129.186Z" fill="#E5E5E5"/>
<path d="M241.263 129.186H240.291V133.317H241.263V129.186Z" fill="#E5E5E5"/>
<path d="M257.303 129.186H256.331V133.317H257.303V129.186Z" fill="#E5E5E5"/>
<path d="M273.342 129.186H272.37V133.317H273.342V129.186Z" fill="#E5E5E5"/>
<path d="M277.23 138.359H107.114V139.331H277.23V138.359Z" fill="#E5E5E5"/>
<path d="M108.816 134.957H110.517C110.76 134.957 110.76 135.2 110.76 135.2V137.144C110.76 137.387 110.517 137.387 110.517 137.387H108.816C108.573 137.387 108.573 137.144 108.573 137.144V135.2C108.573 135.2 108.573 134.957 108.816 134.957Z" fill="#B3B2B3"/>
<path d="M113.919 134.228H112.947V138.359H113.919V134.228Z" fill="#E5E5E5"/>
<path d="M128.744 134.228H127.771V138.359H128.744V134.228Z" fill="#E5E5E5"/>
<path d="M144.784 134.228H143.812V138.359H144.784V134.228Z" fill="#E5E5E5"/>
<path d="M160.823 134.228H159.851V138.359H160.823V134.228Z" fill="#E5E5E5"/>
<path d="M176.863 134.228H175.891V138.359H176.863V134.228Z" fill="#E5E5E5"/>
<path d="M192.902 134.228H191.93V138.359H192.902V134.228Z" fill="#E5E5E5"/>
<path d="M208.942 134.228H207.97V138.359H208.942V134.228Z" fill="#E5E5E5"/>
<path d="M225.223 134.228H224.251V138.359H225.223V134.228Z" fill="#E5E5E5"/>
<path d="M241.263 134.228H240.291V138.359H241.263V134.228Z" fill="#E5E5E5"/>
<path d="M257.303 134.228H256.331V138.359H257.303V134.228Z" fill="#E5E5E5"/>
<path d="M273.342 134.228H272.37V138.359H273.342V134.228Z" fill="#E5E5E5"/>
<path d="M277.23 143.401H107.114V144.373H277.23V143.401Z" fill="#E5E5E5"/>
<path d="M108.816 139.998H110.517C110.76 139.998 110.76 140.241 110.76 140.241V142.186C110.76 142.429 110.517 142.429 110.517 142.429H108.816C108.573 142.429 108.573 142.186 108.573 142.186V140.241C108.573 140.241 108.573 139.998 108.816 139.998Z" fill="#B3B2B3"/>
<path d="M113.919 139.27H112.947V143.401H113.919V139.27Z" fill="#E5E5E5"/>
<path d="M128.744 139.27H127.771V143.401H128.744V139.27Z" fill="#E5E5E5"/>
<path d="M144.784 139.27H143.812V143.401H144.784V139.27Z" fill="#E5E5E5"/>
<path d="M160.823 139.27H159.851V143.401H160.823V139.27Z" fill="#E5E5E5"/>
<path d="M176.863 139.27H175.891V143.401H176.863V139.27Z" fill="#E5E5E5"/>
<path d="M192.902 139.27H191.93V143.401H192.902V139.27Z" fill="#E5E5E5"/>
<path d="M208.942 139.27H207.97V143.401H208.942V139.27Z" fill="#E5E5E5"/>
<path d="M225.223 139.27H224.251V143.401H225.223V139.27Z" fill="#E5E5E5"/>
<path d="M241.263 139.27H240.291V143.401H241.263V139.27Z" fill="#E5E5E5"/>
<path d="M257.303 139.27H256.331V143.401H257.303V139.27Z" fill="#E5E5E5"/>
<path d="M273.342 139.27H272.37V143.401H273.342V139.27Z" fill="#E5E5E5"/>
<path d="M277.23 148.443H107.114V149.415H277.23V148.443Z" fill="#E5E5E5"/>
<path d="M108.816 145.04H110.517C110.76 145.04 110.76 145.283 110.76 145.283V147.227C110.76 147.47 110.517 147.471 110.517 147.471H108.816C108.573 147.471 108.573 147.227 108.573 147.227V145.283C108.573 145.283 108.573 145.04 108.816 145.04Z" fill="#B3B2B3"/>
<path d="M113.919 144.311H112.947V148.443H113.919V144.311Z" fill="#E5E5E5"/>
<path d="M128.744 144.311H127.771V148.443H128.744V144.311Z" fill="#E5E5E5"/>
<path d="M144.784 144.311H143.812V148.443H144.784V144.311Z" fill="#E5E5E5"/>
<path d="M160.823 144.311H159.851V148.443H160.823V144.311Z" fill="#E5E5E5"/>
<path d="M176.863 144.311H175.891V148.443H176.863V144.311Z" fill="#E5E5E5"/>
<path d="M192.902 144.311H191.93V148.443H192.902V144.311Z" fill="#E5E5E5"/>
<path d="M208.942 144.311H207.97V148.443H208.942V144.311Z" fill="#E5E5E5"/>
<path d="M225.223 144.311H224.251V148.443H225.223V144.311Z" fill="#E5E5E5"/>
<path d="M241.263 144.311H240.291V148.443H241.263V144.311Z" fill="#E5E5E5"/>
<path d="M257.303 144.311H256.331V148.443H257.303V144.311Z" fill="#E5E5E5"/>
<path d="M273.342 144.311H272.37V148.443H273.342V144.311Z" fill="#E5E5E5"/>
<path d="M277.23 153.485H107.114V154.457H277.23V153.485Z" fill="#E5E5E5"/>
<path d="M108.816 150.082H110.517C110.76 150.082 110.76 150.325 110.76 150.325V152.269C110.76 152.512 110.517 152.512 110.517 152.512H108.816C108.573 152.512 108.573 152.269 108.573 152.269V150.325C108.573 150.325 108.573 150.082 108.816 150.082Z" fill="#B3B2B3"/>
<path d="M113.919 149.353H112.947V153.485H113.919V149.353Z" fill="#E5E5E5"/>
<path d="M128.744 149.353H127.771V153.485H128.744V149.353Z" fill="#E5E5E5"/>
<path d="M144.784 149.353H143.812V153.485H144.784V149.353Z" fill="#E5E5E5"/>
<path d="M160.823 149.353H159.851V153.485H160.823V149.353Z" fill="#E5E5E5"/>
<path d="M176.863 149.353H175.891V153.485H176.863V149.353Z" fill="#E5E5E5"/>
<path d="M192.902 149.353H191.93V153.485H192.902V149.353Z" fill="#E5E5E5"/>
<path d="M208.942 149.353H207.97V153.485H208.942V149.353Z" fill="#E5E5E5"/>
<path d="M225.223 149.353H224.251V153.485H225.223V149.353Z" fill="#E5E5E5"/>
<path d="M241.263 149.353H240.291V153.485H241.263V149.353Z" fill="#E5E5E5"/>
<path d="M257.303 149.353H256.331V153.485H257.303V149.353Z" fill="#E5E5E5"/>
<path d="M273.342 149.353H272.37V153.485H273.342V149.353Z" fill="#E5E5E5"/>
<path d="M277.23 158.526H107.114V159.498H277.23V158.526Z" fill="#E5E5E5"/>
<path d="M108.816 155.125H110.517C110.76 155.125 110.76 155.368 110.76 155.368V157.312C110.76 157.555 110.517 157.555 110.517 157.555H108.816C108.573 157.555 108.573 157.312 108.573 157.312V155.368C108.573 155.368 108.573 155.125 108.816 155.125Z" fill="#B3B2B3"/>
<path d="M113.919 154.395H112.947V158.526H113.919V154.395Z" fill="#E5E5E5"/>
<path d="M128.744 154.395H127.771V158.526H128.744V154.395Z" fill="#E5E5E5"/>
<path d="M144.784 154.395H143.812V158.526H144.784V154.395Z" fill="#E5E5E5"/>
<path d="M160.823 154.395H159.851V158.526H160.823V154.395Z" fill="#E5E5E5"/>
<path d="M176.863 154.395H175.891V158.526H176.863V154.395Z" fill="#E5E5E5"/>
<path d="M192.902 154.395H191.93V158.526H192.902V154.395Z" fill="#E5E5E5"/>
<path d="M208.942 154.395H207.97V158.526H208.942V154.395Z" fill="#E5E5E5"/>
<path d="M225.223 154.395H224.251V158.526H225.223V154.395Z" fill="#E5E5E5"/>
<path d="M241.263 154.395H240.291V158.526H241.263V154.395Z" fill="#E5E5E5"/>
<path d="M257.303 154.395H256.331V158.526H257.303V154.395Z" fill="#E5E5E5"/>
<path d="M273.342 154.395H272.37V158.526H273.342V154.395Z" fill="#E5E5E5"/>
<path d="M277.23 163.568H107.114V164.54H277.23V163.568Z" fill="#E5E5E5"/>
<path d="M108.816 160.167H110.517C110.76 160.167 110.76 160.409 110.76 160.409V162.354C110.76 162.597 110.517 162.597 110.517 162.597H108.816C108.573 162.597 108.573 162.354 108.573 162.354V160.409C108.573 160.409 108.573 160.167 108.816 160.167Z" fill="#B3B2B3"/>
<path d="M113.919 159.437H112.947V163.569H113.919V159.437Z" fill="#E5E5E5"/>
<path d="M128.744 159.437H127.771V163.569H128.744V159.437Z" fill="#E5E5E5"/>
<path d="M144.784 159.437H143.812V163.569H144.784V159.437Z" fill="#E5E5E5"/>
<path d="M160.823 159.437H159.851V163.569H160.823V159.437Z" fill="#E5E5E5"/>
<path d="M176.863 159.437H175.891V163.569H176.863V159.437Z" fill="#E5E5E5"/>
<path d="M192.902 159.437H191.93V163.569H192.902V159.437Z" fill="#E5E5E5"/>
<path d="M208.942 159.437H207.97V163.569H208.942V159.437Z" fill="#E5E5E5"/>
<path d="M225.223 159.437H224.251V163.569H225.223V159.437Z" fill="#E5E5E5"/>
<path d="M241.263 159.437H240.291V163.569H241.263V159.437Z" fill="#E5E5E5"/>
<path d="M257.303 159.437H256.331V163.569H257.303V159.437Z" fill="#E5E5E5"/>
<path d="M273.342 159.437H272.37V163.569H273.342V159.437Z" fill="#E5E5E5"/>
<path d="M277.23 168.61H107.114V169.582H277.23V168.61Z" fill="#E5E5E5"/>
<path d="M108.816 165.451H110.517C110.76 165.451 110.76 165.694 110.76 165.694V167.638C110.76 167.881 110.517 167.881 110.517 167.881H108.816C108.573 167.881 108.573 167.638 108.573 167.638V165.694C108.573 165.451 108.573 165.451 108.816 165.451Z" fill="#B3B2B3"/>
<path d="M113.919 164.479H112.947V168.611H113.919V164.479Z" fill="#E5E5E5"/>
<path d="M128.744 164.479H127.771V168.611H128.744V164.479Z" fill="#E5E5E5"/>
<path d="M144.784 164.479H143.812V168.611H144.784V164.479Z" fill="#E5E5E5"/>
<path d="M160.823 164.479H159.851V168.611H160.823V164.479Z" fill="#E5E5E5"/>
<path d="M176.863 164.479H175.891V168.611H176.863V164.479Z" fill="#E5E5E5"/>
<path d="M192.902 164.479H191.93V168.611H192.902V164.479Z" fill="#E5E5E5"/>
<path d="M208.942 164.479H207.97V168.611H208.942V164.479Z" fill="#E5E5E5"/>
<path d="M225.223 164.479H224.251V168.611H225.223V164.479Z" fill="#E5E5E5"/>
<path d="M241.263 164.479H240.291V168.611H241.263V164.479Z" fill="#E5E5E5"/>
<path d="M257.303 164.479H256.331V168.611H257.303V164.479Z" fill="#E5E5E5"/>
<path d="M273.342 164.479H272.37V168.611H273.342V164.479Z" fill="#E5E5E5"/>
<path d="M277.23 173.652H107.114V174.624H277.23V173.652Z" fill="#E5E5E5"/>
<path d="M108.816 170.493H110.517C110.76 170.493 110.76 170.736 110.76 170.736V172.68C110.76 172.923 110.517 172.923 110.517 172.923H108.816C108.573 172.923 108.573 172.68 108.573 172.68V170.736C108.573 170.493 108.573 170.493 108.816 170.493Z" fill="#B3B2B3"/>
<path d="M113.919 169.521H112.947V173.652H113.919V169.521Z" fill="#E5E5E5"/>
<path d="M128.744 169.521H127.771V173.652H128.744V169.521Z" fill="#E5E5E5"/>
<path d="M144.784 169.521H143.812V173.652H144.784V169.521Z" fill="#E5E5E5"/>
<path d="M160.823 169.521H159.851V173.652H160.823V169.521Z" fill="#E5E5E5"/>
<path d="M176.863 169.521H175.891V173.652H176.863V169.521Z" fill="#E5E5E5"/>
<path d="M192.902 169.521H191.93V173.652H192.902V169.521Z" fill="#E5E5E5"/>
<path d="M208.942 169.521H207.97V173.652H208.942V169.521Z" fill="#E5E5E5"/>
<path d="M225.223 169.521H224.251V173.652H225.223V169.521Z" fill="#E5E5E5"/>
<path d="M241.263 169.521H240.291V173.652H241.263V169.521Z" fill="#E5E5E5"/>
<path d="M257.303 169.521H256.331V173.652H257.303V169.521Z" fill="#E5E5E5"/>
<path d="M273.342 169.521H272.37V173.652H273.342V169.521Z" fill="#E5E5E5"/>
<path d="M277.23 178.937H107.114V179.909H277.23V178.937Z" fill="#E5E5E5"/>
<path d="M108.816 175.535H110.517C110.76 175.535 110.76 175.778 110.76 175.778V177.722C110.76 177.965 110.517 177.965 110.517 177.965H108.816C108.573 177.965 108.573 177.722 108.573 177.722V175.778C108.573 175.535 108.573 175.535 108.816 175.535Z" fill="#B3B2B3"/>
<path d="M113.919 174.563H112.947V178.694H113.919V174.563Z" fill="#E5E5E5"/>
<path d="M128.744 174.563H127.771V178.694H128.744V174.563Z" fill="#E5E5E5"/>
<path d="M144.784 174.563H143.812V178.694H144.784V174.563Z" fill="#E5E5E5"/>
<path d="M160.823 174.563H159.851V178.694H160.823V174.563Z" fill="#E5E5E5"/>
<path d="M176.863 174.563H175.891V178.694H176.863V174.563Z" fill="#E5E5E5"/>
<path d="M192.902 174.563H191.93V178.694H192.902V174.563Z" fill="#E5E5E5"/>
<path d="M208.942 174.563H207.97V178.694H208.942V174.563Z" fill="#E5E5E5"/>
<path d="M225.223 174.563H224.251V178.694H225.223V174.563Z" fill="#E5E5E5"/>
<path d="M241.263 174.563H240.291V178.694H241.263V174.563Z" fill="#E5E5E5"/>
<path d="M257.303 174.563H256.331V178.694H257.303V174.563Z" fill="#E5E5E5"/>
<path d="M273.342 174.563H272.37V178.694H273.342V174.563Z" fill="#E5E5E5"/>
<path d="M277.23 183.979H107.114V184.952H277.23V183.979Z" fill="#E5E5E5"/>
<path d="M108.816 180.577H110.517C110.76 180.577 110.76 180.82 110.76 180.82V182.764C110.76 183.007 110.517 183.007 110.517 183.007H108.816C108.573 183.007 108.573 182.764 108.573 182.764V180.82C108.573 180.577 108.573 180.577 108.816 180.577Z" fill="#B3B2B3"/>
<path d="M113.919 179.605H112.947V183.736H113.919V179.605Z" fill="#E5E5E5"/>
<path d="M128.744 179.605H127.771V183.736H128.744V179.605Z" fill="#E5E5E5"/>
<path d="M144.784 179.605H143.812V183.736H144.784V179.605Z" fill="#E5E5E5"/>
<path d="M160.823 179.605H159.851V183.736H160.823V179.605Z" fill="#E5E5E5"/>
<path d="M176.863 179.605H175.891V183.736H176.863V179.605Z" fill="#E5E5E5"/>
<path d="M192.902 179.605H191.93V183.736H192.902V179.605Z" fill="#E5E5E5"/>
<path d="M208.942 179.605H207.97V183.736H208.942V179.605Z" fill="#E5E5E5"/>
<path d="M225.223 179.605H224.251V183.736H225.223V179.605Z" fill="#E5E5E5"/>
<path d="M241.263 179.605H240.291V183.736H241.263V179.605Z" fill="#E5E5E5"/>
<path d="M257.303 179.605H256.331V183.736H257.303V179.605Z" fill="#E5E5E5"/>
<path d="M273.342 179.605H272.37V183.736H273.342V179.605Z" fill="#E5E5E5"/>
<path d="M277.23 189.021H107.114V189.993H277.23V189.021Z" fill="#E5E5E5"/>
<path d="M108.816 185.619H110.517C110.76 185.619 110.76 185.862 110.76 185.862V187.806C110.76 188.049 110.517 188.049 110.517 188.049H108.816C108.573 188.049 108.573 187.806 108.573 187.806V185.862C108.573 185.862 108.573 185.619 108.816 185.619Z" fill="#B3B2B3"/>
<path d="M113.919 184.89H112.947V189.021H113.919V184.89Z" fill="#E5E5E5"/>
<path d="M128.744 184.89H127.771V189.021H128.744V184.89Z" fill="#E5E5E5"/>
<path d="M144.784 184.89H143.812V189.021H144.784V184.89Z" fill="#E5E5E5"/>
<path d="M160.823 184.89H159.851V189.021H160.823V184.89Z" fill="#E5E5E5"/>
<path d="M176.863 184.89H175.891V189.021H176.863V184.89Z" fill="#E5E5E5"/>
<path d="M192.902 184.89H191.93V189.021H192.902V184.89Z" fill="#E5E5E5"/>
<path d="M208.942 184.89H207.97V189.021H208.942V184.89Z" fill="#E5E5E5"/>
<path d="M225.223 184.89H224.251V189.021H225.223V184.89Z" fill="#E5E5E5"/>
<path d="M241.263 184.89H240.291V189.021H241.263V184.89Z" fill="#E5E5E5"/>
<path d="M257.303 184.89H256.331V189.021H257.303V184.89Z" fill="#E5E5E5"/>
<path d="M273.342 184.89H272.37V189.021H273.342V184.89Z" fill="#E5E5E5"/>
<path d="M277.23 194.063H107.114V195.035H277.23V194.063Z" fill="#E5E5E5"/>
<path d="M108.816 190.661H110.517C110.76 190.661 110.76 190.904 110.76 190.904V192.848C110.76 193.091 110.517 193.091 110.517 193.091H108.816C108.573 193.091 108.573 192.848 108.573 192.848V190.904C108.573 190.904 108.573 190.661 108.816 190.661Z" fill="#B3B2B3"/>
<path d="M113.919 189.932H112.947V194.063H113.919V189.932Z" fill="#E5E5E5"/>
<path d="M128.744 189.932H127.771V194.063H128.744V189.932Z" fill="#E5E5E5"/>
<path d="M144.784 189.932H143.812V194.063H144.784V189.932Z" fill="#E5E5E5"/>
<path d="M160.823 189.932H159.851V194.063H160.823V189.932Z" fill="#E5E5E5"/>
<path d="M176.863 189.932H175.891V194.063H176.863V189.932Z" fill="#E5E5E5"/>
<path d="M192.902 189.932H191.93V194.063H192.902V189.932Z" fill="#E5E5E5"/>
<path d="M208.942 189.932H207.97V194.063H208.942V189.932Z" fill="#E5E5E5"/>
<path d="M225.223 189.932H224.251V194.063H225.223V189.932Z" fill="#E5E5E5"/>
<path d="M241.263 189.932H240.291V194.063H241.263V189.932Z" fill="#E5E5E5"/>
<path d="M257.303 189.932H256.331V194.063H257.303V189.932Z" fill="#E5E5E5"/>
<path d="M273.342 189.932H272.37V194.063H273.342V189.932Z" fill="#E5E5E5"/>
<path d="M107.114 193.759H277.23V198.863H107.114V193.759Z" fill="#EBEBEB"/>
<path d="M273.342 195.46H275.286V197.648H273.342V195.46Z" fill="#B3B2B3"/>
<path d="M269.454 195.46H271.398V197.648H269.454V195.46Z" fill="#B3B2B3"/>
<path d="M109.302 194.974C109.058 194.974 109.058 195.217 109.058 195.217V195.46H108.815V197.647H112.704V195.46H111.003V195.217C111.003 194.974 110.76 194.974 110.76 194.974H109.302Z" fill="#B3B2B3"/>
<path d="M113.434 195.704V197.891H117.079V195.704H113.434Z" fill="#B3B2B3"/>
<path d="M277.23 123.949H107.114V128.081H277.23V123.949Z" fill="#CDCCCB"/>
<path d="M112.947 123.949L107.114 128.081H112.947V123.949Z" fill="#B3B2B3"/>
<path d="M113.919 123.949H112.947V128.081H113.919V123.949Z" fill="#E5E5E5"/>
<path d="M128.744 123.949H127.771V128.081H128.744V123.949Z" fill="#E5E5E5"/>
<path d="M144.784 123.949H143.812V128.081H144.784V123.949Z" fill="#E5E5E5"/>
<path d="M160.823 123.949H159.851V128.081H160.823V123.949Z" fill="#E5E5E5"/>
<path d="M176.863 123.949H175.891V128.081H176.863V123.949Z" fill="#E5E5E5"/>
<path d="M192.902 123.949H191.93V128.081H192.902V123.949Z" fill="#E5E5E5"/>
<path d="M208.942 123.949H207.97V128.081H208.942V123.949Z" fill="#E5E5E5"/>
<path d="M225.223 123.949H224.251V128.081H225.223V123.949Z" fill="#E5E5E5"/>
<path d="M241.263 123.949H240.291V128.081H241.263V123.949Z" fill="#E5E5E5"/>
<path d="M257.303 123.949H256.331V128.081H257.303V123.949Z" fill="#E5E5E5"/>
<path d="M273.342 123.949H272.37V128.081H273.342V123.949Z" fill="#E5E5E5"/>
<path d="M277.23 128.081H107.114V129.053H277.23V128.081Z" fill="#E5E5E5"/>
<path d="M107.114 117.145V118.117V122.977V123.949H277.23V122.977V118.117V117.145H107.114Z" fill="#E5E5E5"/>
<path d="M137.735 118.117H275.772C276.015 118.117 276.258 118.36 276.258 118.603V121.763C276.258 122.006 276.015 122.249 275.772 122.249H137.735C137.492 122.249 137.249 122.006 137.249 121.763V118.603C137.249 118.36 137.492 118.117 137.735 118.117Z" fill="white"/>
<path d="M108.331 118.117H135.792C136.035 118.117 136.279 118.36 136.279 118.603V121.763C136.279 122.006 136.035 122.249 135.792 122.249H108.331C108.088 122.249 107.845 122.006 107.845 121.763V118.603C107.845 118.36 108.088 118.117 108.331 118.117Z" fill="white"/>
<path d="M277.23 106.452H107.114V117.145H277.23V106.452Z" fill="#EBEBEB"/>
<path d="M212.1 108.259H219.391C219.634 108.259 219.877 108.502 219.877 108.745V114.577C219.877 114.82 219.634 115.063 219.391 115.063H212.1C211.857 115.063 211.614 114.82 211.614 114.577V108.745C211.614 108.502 211.857 108.259 212.1 108.259Z" fill="white"/>
<path d="M223.037 108.259H230.328C230.571 108.259 230.814 108.502 230.814 108.745V114.577C230.814 114.82 230.571 115.063 230.328 115.063H223.037C222.794 115.063 222.551 114.82 222.551 114.577V108.745C222.308 108.502 222.551 108.259 223.037 108.259Z" fill="white"/>
<path d="M233.73 108.259H241.021C241.264 108.259 241.507 108.502 241.507 108.745V114.577C241.507 114.82 241.264 115.063 241.021 115.063H233.73C233.487 115.063 233.244 114.82 233.244 114.577V108.745C233.244 108.502 233.487 108.259 233.73 108.259Z" fill="white"/>
<path d="M244.666 108.259H251.957C252.2 108.259 252.443 108.502 252.443 108.745V114.577C252.443 114.82 252.2 115.063 251.957 115.063H244.666C244.423 115.063 244.18 114.82 244.18 114.577V108.745C244.18 108.502 244.423 108.259 244.666 108.259Z" fill="white"/>
<path d="M255.358 108.259H262.649C262.892 108.259 263.135 108.502 263.135 108.745V114.577C263.135 114.82 262.892 115.063 262.649 115.063H255.358C255.115 115.063 254.872 114.82 254.872 114.577V108.745C254.872 108.502 255.115 108.259 255.358 108.259Z" fill="white"/>
<path d="M130.445 108.745H161.066C161.309 108.745 161.552 108.988 161.552 109.231V110.932C161.552 111.175 161.309 111.418 161.066 111.418H130.445C130.202 111.418 129.959 111.175 129.959 110.932V109.231C129.716 108.988 129.959 108.745 130.445 108.745Z" fill="white"/>
<path d="M163.01 108.745H166.169C166.412 108.745 166.655 108.988 166.655 109.231V111.175C166.655 111.418 166.412 111.661 166.169 111.661H163.01C162.767 111.661 162.523 111.418 162.523 111.175V109.231C162.523 109.231 162.767 108.745 163.01 108.745Z" fill="white"/>
<path d="M109.545 108.259H114.162C114.405 108.259 114.648 108.502 114.648 108.745V113.848C114.648 114.091 114.405 114.334 114.162 114.334H109.545C109.302 114.334 109.059 114.091 109.059 113.848V108.745C109.059 108.502 109.302 108.259 109.545 108.259Z" fill="#A6A8AB"/>
<path d="M112.46 110.446H115.377C115.62 110.446 115.863 110.689 115.863 110.932V114.82C115.863 115.063 115.62 115.306 115.377 115.306H112.46C112.217 115.306 111.974 115.063 111.974 114.82V110.689C111.731 110.689 111.974 110.446 112.46 110.446Z" fill="white"/>
<path d="M164.468 112.876H166.169C166.412 112.876 166.655 113.119 166.655 113.362V115.306C166.655 115.549 166.412 115.792 166.169 115.792H164.468C164.225 115.792 163.981 115.549 163.981 115.306V113.362C164.224 113.119 164.468 112.876 164.468 112.876Z" fill="#A6A8AB"/>
<path d="M161.551 112.876H163.253C163.496 112.876 163.739 113.119 163.739 113.362V115.306C163.739 115.549 163.496 115.792 163.253 115.792H161.551C161.308 115.792 161.065 115.549 161.065 115.306V113.362C161.065 113.119 161.308 112.876 161.551 112.876Z" fill="#A6A8AB"/>
<path d="M117.807 108.988H125.097C125.34 108.988 125.34 109.231 125.34 109.231V110.203C125.34 110.446 125.097 110.446 125.097 110.446H117.807C117.564 110.446 117.563 110.203 117.563 110.203V109.231C117.563 108.988 117.564 108.988 117.807 108.988Z" fill="#A6A8AB"/>
<path d="M124.369 111.175H125.098C125.341 111.175 125.341 111.418 125.341 111.418V112.39C125.341 112.633 125.098 112.633 125.098 112.633H124.369C124.126 112.633 124.126 112.39 124.126 112.39V111.418L124.369 111.175Z" fill="#A6A8AB"/>
<path d="M117.807 113.605H125.097C125.34 113.605 125.34 113.848 125.34 113.848V114.82C125.34 115.063 125.097 115.063 125.097 115.063H117.807C117.564 115.063 117.563 114.82 117.563 114.82V113.848C117.563 113.605 117.564 113.605 117.807 113.605Z" fill="#A6A8AB"/>
<path d="M172.973 108.502H174.431C174.674 108.502 174.917 108.745 174.917 108.988V110.689C174.917 110.932 174.674 111.175 174.431 111.175H172.973C172.73 111.175 172.487 110.932 172.487 110.689V108.988C172.244 108.745 172.487 108.502 172.973 108.502Z" fill="#A6A8AB"/>
<path d="M175.89 108.502H180.265C180.508 108.502 180.751 108.745 180.751 108.988V110.689C180.751 110.932 180.508 111.175 180.265 111.175H175.89C175.647 111.175 175.404 110.932 175.404 110.689V108.988C175.404 108.745 175.647 108.502 175.89 108.502Z" fill="#A6A8AB"/>
<path d="M182.451 108.502H206.024C206.267 108.502 206.51 108.745 206.51 108.988V110.689C206.51 110.932 206.267 111.175 206.024 111.175H182.451C182.208 111.175 181.965 110.932 181.965 110.689V108.988C181.965 108.745 182.208 108.502 182.451 108.502Z" fill="#A6A8AB"/>
<path d="M172.973 112.39H174.431C174.674 112.39 174.917 112.633 174.917 112.876V114.577C174.917 114.82 174.674 115.063 174.431 115.063H172.973C172.73 115.063 172.487 114.82 172.487 114.577V112.876C172.244 112.633 172.487 112.39 172.973 112.39Z" fill="#A6A8AB"/>
<path d="M175.89 112.39H180.265C180.508 112.39 180.751 112.633 180.751 112.876V114.577C180.751 114.82 180.508 115.063 180.265 115.063H175.89C175.647 115.063 175.404 114.82 175.404 114.577V112.876C175.404 112.633 175.647 112.39 175.89 112.39Z" fill="#A6A8AB"/>
<path d="M182.451 112.39H206.024C206.267 112.39 206.51 112.633 206.51 112.876V114.577C206.51 114.82 206.267 115.063 206.024 115.063H182.451C182.208 115.063 181.965 114.82 181.965 114.577V112.876C181.965 112.633 182.208 112.39 182.451 112.39Z" fill="#A6A8AB"/>
<path d="M131.903 113.362H139.437C139.68 113.362 139.923 113.605 139.923 113.848V115.063C139.923 115.307 139.68 115.55 139.437 115.55H131.903C131.66 115.55 131.417 115.307 131.417 115.063V113.848C131.417 113.362 131.66 113.362 131.903 113.362Z" fill="#A6A8AB"/>
<path d="M141.138 113.362H148.671C148.914 113.362 149.157 113.605 149.157 113.848V115.063C149.157 115.307 148.914 115.55 148.671 115.55H141.138C140.895 115.55 140.651 115.307 140.651 115.063V113.848C140.894 113.362 140.895 113.362 141.138 113.362Z" fill="#A6A8AB"/>
<path d="M150.858 113.362H158.392C158.635 113.362 158.878 113.605 158.878 113.848V115.063C158.878 115.307 158.635 115.55 158.392 115.55H150.858C150.615 115.55 150.372 115.307 150.372 115.063V113.848C150.615 113.362 150.615 113.362 150.858 113.362Z" fill="#A6A8AB"/>
<path d="M268.238 108.259H274.314C274.557 108.259 274.557 108.502 274.557 108.502V109.474C274.557 109.717 274.314 109.717 274.314 109.717H268.238C267.995 109.717 267.995 109.474 267.995 109.474V108.502C267.995 108.502 267.995 108.259 268.238 108.259Z" fill="#A6A8AB"/>
<path d="M268.238 110.932H274.314C274.557 110.932 274.557 111.175 274.557 111.175V111.904C274.557 112.147 274.314 112.147 274.314 112.147H268.238C267.995 112.147 267.995 111.904 267.995 111.904V111.175C267.995 110.932 267.995 110.932 268.238 110.932Z" fill="#A6A8AB"/>
<path d="M268.238 113.362H274.314C274.557 113.362 274.557 113.605 274.557 113.605V114.334C274.557 114.577 274.314 114.577 274.314 114.577H268.238C267.995 114.577 267.995 114.334 267.995 114.334V113.605C267.995 113.362 267.995 113.362 268.238 113.362Z" fill="#A6A8AB"/>
<path d="M117.807 111.175H118.779C119.022 111.175 119.022 111.418 119.022 111.418V112.39C119.022 112.633 118.779 112.633 118.779 112.633H117.807C117.564 112.633 117.563 112.39 117.563 112.39V111.418C117.563 111.418 117.564 111.175 117.807 111.175Z" fill="#A6A8AB"/>
<path d="M119.995 111.175H123.397C123.64 111.175 123.64 111.418 123.64 111.418V112.39C123.64 112.633 123.397 112.633 123.397 112.633H119.995C119.752 112.633 119.752 112.39 119.752 112.39V111.418C119.509 111.418 119.752 111.175 119.995 111.175Z" fill="#A6A8AB"/>
<path d="M277.176 96.6211H107.061V106.342H277.176V96.6211Z" fill="#635BFE"/>
<path d="M277.176 101.725H107.061V106.342H277.176V101.725Z" fill="#635BFE"/>
<path d="M115.08 98.5652H159.553C159.796 98.5652 159.796 98.8081 159.796 98.8081V100.509C159.796 100.752 159.553 100.752 159.553 100.752H115.08C114.837 100.752 114.837 100.509 114.837 100.509V98.8081C114.837 98.8081 114.837 98.5652 115.08 98.5652Z" fill="white"/>
<path d="M246.369 189.808H137.98V191.51H246.369V189.808Z" fill="#635BFE"/>
<path d="M241.022 131.24H233.975V189.808H241.022V131.24Z" fill="#FFAF30"/>
<path d="M225.954 145.092H218.906V190.051H225.954V145.092Z" fill="#635BFE"/>
<path d="M210.643 142.419H203.596V189.808H210.643V142.419Z" fill="#2D1959"/>
<path d="M195.577 159.431H188.529V189.809H195.577V159.431Z" fill="#FFAF30"/>
<path d="M180.265 168.908H173.218V190.051H180.265V168.908Z" fill="#635BFE"/>
<path d="M165.199 177.9H158.151V190.051H165.199V177.9Z" fill="#635BFE"/>
<path d="M149.889 183.49H142.841V189.809H149.889V183.49Z" fill="#635BFE"/>
<path opacity="0.2" d="M113.255 89.3196V113.865C113.255 115.323 112.283 116.295 111.068 116.295H75.3434C74.1283 116.295 73.1562 115.08 73.1562 113.865V89.3196C73.1562 87.8615 74.1283 86.8894 75.3434 86.8894H111.311C112.283 86.8894 113.255 88.1045 113.255 89.3196Z" fill="#808184"/>
<path d="M111.796 87.8616V112.407C111.796 113.865 110.824 114.837 109.609 114.837H73.8845C72.6694 114.837 71.6973 113.622 71.6973 112.407V87.8616C71.6973 86.4035 72.6694 85.4314 73.8845 85.4314H109.852C110.824 85.4314 111.796 86.6465 111.796 87.8616Z" fill="white"/>
<path d="M83.3607 103.416H78.9863V110.949H83.3607V103.416Z" fill="#635BFE"/>
<path d="M90.4076 98.5549H86.0332V111.192H90.4076V98.5549Z" fill="#635BFE"/>
<path d="M97.4555 93.4514H93.0811V111.192H97.4555V93.4514Z" fill="#635BFE"/>
<path d="M104.503 89.3201H100.129V110.949H104.503V89.3201Z" fill="#635BFE"/>
<path d="M75.0982 88.8339C75.5009 88.8339 75.8273 88.5074 75.8273 88.1048C75.8273 87.7021 75.5009 87.3757 75.0982 87.3757C74.6956 87.3757 74.3691 87.7021 74.3691 88.1048C74.3691 88.5074 74.6956 88.8339 75.0982 88.8339Z" fill="#635BFE"/>
<path d="M78.0152 88.8339C78.4179 88.8339 78.7443 88.5074 78.7443 88.1048C78.7443 87.7021 78.4179 87.3757 78.0152 87.3757C77.6125 87.3757 77.2861 87.7021 77.2861 88.1048C77.2861 88.5074 77.6125 88.8339 78.0152 88.8339Z" fill="#635BFE"/>
<path d="M81.9034 88.1048C81.9034 88.5908 81.6604 88.8339 81.1744 88.8339C80.6883 88.8339 80.4453 88.5908 80.4453 88.1048C80.4453 87.6187 80.6883 87.3757 81.1744 87.3757C81.6604 87.3757 81.9034 87.6187 81.9034 88.1048Z" fill="#635BFE"/>
<path d="M58.0887 148.617H100.375C101.59 148.617 102.319 149.589 102.319 151.047V159.553L105.478 161.011L102.319 162.469V164.657C102.319 165.872 101.347 167.087 100.375 167.087H58.0887C56.8736 167.087 56.1445 166.115 56.1445 164.657V150.804C56.1445 149.589 57.1166 148.617 58.0887 148.617Z" fill="#0D0B2B"/>
<path d="M94.2991 152.262H61.248V153.964H94.2991V152.262Z" fill="#635BFE"/>
<path d="M81.4189 155.422H61.248V157.123H81.4189V155.422Z" fill="#635BFE"/>
<path d="M89.9247 158.581H61.248V160.282H89.9247V158.581Z" fill="#635BFE"/>
<path d="M75.8294 161.74H61.248V163.441H75.8294V161.74Z" fill="#635BFE"/>
<path opacity="0.2" d="M124.92 172.19H82.6337C81.4186 172.19 80.6896 173.162 80.6896 174.62V176.079L77.5303 177.537L80.6896 178.995V188.23C80.6896 189.445 81.6617 190.66 82.6337 190.66H124.92C126.135 190.66 126.864 189.688 126.864 188.23V174.377C126.864 173.162 126.135 172.19 124.92 172.19Z" fill="#808184"/>
<path d="M123.219 170.732H80.9326C79.7175 170.732 78.9884 171.704 78.9884 173.162V174.621L75.8291 176.079L78.9884 177.537V186.772C78.9884 187.987 79.9605 189.202 80.9326 189.202H123.219C124.434 189.202 125.163 188.23 125.163 186.772V172.919C125.163 171.947 124.191 170.732 123.219 170.732Z" fill="#FFAF30"/>
<path d="M117.871 184.098H84.8203V185.8H117.871V184.098Z" fill="#0D0B2B"/>
<path d="M104.991 180.939H84.8203V182.64H104.991V180.939Z" fill="#0D0B2B"/>
<path d="M113.497 177.78H84.8203V179.481H113.497V177.78Z" fill="#0D0B2B"/>
<path d="M99.4017 174.621H84.8203V176.322H99.4017V174.621Z" fill="#0D0B2B"/>
<path opacity="0.2" d="M311.318 150.562V178.752C311.318 180.21 310.346 181.668 308.888 181.668H267.574C266.359 181.668 265.144 180.453 265.144 178.752V150.562C265.144 149.103 266.116 147.645 267.574 147.645H308.888C310.346 147.888 311.318 149.103 311.318 150.562Z" fill="#808184"/>
<path d="M312.776 149.346V177.537C312.776 178.995 311.804 180.453 310.346 180.453H269.032C267.817 180.453 266.602 179.238 266.602 177.537V149.346C266.602 147.888 267.574 146.43 269.032 146.43H310.346C311.561 146.43 312.776 147.645 312.776 149.346Z" fill="#0D0B2B"/>
<path d="M271.463 149.589C271.463 150.075 270.977 150.561 270.491 150.561C270.005 150.561 269.519 150.075 269.519 149.589C269.519 149.103 270.005 148.617 270.491 148.617C270.977 148.617 271.463 149.103 271.463 149.589Z" fill="#FFAF30"/>
<path d="M274.865 149.589C274.865 150.075 274.379 150.561 273.893 150.561C273.407 150.561 272.921 150.075 272.921 149.589C272.921 149.103 273.407 148.617 273.893 148.617C274.622 148.617 274.865 149.103 274.865 149.589Z" fill="#635BFE"/>
<path d="M278.511 149.589C278.511 150.075 278.025 150.561 277.539 150.561C277.052 150.561 276.566 150.075 276.566 149.589C276.566 149.103 277.052 148.617 277.539 148.617C278.025 148.617 278.511 149.103 278.511 149.589Z" fill="#635BFE"/>
<path d="M298.681 155.179V157.852H304.028L295.765 166.115L291.148 161.497L283.371 169.274L279.239 165.386L271.22 173.405L272.921 175.107L279.239 169.031L283.371 173.162L291.148 165.386L295.765 170.003L305.729 160.039V164.9H308.159V155.179H298.681Z" fill="#FFAF30"/>
<path d="M133.632 83.2439C139.672 83.2439 144.568 78.3476 144.568 72.3078C144.568 66.2681 139.672 61.3718 133.632 61.3718C127.593 61.3718 122.696 66.2681 122.696 72.3078C122.696 78.3476 127.593 83.2439 133.632 83.2439Z" fill="#0D0B2B"/>
<path d="M137.763 74.4951C137.763 72.7939 136.791 72.0649 135.576 71.3358L134.118 70.8497C133.145 70.3637 132.416 70.1207 132.416 69.6346C132.416 68.9056 132.902 68.6625 133.875 68.6625C134.847 68.6625 135.576 68.9056 136.305 69.6346L137.52 67.9335C136.791 67.2044 135.819 66.7184 134.847 66.4753V64.7742H132.659V66.4753C131.201 66.9614 129.986 68.1765 129.986 69.6346C129.986 71.3358 131.201 72.3079 132.173 72.7939L133.632 73.523C134.604 74.009 135.333 74.2521 135.333 74.7381C135.333 75.4672 134.847 75.7102 133.875 75.7102C132.902 75.7102 131.93 75.2241 131.201 74.4951L129.743 76.1962C130.715 76.9253 131.687 77.4113 132.902 77.6544V79.3555H134.604V77.6544C136.548 77.4113 137.763 76.1962 137.763 74.4951Z" fill="#FFAF30"/>
<path d="M43.0197 121.399C47.4489 121.399 51.0395 117.808 51.0395 113.379C51.0395 108.95 47.4489 105.359 43.0197 105.359C38.5906 105.359 35 108.95 35 113.379C35 117.808 38.5906 121.399 43.0197 121.399Z" fill="#FFAF30"/>
<path d="M45.9369 115.08C45.9369 113.865 45.2078 113.136 44.2357 112.893L43.2637 112.407C42.5346 112.164 42.0485 111.921 42.0485 111.435C42.0485 110.949 42.5346 110.706 43.0206 110.706C43.7497 110.706 44.2357 110.949 44.7218 111.435L45.6939 110.22C45.2078 109.734 44.4788 109.248 43.7497 109.248V108.032H42.0485V109.248C40.8334 109.491 40.1043 110.463 40.1043 111.435C40.1043 112.65 40.8334 113.379 41.8055 113.622L42.7776 114.108C43.5067 114.351 43.9927 114.594 43.9927 115.08C43.9927 115.566 43.5067 115.809 42.7776 115.809C42.0485 115.809 41.3195 115.566 40.8334 114.837L39.8613 116.295C40.5904 116.781 41.3195 117.267 42.0485 117.51V118.725H43.7497V117.51C45.2078 117.267 45.9369 116.052 45.9369 115.08Z" fill="#0D0B2B"/>
<path d="M270.454 51.8244C270.454 60.0872 263.893 66.6488 255.63 66.6488C247.367 66.6488 240.806 60.0872 240.806 51.8244C240.806 43.5616 247.367 37 255.63 37C263.893 37.243 270.454 43.8046 270.454 51.8244Z" fill="white"/>
<path d="M261.462 54.9836C261.462 52.7964 260.247 51.5813 258.546 50.8522L256.602 50.1231C255.387 49.6371 254.415 49.151 254.415 48.422C254.415 47.4499 255.144 46.9638 256.359 46.9638C257.574 46.9638 258.546 47.4499 259.518 48.1789L261.219 45.9917C260.247 45.0196 258.789 44.2906 257.574 44.0476V41.8604H254.658V44.2906C252.471 45.0196 251.255 46.4778 251.255 48.422C251.255 50.6092 252.714 51.8243 254.172 52.5533L256.116 53.2824C257.331 53.7685 258.303 54.0115 258.303 54.9836C258.303 55.9557 257.574 56.4417 256.116 56.4417C254.901 56.4417 253.443 55.7126 252.471 54.9836L250.526 57.4138C251.741 58.3859 253.2 59.115 254.658 59.358V61.7882H257.574V59.358C260.004 58.8719 261.462 57.1708 261.462 54.9836Z" fill="#0D0B2B"/>
<path d="M309.859 98.5542C309.859 102.686 306.457 106.088 302.326 106.088C298.194 106.088 294.792 102.686 294.792 98.5542C294.792 94.4228 298.194 91.0205 302.326 91.0205C306.457 91.0205 309.859 94.4228 309.859 98.5542Z" fill="#FFAF30"/>
<path d="M305.242 100.256C305.242 99.2834 304.756 98.5544 303.784 98.0683L302.812 97.5823C302.083 97.3393 301.597 97.0962 301.597 96.6102C301.597 96.1241 302.083 95.8811 302.569 95.8811C303.298 95.8811 303.784 96.1241 304.27 96.3672L305.242 95.1521C304.756 94.666 304.027 94.423 303.298 94.18V92.9648H301.84V94.18C300.868 94.423 300.139 95.3951 300.139 96.3672C300.139 97.5823 300.868 98.0683 301.597 98.5544L302.569 99.0404C303.298 99.2834 303.784 99.5265 303.784 100.013C303.784 100.499 303.541 100.742 302.812 100.742C302.083 100.742 301.354 100.499 300.868 100.013L299.896 101.228C300.382 101.714 301.354 102.2 302.083 102.2V103.658H303.541V102.443C304.513 102.2 305.242 101.228 305.242 100.256Z" fill="#0D0B2B"/>
<path d="M314.233 130.147C314.233 132.334 312.775 133.792 311.074 133.792C312.775 133.792 314.233 135.493 314.233 137.438C314.233 135.25 315.692 133.792 317.393 133.792C315.449 134.035 314.233 132.334 314.233 130.147Z" fill="white"/>
<path d="M322.739 127.474C322.739 129.661 321.281 131.119 319.58 131.119C321.281 131.119 322.739 132.821 322.739 134.765C322.739 132.578 324.197 131.119 325.899 131.119C324.197 131.119 322.739 129.418 322.739 127.474Z" fill="white"/>
<path d="M318.608 136.709C318.608 137.681 317.878 138.41 317.149 138.41C317.878 138.41 318.608 139.139 318.608 140.111C318.608 139.139 319.337 138.41 320.066 138.41C319.337 138.653 318.608 137.681 318.608 136.709Z" fill="white"/>
<path d="M317.149 124.801C317.149 126.016 316.42 126.988 315.205 126.988C316.177 126.988 317.149 127.96 317.149 129.175C317.149 127.96 317.878 126.988 319.093 126.988C317.878 126.988 317.149 126.016 317.149 124.801Z" fill="white"/>
<path d="M58.3308 55.8862C58.3308 57.3444 57.3587 58.5595 56.1436 58.5595C57.3587 58.5595 58.3308 59.7746 58.3308 61.2327C58.3308 59.7746 59.3029 58.5595 60.518 58.5595C59.3029 58.5595 58.3308 57.3444 58.3308 55.8862Z" fill="white"/>
<path d="M64.406 53.9421C64.406 55.4003 63.4339 56.6154 62.2188 56.6154C63.4339 56.6154 64.406 57.8305 64.406 59.2886C64.406 57.8305 65.3781 56.6154 66.5932 56.6154C65.6211 56.6154 64.406 55.4003 64.406 53.9421Z" fill="white"/>
<path d="M61.4897 60.7466C61.4897 61.4757 61.0036 61.9617 60.5176 61.9617C61.0036 61.9617 61.4897 62.4477 61.4897 63.1768C61.4897 62.4477 61.9757 61.9617 62.4617 61.9617C61.9757 61.9617 61.4897 61.4757 61.4897 60.7466Z" fill="white"/>
<path d="M60.5177 51.998C60.5177 52.9701 59.7886 53.6992 59.0596 53.6992C59.7886 53.6992 60.5177 54.4283 60.5177 55.4004C60.5177 54.4283 61.2468 53.6992 61.9759 53.6992C61.0038 53.4562 60.5177 52.7271 60.5177 51.998Z" fill="white"/>
<path d="M185.882 83.6606C185.882 86.3339 184.181 88.5211 181.751 88.5211C183.938 88.5211 185.882 90.7083 185.882 93.3816C185.882 90.7083 187.584 88.5211 190.014 88.5211C187.584 88.5211 185.882 86.3339 185.882 83.6606Z" fill="#FFAF30"/>
<path d="M197.061 80.0151C197.061 82.6884 195.36 84.8756 192.93 84.8756C195.117 84.8756 197.061 87.0628 197.061 89.736C197.061 87.0628 198.762 84.8756 201.192 84.8756C198.762 84.8756 197.061 82.6884 197.061 80.0151Z" fill="#FFAF30"/>
<path d="M191.715 92.1663C191.715 93.3814 190.743 94.3535 189.771 94.3535C190.743 94.3535 191.715 95.3256 191.715 96.5407C191.715 95.3256 192.687 94.3535 193.659 94.3535C192.687 94.3535 191.715 93.3814 191.715 92.1663Z" fill="#FFAF30"/>
<path d="M189.769 76.3696C189.769 78.0708 188.797 79.2859 187.339 79.2859C188.797 79.2859 189.769 80.501 189.769 82.2022C189.769 80.501 190.741 79.2859 192.199 79.2859C190.741 79.2859 189.769 78.0708 189.769 76.3696Z" fill="#FFAF30"/>
</svg>
