<svg width="20" height="20" viewBox="0 0 20 20" fill="none" xmlns="http://www.w3.org/2000/svg">
<path fill-rule="evenodd" clip-rule="evenodd" d="M5.25053 3.47803H4.19387V8.91281H5.25053V3.47803ZM11.6961 8.91281H8.31483L7.89216 8.31498V7.22803L8.31483 6.7389H11.6961L12.1188 7.28238V8.36933L11.6961 8.91281ZM6.41285 12.1737H3.03155L2.60889 11.6302V10.5432L3.03155 9.99977H6.41285L6.83551 10.5432V11.6302L6.41285 12.1737ZM10.5338 3.47803H9.47715V5.65194H10.5338V3.47803ZM9.47715 9.99977H10.5338V16.5215H9.47715V9.99977ZM5.25053 13.2606H4.19387V16.5215H5.25053V13.2606ZM13.5981 13.2606H16.9688L17.3915 12.7172V11.6845L16.9688 11.1411H13.5981L13.1754 11.6845V12.7172L13.5981 13.2606ZM15.8171 3.47803H14.7604V9.99977H15.8171V3.47803ZM14.7604 14.3476H15.8171V16.5215H14.7604V14.3476Z" fill="#000"/>
</svg>
