<svg width="20" height="20" viewBox="0 0 20 20" fill="none" xmlns="http://www.w3.org/2000/svg">
<path d="M14.0688 11.9769V7.49813C14.0656 6.49438 13.3956 5 11.5625 5V3.75L9.0625 5.625L11.5625 7.5V6.25C12.7056 6.25 12.8131 7.21187 12.8188 7.5V11.9769C11.9188 12.2481 11.2563 13.075 11.2563 14.0625C11.2563 15.2688 12.2375 16.25 13.4438 16.25C14.65 16.25 15.6313 15.2688 15.6313 14.0625C15.6313 13.075 14.9688 12.2481 14.0688 11.9769ZM13.4438 15C12.9269 15 12.5063 14.5794 12.5063 14.0625C12.5063 13.5456 12.9269 13.125 13.4438 13.125C13.9606 13.125 14.3813 13.5456 14.3813 14.0625C14.3813 14.5794 13.9606 15 13.4438 15ZM8.125 5.9375C8.125 4.73125 7.14375 3.75 5.9375 3.75C4.73125 3.75 3.75 4.73125 3.75 5.9375C3.75 6.925 4.4125 7.75187 5.3125 8.02312V11.9769C4.4125 12.2481 3.75 13.075 3.75 14.0625C3.75 15.2688 4.73125 16.25 5.9375 16.25C7.14375 16.25 8.125 15.2688 8.125 14.0625C8.125 13.075 7.4625 12.2481 6.5625 11.9769V8.02312C7.4625 7.75187 8.125 6.925 8.125 5.9375ZM5 5.9375C5 5.42062 5.42063 5 5.9375 5C6.45438 5 6.875 5.42062 6.875 5.9375C6.875 6.45438 6.45438 6.875 5.9375 6.875C5.42063 6.875 5 6.45438 5 5.9375ZM6.875 14.0625C6.875 14.5794 6.45438 15 5.9375 15C5.42063 15 5 14.5794 5 14.0625C5 13.5456 5.42063 13.125 5.9375 13.125C6.45438 13.125 6.875 13.5456 6.875 14.0625Z" fill="#C1BFDF"/>
</svg>
