<svg width="20" height="20" viewBox="0 0 20 20" fill="none" xmlns="http://www.w3.org/2000/svg">
<path d="M4.20306 3.8764C4.08746 3.92553 3.9285 4.08449 3.88225 4.20299C3.79266 4.41686 3.80133 4.45154 4.74352 7.28101L5.64814 9.99198L4.74063 12.7116C3.89093 15.2665 3.83601 15.4399 3.84757 15.5989C3.87069 15.9139 4.09035 16.122 4.41982 16.1422L4.61058 16.1538L10.2464 13.3359C14.2724 11.3243 15.9111 10.4891 15.9805 10.4226C16.1048 10.2983 16.1539 10.1741 16.1539 9.99198C16.1539 9.8099 16.1048 9.68563 15.9805 9.56135C15.9111 9.49488 14.2724 8.66251 10.2522 6.65096C4.71751 3.88507 4.61925 3.83594 4.45451 3.83594C4.36491 3.83883 4.24931 3.85617 4.20306 3.8764ZM9.83888 7.83014C12.2001 9.01222 14.1308 9.98331 14.1308 9.99198C14.1308 10.0122 5.5441 14.3041 5.52965 14.2897C5.52387 14.2839 5.79554 13.4544 6.13369 12.4457L6.74641 10.6134L8.48339 10.5989L10.2204 10.5845L10.3331 10.5064C10.3938 10.4631 10.4776 10.3793 10.5181 10.3186C10.5788 10.229 10.5903 10.1798 10.5903 9.99198C10.5903 9.79834 10.5817 9.75788 10.5123 9.65672C10.4689 9.59603 10.3851 9.51222 10.3244 9.47175L10.2175 9.3995L8.48339 9.38505L6.74641 9.3706L6.13369 7.5498C5.79843 6.54691 5.52098 5.72032 5.52098 5.70587C5.51809 5.69431 5.52387 5.68564 5.53254 5.68564C5.54121 5.68564 7.47762 6.65096 9.83888 7.83014Z" fill="#C1BFDF"/>
</svg>
