<svg width="20" height="20" viewBox="0 0 20 20" fill="none" xmlns="http://www.w3.org/2000/svg">
<path fill-rule="evenodd" clip-rule="evenodd" d="M5.69625 3.84619H14.3042C14.636 3.84618 14.9222 3.84617 15.1579 3.86579C15.4068 3.88649 15.6542 3.93221 15.8924 4.0558C16.2476 4.24017 16.5365 4.53436 16.7175 4.89621C16.8389 5.13876 16.8837 5.39083 16.9041 5.64425C16.9233 5.88436 16.9233 6.17587 16.9233 6.51378V8.9744C16.9233 9.32843 16.6415 9.61542 16.2939 9.61542C15.9463 9.61542 15.6646 9.32843 15.6646 8.9744V8.33337H4.33589V11.4103C4.33589 11.7799 4.33638 12.0185 4.35095 12.2001C4.36492 12.3743 4.38863 12.4388 4.40449 12.4705C4.46483 12.5912 4.56111 12.6892 4.67953 12.7507C4.71065 12.7668 4.77404 12.791 4.94502 12.8052C5.12334 12.8201 5.35764 12.8205 5.72051 12.8205H10.0002C10.3478 12.8205 10.6296 13.1075 10.6296 13.4616C10.6296 13.8156 10.3478 14.1026 10.0002 14.1026H5.69626C5.36448 14.1026 5.07826 14.1026 4.84252 14.083C4.5937 14.0623 4.34622 14.0166 4.10808 13.893C3.75281 13.7086 3.46396 13.4144 3.28294 13.0526C3.1616 12.81 3.11672 12.558 3.09639 12.3045C3.07713 12.0644 3.07714 11.7729 3.07715 11.435V6.51379C3.07714 6.17588 3.07713 5.88436 3.09639 5.64425C3.11672 5.39083 3.1616 5.13876 3.28294 4.89621C3.46396 4.53436 3.75281 4.24017 4.10808 4.0558C4.34622 3.93221 4.5937 3.88649 4.84252 3.86579C5.07826 3.84617 5.36448 3.84618 5.69625 3.84619ZM4.33589 7.05132H15.6646V6.5385C15.6646 6.16892 15.6641 5.93028 15.6495 5.74865C15.6355 5.57451 15.6118 5.50995 15.596 5.47825C15.5356 5.35764 15.4393 5.25957 15.3209 5.19811C15.2898 5.18196 15.2264 5.15781 15.0554 5.14358C14.8771 5.12874 14.6428 5.12824 14.2799 5.12824H5.72051C5.35764 5.12824 5.12334 5.12874 4.94502 5.14358C4.77404 5.15781 4.71065 5.18196 4.67953 5.19811C4.56111 5.25957 4.46483 5.35763 4.40449 5.47825C4.38863 5.50994 4.36492 5.57451 4.35095 5.74865C4.33638 5.93028 4.33589 6.16891 4.33589 6.5385V7.05132ZM14.4058 10.2564C14.7534 10.2564 15.0352 10.5434 15.0352 10.8975V13.1961L15.8489 12.3673C16.0947 12.1169 16.4932 12.1169 16.739 12.3673C16.9847 12.6176 16.9847 13.0235 16.739 13.2738L14.8509 15.1969C14.6051 15.4472 14.2066 15.4472 13.9608 15.1969L12.0727 13.2738C11.8269 13.0235 11.8269 12.6176 12.0727 12.3673C12.3185 12.1169 12.717 12.1169 12.9627 12.3673L13.7764 13.1961V10.8975C13.7764 10.5434 14.0582 10.2564 14.4058 10.2564Z" fill="#000"/>
</svg>
