<svg width="20" height="20" viewBox="0 0 20 20" fill="none" xmlns="http://www.w3.org/2000/svg">
<path d="M8.35493 10.6168H3.83112C3.63115 10.6168 3.43938 10.6963 3.29798 10.8377C3.15658 10.9791 3.07715 11.1708 3.07715 11.3708V15.8946C3.07715 16.0946 3.15658 16.2863 3.29798 16.4277C3.43938 16.5691 3.63115 16.6486 3.83112 16.6486H8.35493C8.55489 16.6486 8.74667 16.5691 8.88806 16.4277C9.02946 16.2863 9.10889 16.0946 9.10889 15.8946V11.3708C9.10889 11.1708 9.02946 10.9791 8.88806 10.8377C8.74667 10.6963 8.55489 10.6168 8.35493 10.6168ZM7.60096 15.1406H4.58508V12.1248H7.60096V15.1406ZM15.8946 3.07715H11.3708C11.1708 3.07715 10.9791 3.15658 10.8377 3.29798C10.6963 3.43938 10.6168 3.63115 10.6168 3.83112V8.35493C10.6168 8.55489 10.6963 8.74667 10.8377 8.88806C10.9791 9.02946 11.1708 9.10889 11.3708 9.10889H15.8946C16.0946 9.10889 16.2863 9.02946 16.4277 8.88806C16.5691 8.74667 16.6486 8.55489 16.6486 8.35493V3.83112C16.6486 3.63115 16.5691 3.43938 16.4277 3.29798C16.2863 3.15658 16.0946 3.07715 15.8946 3.07715ZM15.1406 7.60096H12.1248V4.58508H15.1406V7.60096ZM15.8946 12.8787H14.3867V11.3708C14.3867 11.1708 14.3072 10.9791 14.1658 10.8377C14.0244 10.6963 13.8327 10.6168 13.6327 10.6168C13.4327 10.6168 13.241 10.6963 13.0996 10.8377C12.9582 10.9791 12.8787 11.1708 12.8787 11.3708V12.8787H11.3708C11.1708 12.8787 10.9791 12.9582 10.8377 13.0996C10.6963 13.241 10.6168 13.4327 10.6168 13.6327C10.6168 13.8327 10.6963 14.0244 10.8377 14.1658C10.9791 14.3072 11.1708 14.3867 11.3708 14.3867H12.8787V15.8946C12.8787 16.0946 12.9582 16.2863 13.0996 16.4277C13.241 16.5691 13.4327 16.6486 13.6327 16.6486C13.8327 16.6486 14.0244 16.5691 14.1658 16.4277C14.3072 16.2863 14.3867 16.0946 14.3867 15.8946V14.3867H15.8946C16.0946 14.3867 16.2863 14.3072 16.4277 14.1658C16.5691 14.0244 16.6486 13.8327 16.6486 13.6327C16.6486 13.4327 16.5691 13.241 16.4277 13.0996C16.2863 12.9582 16.0946 12.8787 15.8946 12.8787ZM8.35493 3.07715H3.83112C3.63115 3.07715 3.43938 3.15658 3.29798 3.29798C3.15658 3.43938 3.07715 3.63115 3.07715 3.83112V8.35493C3.07715 8.55489 3.15658 8.74667 3.29798 8.88806C3.43938 9.02946 3.63115 9.10889 3.83112 9.10889H8.35493C8.55489 9.10889 8.74667 9.02946 8.88806 8.88806C9.02946 8.74667 9.10889 8.55489 9.10889 8.35493V3.83112C9.10889 3.63115 9.02946 3.43938 8.88806 3.29798C8.74667 3.15658 8.55489 3.07715 8.35493 3.07715ZM7.60096 7.60096H4.58508V4.58508H7.60096V7.60096Z" fill="#000"/>
</svg>
