<svg width="20" height="20" viewBox="0 0 20 20" fill="none" xmlns="http://www.w3.org/2000/svg">
<path fill-rule="evenodd" clip-rule="evenodd" d="M7.85295 3.47827L8.60853 3.47827C8.9447 3.47827 9.21722 3.75079 9.21722 4.08697C9.21722 4.42314 8.9447 4.69566 8.60853 4.69566H7.87809C7.3567 4.69566 7.00226 4.69614 6.72829 4.71852C6.46143 4.74032 6.32496 4.77984 6.22976 4.82835C6.00069 4.94507 5.81445 5.1313 5.69774 5.36037C5.64923 5.45557 5.60971 5.59204 5.58791 5.8589C5.56552 6.13287 5.56505 6.48731 5.56505 7.00871V12.1217C5.56505 12.6431 5.56552 12.9976 5.58791 13.2716C5.60971 13.5384 5.64923 13.6749 5.69774 13.7701C5.81445 13.9992 6.00069 14.1854 6.22976 14.3021C6.32496 14.3506 6.46143 14.3901 6.72829 14.4119C7.00226 14.4343 7.3567 14.4348 7.87809 14.4348H8.60853C8.9447 14.4348 9.21722 14.7073 9.21722 15.0435C9.21722 15.3797 8.9447 15.6522 8.60853 15.6522H7.85294C7.36296 15.6522 6.95857 15.6522 6.62915 15.6253C6.28701 15.5973 5.97249 15.5373 5.67707 15.3868C5.21894 15.1534 4.84646 14.7809 4.61303 14.3228C4.46251 14.0273 4.40251 13.7128 4.37456 13.3707C4.34764 13.0413 4.34765 12.6369 4.34766 12.1469V6.98357C4.34765 6.49359 4.34764 6.08919 4.37456 5.75977C4.40251 5.41762 4.46251 5.10311 4.61303 4.80769C4.84646 4.34955 5.21894 3.97708 5.67707 3.74365C5.97249 3.59312 6.28701 3.53313 6.62915 3.50517C6.95858 3.47826 7.36297 3.47826 7.85295 3.47827ZM12.439 6.09134C12.6767 5.85363 13.0621 5.85363 13.2998 6.09134L16.3433 9.13482C16.581 9.37253 16.581 9.75793 16.3433 9.99564L13.2998 13.0391C13.0621 13.2768 12.6767 13.2768 12.439 13.0391C12.2013 12.8014 12.2013 12.416 12.439 12.1783L14.4434 10.1739H8.60853C8.27235 10.1739 7.99983 9.9014 7.99983 9.56523C7.99983 9.22905 8.27235 8.95653 8.60853 8.95653H14.4434L12.439 6.95216C12.2013 6.71445 12.2013 6.32905 12.439 6.09134Z" fill="#C1BFDF"/>
</svg>
