<svg width="20" height="20" viewBox="0 0 20 20" fill="none" xmlns="http://www.w3.org/2000/svg">
<path d="M15 3.75H8.75C8.25272 3.75 7.77581 3.94754 7.42417 4.29917C7.07254 4.65081 6.875 5.12772 6.875 5.625V10C6.875 10.4973 7.07254 10.9742 7.42417 11.3258C7.77581 11.6775 8.25272 11.875 8.75 11.875H15C15.4973 11.875 15.9742 11.6775 16.3258 11.3258C16.6775 10.9742 16.875 10.4973 16.875 10V5.625C16.875 5.12772 16.6775 4.65081 16.3258 4.29917C15.9742 3.94754 15.4973 3.75 15 3.75ZM15.625 10C15.625 10.1658 15.5592 10.3247 15.4419 10.4419C15.3247 10.5592 15.1658 10.625 15 10.625H8.75C8.58424 10.625 8.42527 10.5592 8.30806 10.4419C8.19085 10.3247 8.125 10.1658 8.125 10V5.625C8.125 5.45924 8.19085 5.30027 8.30806 5.18306C8.42527 5.06585 8.58424 5 8.75 5H15C15.1658 5 15.3247 5.06585 15.4419 5.18306C15.5592 5.30027 15.625 5.45924 15.625 5.625V10ZM13.4375 7.5C13.2061 7.50078 12.9833 7.58768 12.8125 7.74375C12.6781 7.62159 12.5111 7.5411 12.3318 7.51206C12.1526 7.48302 11.9687 7.50668 11.8026 7.58016C11.6365 7.65364 11.4954 7.77378 11.3963 7.92598C11.2972 8.07818 11.2444 8.25588 11.2444 8.4375C11.2444 8.61912 11.2972 8.79682 11.3963 8.94902C11.4954 9.10122 11.6365 9.22136 11.8026 9.29484C11.9687 9.36832 12.1526 9.39198 12.3318 9.36294C12.5111 9.3339 12.6781 9.25341 12.8125 9.13125C12.9254 9.23383 13.0616 9.30733 13.2092 9.34536C13.3569 9.3834 13.5117 9.38482 13.6601 9.34952C13.8084 9.31421 13.946 9.24324 14.0607 9.14276C14.1754 9.04228 14.2639 8.91532 14.3185 8.7729C14.3731 8.63048 14.3921 8.4769 14.3738 8.32547C14.3556 8.17405 14.3007 8.02936 14.2139 7.90395C14.1271 7.77854 14.011 7.6762 13.8757 7.60581C13.7404 7.53542 13.59 7.4991 13.4375 7.5ZM12.5 13.125C12.3342 13.125 12.1753 13.1908 12.0581 13.3081C11.9408 13.4253 11.875 13.5842 11.875 13.75V14.375C11.875 14.5408 11.8092 14.6997 11.6919 14.8169C11.5747 14.9342 11.4158 15 11.25 15H5C4.83424 15 4.67527 14.9342 4.55806 14.8169C4.44085 14.6997 4.375 14.5408 4.375 14.375V11.875H5C5.16576 11.875 5.32473 11.8092 5.44194 11.6919C5.55915 11.5747 5.625 11.4158 5.625 11.25C5.625 11.0842 5.55915 10.9253 5.44194 10.8081C5.32473 10.6908 5.16576 10.625 5 10.625H4.375V10C4.375 9.83424 4.44085 9.67527 4.55806 9.55806C4.67527 9.44085 4.83424 9.375 5 9.375C5.16576 9.375 5.32473 9.30915 5.44194 9.19194C5.55915 9.07473 5.625 8.91576 5.625 8.75C5.625 8.58424 5.55915 8.42527 5.44194 8.30806C5.32473 8.19085 5.16576 8.125 5 8.125C4.50272 8.125 4.02581 8.32254 3.67417 8.67417C3.32254 9.02581 3.125 9.50272 3.125 10V14.375C3.125 14.8723 3.32254 15.3492 3.67417 15.7008C4.02581 16.0525 4.50272 16.25 5 16.25H11.25C11.7473 16.25 12.2242 16.0525 12.5758 15.7008C12.9275 15.3492 13.125 14.8723 13.125 14.375V13.75C13.125 13.5842 13.0592 13.4253 12.9419 13.3081C12.8247 13.1908 12.6658 13.125 12.5 13.125ZM6.25 13.75H6.875C7.04076 13.75 7.19973 13.6842 7.31694 13.5669C7.43415 13.4497 7.5 13.2908 7.5 13.125C7.5 12.9592 7.43415 12.8003 7.31694 12.6831C7.19973 12.5658 7.04076 12.5 6.875 12.5H6.25C6.08424 12.5 5.92527 12.5658 5.80806 12.6831C5.69085 12.8003 5.625 12.9592 5.625 13.125C5.625 13.2908 5.69085 13.4497 5.80806 13.5669C5.92527 13.6842 6.08424 13.75 6.25 13.75Z" fill="#000"/>
</svg>
