<svg width="20" height="20" viewBox="0 0 20 20" fill="none" xmlns="http://www.w3.org/2000/svg">
<path fill-rule="evenodd" clip-rule="evenodd" d="M5.69625 4.61536H14.3042C14.636 4.61535 14.9222 4.61534 15.1579 4.63495C15.4068 4.65566 15.6542 4.70138 15.8924 4.82496C16.2476 5.00933 16.5365 5.30353 16.7175 5.66538C16.8389 5.90793 16.8837 6.15999 16.9041 6.41342C16.9233 6.65352 16.9233 6.94503 16.9233 7.28294V9.74356C16.9233 10.0976 16.6415 10.3846 16.2939 10.3846C15.9463 10.3846 15.6646 10.0976 15.6646 9.74356V9.10254H4.33589V12.1795C4.33589 12.549 4.33638 12.7877 4.35095 12.9693C4.36492 13.1435 4.38863 13.208 4.40449 13.2397C4.46483 13.3603 4.56111 13.4584 4.67953 13.5198C4.71065 13.536 4.77404 13.5601 4.94502 13.5744C5.12334 13.5892 5.35764 13.5897 5.72051 13.5897H10.0002C10.3478 13.5897 10.6296 13.8767 10.6296 14.2307C10.6296 14.5848 10.3478 14.8718 10.0002 14.8718H5.69626C5.36448 14.8718 5.07826 14.8718 4.84252 14.8522C4.5937 14.8315 4.34622 14.7857 4.10808 14.6622C3.75281 14.4778 3.46396 14.1836 3.28294 13.8217C3.1616 13.5792 3.11672 13.3271 3.09639 13.0737C3.07713 12.8336 3.07714 12.5421 3.07715 12.2042V7.28296C3.07714 6.94504 3.07713 6.65353 3.09639 6.41342C3.11672 6.15999 3.1616 5.90793 3.28294 5.66538C3.46396 5.30353 3.75281 5.00933 4.10808 4.82496C4.34622 4.70137 4.5937 4.65566 4.84252 4.63495C5.07826 4.61534 5.36448 4.61535 5.69625 4.61536ZM4.33589 7.82049H15.6646V7.30767C15.6646 6.93808 15.6641 6.69944 15.6495 6.51782C15.6355 6.34367 15.6118 6.27911 15.596 6.24742C15.5356 6.1268 15.4393 6.02874 15.3209 5.96728C15.2898 5.95113 15.2264 5.92698 15.0554 5.91275C14.8771 5.89791 14.6428 5.89741 14.2799 5.89741H5.72051C5.35764 5.89741 5.12334 5.89791 4.94502 5.91275C4.77404 5.92697 4.71065 5.95113 4.67953 5.96728C4.56111 6.02873 4.46483 6.1268 4.40449 6.24741C4.38863 6.27911 4.36492 6.34367 4.35095 6.51782C4.33638 6.69944 4.33589 6.93808 4.33589 7.30767V7.82049ZM13.9608 11.2134C14.2066 10.963 14.6051 10.963 14.8509 11.2134L16.739 13.1364C16.9847 13.3868 16.9847 13.7927 16.739 14.043C16.4932 14.2933 16.0947 14.2933 15.8489 14.043L15.0352 13.2142V15.5128C15.0352 15.8668 14.7534 16.1538 14.4058 16.1538C14.0582 16.1538 13.7764 15.8668 13.7764 15.5128V13.2142L12.9627 14.043C12.717 14.2933 12.3185 14.2933 12.0727 14.043C11.8269 13.7927 11.8269 13.3868 12.0727 13.1364L13.9608 11.2134Z" fill="#C1BFDF"/>
</svg>
