<svg width="20" height="20" viewBox="0 0 20 20" fill="none" xmlns="http://www.w3.org/2000/svg">
<path fill-rule="evenodd" clip-rule="evenodd" d="M5.72591 4.375L13.0241 4.375C13.3536 4.37499 13.6378 4.37498 13.8719 4.39411C14.119 4.4143 14.3647 4.45887 14.6012 4.57937C14.954 4.75913 15.2409 5.04597 15.4206 5.39877C15.5411 5.63526 15.5857 5.88102 15.6059 6.12811C15.625 6.36221 15.625 6.64644 15.625 6.9759V7.91967C16.2423 8.13774 16.7087 8.66679 16.839 9.32171C16.8754 9.50474 16.8752 9.70964 16.875 9.94758C16.875 9.96488 16.875 9.98235 16.875 10C16.875 10.0177 16.875 10.0351 16.875 10.0524C16.8752 10.2904 16.8754 10.4953 16.839 10.6783C16.7087 11.3332 16.2423 11.8623 15.625 12.0803V13.0241C15.625 13.3536 15.625 13.6378 15.6059 13.8719C15.5857 14.119 15.5411 14.3647 15.4206 14.6012C15.2409 14.954 14.954 15.2409 14.6012 15.4206C14.3647 15.5411 14.119 15.5857 13.8719 15.6059C13.6378 15.625 13.3536 15.625 13.0241 15.625L5.7259 15.625C5.39643 15.625 5.11221 15.625 4.87811 15.6059C4.63102 15.5857 4.38526 15.5411 4.14877 15.4206C3.79597 15.2409 3.50913 14.954 3.32936 14.6012C3.20887 14.3647 3.1643 14.119 3.14411 13.8719C3.12498 13.6378 3.12499 13.3536 3.125 13.0241V6.97591C3.12499 6.64644 3.12498 6.36222 3.14411 6.12811C3.1643 5.88102 3.20887 5.63526 3.32936 5.39877C3.50913 5.04597 3.79597 4.75913 4.14877 4.57936C4.38526 4.45887 4.63102 4.4143 4.87811 4.39411C5.11222 4.37498 5.39644 4.37499 5.72591 4.375ZM14.375 12.1875H13.4375C13.4198 12.1875 13.4024 12.1875 13.3851 12.1875C13.1471 12.1877 12.9422 12.1879 12.7592 12.1515C12.0154 12.0035 11.434 11.4221 11.286 10.6783C11.2496 10.4953 11.2498 10.2904 11.25 10.0524C11.25 10.0351 11.25 10.0177 11.25 10C11.25 9.98235 11.25 9.96487 11.25 9.94757C11.2498 9.70964 11.2496 9.50474 11.286 9.32171C11.434 8.57791 12.0154 7.99648 12.7592 7.84853C12.9422 7.81212 13.1471 7.81228 13.3851 7.81247C13.4024 7.81249 13.4198 7.8125 13.4375 7.8125H14.375V7C14.375 6.63966 14.3745 6.40699 14.36 6.2299C14.3462 6.06011 14.3226 5.99716 14.3069 5.96626C14.247 5.84866 14.1513 5.75304 14.0337 5.69312C14.0028 5.67738 13.9399 5.65383 13.7701 5.63996C13.593 5.62549 13.3603 5.625 13 5.625H5.75C5.38966 5.625 5.15698 5.62549 4.9799 5.63996C4.81011 5.65383 4.74716 5.67738 4.71626 5.69312C4.59866 5.75304 4.50304 5.84866 4.44312 5.96626C4.42738 5.99716 4.40383 6.06011 4.38996 6.2299C4.37549 6.40698 4.375 6.63966 4.375 7V13C4.375 13.3603 4.37549 13.593 4.38996 13.7701C4.40383 13.9399 4.42738 14.0028 4.44312 14.0337C4.50304 14.1513 4.59866 14.247 4.71626 14.3069C4.74716 14.3226 4.81011 14.3462 4.9799 14.36C5.15698 14.3745 5.38966 14.375 5.75 14.375L13 14.375C13.3603 14.375 13.593 14.3745 13.7701 14.36C13.9399 14.3462 14.0028 14.3226 14.0337 14.3069C14.1513 14.247 14.247 14.1513 14.3069 14.0337C14.3226 14.0028 14.3462 13.9399 14.36 13.7701C14.3745 13.593 14.375 13.3603 14.375 13V12.1875ZM13.4375 9.0625C13.1171 9.0625 13.0482 9.06553 13.0031 9.07451C12.7551 9.12383 12.5613 9.31764 12.512 9.56557C12.503 9.61073 12.5 9.67964 12.5 10C12.5 10.3204 12.503 10.3893 12.512 10.4344C12.5613 10.6824 12.7551 10.8762 13.0031 10.9255C13.0482 10.9345 13.1171 10.9375 13.4375 10.9375H14.6875C15.0079 10.9375 15.0768 10.9345 15.1219 10.9255C15.3699 10.8762 15.5637 10.6824 15.613 10.4344C15.622 10.3893 15.625 10.3204 15.625 10C15.625 9.67964 15.622 9.61073 15.613 9.56557C15.5637 9.31764 15.3699 9.12383 15.1219 9.07451C15.0768 9.06553 15.0079 9.0625 14.6875 9.0625H13.4375Z" fill="#000"/>
</svg>
