<svg width="20" height="20" viewBox="0 0 20 20" fill="none" xmlns="http://www.w3.org/2000/svg">
<path d="M10.5563 9.4375C9.44375 9.06875 8.90625 8.8375 8.90625 8.25C8.90625 7.6125 9.6 7.38125 10.0375 7.38125C10.8563 7.38125 11.1562 8 11.225 8.21875L12.2125 7.8C12.1187 7.51875 11.7 6.6 10.625 6.4V5.625H9.375V6.4125C7.825 6.7625 7.81875 8.2 7.81875 8.2625C7.81875 9.68125 9.225 10.0812 9.9125 10.3312C10.9 10.6812 11.3375 11 11.3375 11.6C11.3375 12.3063 10.6813 12.6062 10.1 12.6062C8.9625 12.6062 8.6375 11.4375 8.6 11.3L7.5625 11.7188C7.95625 13.0875 8.9875 13.4562 9.375 13.5687V14.375H10.625V13.6C10.875 13.5437 12.4375 13.2312 12.4375 11.5875C12.4375 10.7188 12.0563 9.95625 10.5563 9.4375ZM4.375 15.625H3.125V11.875H6.875V13.125H5.325C6.33125 14.6313 8.05 15.625 10 15.625C11.4918 15.625 12.9226 15.0324 13.9775 13.9775C15.0324 12.9226 15.625 11.4918 15.625 10H16.875C16.875 13.8 13.8 16.875 10 16.875C7.675 16.875 5.61875 15.7188 4.375 13.9563V15.625ZM3.125 10C3.125 6.2 6.2 3.125 10 3.125C12.325 3.125 14.3813 4.28125 15.625 6.04375V4.375H16.875V8.125H13.125V6.875H14.675C13.6687 5.36875 11.95 4.375 10 4.375C8.50816 4.375 7.07742 4.96763 6.02252 6.02252C4.96763 7.07742 4.375 8.50816 4.375 10H3.125Z" fill="#C1BFDF"/>
</svg>
