<svg width="16" height="16" viewBox="0 0 16 16" fill="#000000" xmlns="http://www.w3.org/2000/svg">
<path fill-rule="evenodd" clip-rule="evenodd" d="M10.5288 1.86192C11.3415 1.04928 12.659 1.04928 13.4717 1.86192C14.2843 2.67455 14.2843 3.99209 13.4717 4.80473L5.09649 13.1799C5.08329 13.1931 5.07021 13.2062 5.05724 13.2192C4.86561 13.4112 4.69665 13.5804 4.49296 13.7053C4.31402 13.8149 4.11893 13.8957 3.91485 13.9447C3.68256 14.0005 3.4434 14.0003 3.17214 14C3.15377 14 3.13526 14 3.11659 14H2.00023C1.63204 14 1.33356 13.7015 1.33356 13.3333V12.217C1.33356 12.1983 1.33355 12.1798 1.33353 12.1614C1.33328 11.8902 1.33305 11.651 1.38882 11.4187C1.43782 11.2146 1.51863 11.0196 1.62828 10.8406C1.75311 10.6369 1.92238 10.468 2.11437 10.2763C2.12737 10.2634 2.14047 10.2503 2.15367 10.2371L10.5288 1.86192ZM12.5288 2.80473C12.2369 2.51279 11.7636 2.51279 11.4717 2.80473L3.09647 11.1799C2.84343 11.4329 2.79678 11.4856 2.76514 11.5373C2.72859 11.5969 2.70165 11.662 2.68532 11.73C2.67118 11.7889 2.6669 11.8591 2.6669 12.217V12.6667H3.11659C3.47445 12.6667 3.54472 12.6624 3.60359 12.6482C3.67162 12.6319 3.73665 12.605 3.7963 12.5684C3.84792 12.5368 3.90064 12.4901 4.15368 12.2371L12.5288 3.86192C12.8208 3.56998 12.8208 3.09666 12.5288 2.80473ZM7.33355 13.3333C7.33355 12.9651 7.63202 12.6667 8.00021 12.6667H14.0002C14.3684 12.6667 14.6669 12.9651 14.6669 13.3333C14.6669 13.7015 14.3684 14 14.0002 14H8.00021C7.63202 14 7.33355 13.7015 7.33355 13.3333Z" />
</svg>
