<svg width="16" height="16" viewBox="0 0 16 16" fill="#000" xmlns="http://www.w3.org/2000/svg">
<path fill-rule="evenodd" clip-rule="evenodd" d="M7.99984 2.00001C4.68613 2.00001 1.99984 4.6863 1.99984 8.00001C1.99984 11.3137 4.68613 14 7.99984 14C11.3135 14 13.9998 11.3137 13.9998 8.00001C13.9998 4.6863 11.3135 2.00001 7.99984 2.00001ZM0.666504 8.00001C0.666504 3.94992 3.94975 0.666672 7.99984 0.666672C12.0499 0.666672 15.3332 3.94992 15.3332 8.00001C15.3332 12.0501 12.0499 15.3333 7.99984 15.3333C3.94975 15.3333 0.666504 12.0501 0.666504 8.00001ZM7.99984 4.66667C8.36803 4.66667 8.6665 4.96515 8.6665 5.33334V8.00001C8.6665 8.3682 8.36803 8.66667 7.99984 8.66667C7.63165 8.66667 7.33317 8.3682 7.33317 8.00001V5.33334C7.33317 4.96515 7.63165 4.66667 7.99984 4.66667ZM7.33317 10.6667C7.33317 10.2985 7.63165 10 7.99984 10H8.0065C8.37469 10 8.67317 10.2985 8.67317 10.6667C8.67317 11.0349 8.37469 11.3333 8.0065 11.3333H7.99984C7.63165 11.3333 7.33317 11.0349 7.33317 10.6667Z" fill="#000"/>
</svg>
