<svg width="16" height="18" viewBox="0 0 16 18" fill="#000000" xmlns="http://www.w3.org/2000/svg">
<path fill-rule="evenodd" clip-rule="evenodd" d="M0.806201 0.760539C0.806215 0.340491 1.13941 -1.35995e-05 1.55041 4.07377e-10L6.38762 0.000160072C6.79861 0.000173672 7.13178 0.340686 7.13178 0.760723L7.13178 5.70423C7.13178 6.12427 6.7986 6.46479 6.3876 6.46479C5.97659 6.46479 5.64341 6.12427 5.64341 5.70423L5.64341 2.17083C5.13822 2.59176 4.41266 3.25495 3.39558 4.29442C0.852635 6.89333 0.852635 11.107 3.39558 13.7059C4.29736 14.6275 5.39582 15.2214 6.55226 15.4895C6.95308 15.5825 7.20428 15.9899 7.11334 16.3995C7.0224 16.8092 6.62375 17.0659 6.22293 16.9729C4.80069 16.6431 3.44925 15.912 2.34315 14.7815C-0.781049 11.5886 -0.781049 6.41177 2.34315 3.21882C3.04509 2.50143 3.62188 1.94825 4.09472 1.52121L1.55036 1.52113C1.13936 1.52111 0.806188 1.18059 0.806201 0.760539ZM8.88666 1.60064C8.97761 1.191 9.37625 0.934274 9.77707 1.02722C11.1993 1.35702 12.5507 2.08821 13.6569 3.21866C16.781 6.4116 16.781 11.5884 13.6569 14.7813C12.955 15.4987 12.3782 16.0518 11.9054 16.4789H14.4496C14.8606 16.4789 15.1938 16.8194 15.1938 17.2394C15.1938 17.6595 14.8606 18 14.4496 18H9.6124C9.41503 18 9.22575 17.9199 9.08618 17.7772C8.94662 17.6346 8.86822 17.4412 8.86822 17.2394L8.86822 12.2958C8.86822 11.8757 9.2014 11.5352 9.6124 11.5352C10.0234 11.5352 10.3566 11.8757 10.3566 12.2958L10.3566 15.8293C10.8618 15.4084 11.5873 14.7452 12.6044 13.7057C15.1474 11.1068 15.1474 6.89317 12.6044 4.29425C11.7026 3.37263 10.6042 2.7788 9.44774 2.51064C9.04692 2.4177 8.79572 2.01028 8.88666 1.60064Z" />
</svg>
