<svg width="18" height="18" viewBox="0 0 18 18" fill="none" xmlns="http://www.w3.org/2000/svg">
<path fill-rule="evenodd" clip-rule="evenodd" d="M1.71998 1.71967C2.01287 1.42678 2.48775 1.42678 2.78064 1.71967L5.50969 4.44872C5.55341 4.48345 5.59378 4.52354 5.62977 4.5688L13.423 12.3621C13.4739 12.4011 13.5204 12.4471 13.561 12.5L16.2806 15.2197C16.5735 15.5126 16.5735 15.9874 16.2806 16.2803C15.9877 16.5732 15.5129 16.5732 15.22 16.2803L12.8547 13.915C11.771 14.5491 10.479 15 9.00031 15C6.85406 15 5.10432 14.0515 3.80787 12.9694C2.51318 11.8889 1.62553 10.6393 1.18098 9.93536C1.1751 9.92606 1.16907 9.91657 1.16291 9.90687C1.07468 9.768 0.960135 9.5877 0.902237 9.33506C0.85549 9.13108 0.855506 8.86871 0.902276 8.66474C0.960212 8.41207 1.07508 8.23131 1.16354 8.09212C1.16975 8.08235 1.17583 8.07278 1.18175 8.06341C1.63353 7.34824 2.55099 6.05644 3.89682 4.95717L1.71998 2.78033C1.42709 2.48744 1.42709 2.01256 1.71998 1.71967ZM4.96371 6.02406C3.73433 6.99464 2.87554 8.19074 2.44991 8.86452C2.42329 8.90666 2.40463 8.93624 2.38903 8.96192C2.37862 8.97905 2.37176 8.99088 2.36719 8.99912C2.36719 8.99941 2.36719 8.99969 2.36719 8.99998C2.36719 9.00029 2.36719 9.00059 2.36719 9.00089C2.3717 9.00902 2.37845 9.02067 2.38868 9.0375C2.40417 9.06302 2.42272 9.09243 2.44923 9.1344C2.84872 9.76697 3.6393 10.8749 4.76902 11.8178C5.89697 12.7592 7.31781 13.5 9.00031 13.5C10.015 13.5 10.9334 13.2311 11.7506 12.8109L10.5242 11.5845C10.0776 11.8483 9.55635 12 9.00031 12C7.34346 12 6.00031 10.6569 6.00031 9C6.00031 8.44396 6.15203 7.92272 6.41579 7.47614L4.96371 6.02406ZM7.551 8.61135C7.51791 8.73524 7.50031 8.86549 7.50031 9C7.50031 9.82843 8.17188 10.5 9.00031 10.5C9.13482 10.5 9.26507 10.4824 9.38896 10.4493L7.551 8.61135ZM9.00031 4.5C8.71392 4.5 8.43614 4.52137 8.1669 4.56117C7.75714 4.62176 7.37586 4.33869 7.31527 3.92893C7.25469 3.51917 7.53776 3.13789 7.94751 3.0773C8.28789 3.02698 8.63899 3 9.00031 3C11.1466 3 12.8963 3.94854 14.1928 5.03057C15.4874 6.11113 16.3751 7.36072 16.8196 8.06464C16.8255 8.07394 16.8316 8.08343 16.8377 8.09312C16.9259 8.23201 17.0405 8.41232 17.0984 8.66498C17.1451 8.86897 17.1451 9.13136 17.0983 9.33533C17.0404 9.58804 16.9253 9.76906 16.8367 9.90844C16.8305 9.91825 16.8244 9.92786 16.8184 9.93727C16.5797 10.3152 16.2174 10.8436 15.7374 11.4168C15.4715 11.7344 14.9985 11.7763 14.6809 11.5104C14.3633 11.2445 14.3214 10.7714 14.5873 10.4539C15.0158 9.94209 15.3393 9.47006 15.5503 9.13608C15.577 9.09384 15.5957 9.06416 15.6114 9.0384C15.6219 9.02109 15.6288 9.00916 15.6334 9.00086C15.6334 9.00059 15.6334 9.00031 15.6334 9.00003C15.6334 8.99972 15.6334 8.99942 15.6334 8.99911C15.6289 8.99099 15.6222 8.97934 15.6119 8.9625C15.5965 8.93698 15.5779 8.90757 15.5514 8.8656C15.1519 8.23303 14.3613 7.12506 13.2316 6.18218C12.1037 5.24078 10.6828 4.5 9.00031 4.5Z" fill="#000"/>
</svg>
