<svg width="18" height="18" viewBox="0 0 18 18" fill="none" xmlns="http://www.w3.org/2000/svg">
<path fill-rule="evenodd" clip-rule="evenodd" d="M4.76901 6.18218C3.63929 7.12505 2.84871 8.23303 2.44922 8.8656C2.42271 8.90757 2.40417 8.93697 2.38868 8.96248C2.37845 8.97932 2.3717 8.99097 2.36719 8.99909C2.36719 8.99939 2.36719 8.9997 2.36719 9C2.36719 9.0003 2.36719 9.00061 2.36719 9.00091C2.3717 9.00903 2.37845 9.02068 2.38868 9.03752C2.40417 9.06303 2.42271 9.09243 2.44922 9.1344C2.84871 9.76697 3.63929 10.8749 4.76901 11.8178C5.89696 12.7592 7.3178 13.5 9.0003 13.5C10.6828 13.5 12.1036 12.7592 13.2316 11.8178C14.3613 10.8749 15.1519 9.76697 15.5514 9.1344C15.5779 9.09243 15.5964 9.06303 15.6119 9.03751C15.6222 9.02068 15.6289 9.00903 15.6334 9.00091C15.6334 9.00061 15.6334 9.0003 15.6334 9C15.6334 8.9997 15.6334 8.99939 15.6334 8.99909C15.6289 8.99097 15.6222 8.97932 15.6119 8.96249C15.5964 8.93697 15.5779 8.90757 15.5514 8.8656C15.1519 8.23303 14.3613 7.12505 13.2316 6.18218C12.1036 5.24077 10.6828 4.5 9.0003 4.5C7.3178 4.5 5.89696 5.24078 4.76901 6.18218ZM3.80786 5.03057C5.10431 3.94854 6.85405 3 9.0003 3C11.1466 3 12.8963 3.94854 14.1927 5.03057C15.4874 6.11113 16.3751 7.36071 16.8196 8.06464C16.8255 8.07394 16.8315 8.08343 16.8377 8.09313C16.9259 8.23198 17.0405 8.41227 17.0984 8.66488C17.1451 8.86884 17.1451 9.13116 17.0984 9.33512C17.0405 9.58773 16.9259 9.76802 16.8377 9.90687C16.8315 9.91657 16.8255 9.92606 16.8196 9.93536C16.3751 10.6393 15.4874 11.8889 14.1927 12.9694C12.8963 14.0515 11.1466 15 9.0003 15C6.85405 15 5.10431 14.0515 3.80786 12.9694C2.51318 11.8889 1.62553 10.6393 1.18097 9.93536C1.17509 9.92606 1.16906 9.91657 1.1629 9.90688C1.07469 9.76802 0.960152 9.58774 0.902251 9.33512C0.8555 9.13116 0.8555 8.86884 0.902251 8.66488C0.960152 8.41226 1.07469 8.23198 1.1629 8.09312C1.16906 8.08343 1.17509 8.07394 1.18097 8.06464C1.62553 7.36071 2.51318 6.11113 3.80786 5.03057ZM9.0003 7.5C8.17188 7.5 7.5003 8.17157 7.5003 9C7.5003 9.82843 8.17188 10.5 9.0003 10.5C9.82873 10.5 10.5003 9.82843 10.5003 9C10.5003 8.17157 9.82873 7.5 9.0003 7.5ZM6.0003 9C6.0003 7.34315 7.34345 6 9.0003 6C10.6572 6 12.0003 7.34315 12.0003 9C12.0003 10.6569 10.6572 12 9.0003 12C7.34345 12 6.0003 10.6569 6.0003 9Z" fill="#9998A0"/>
</svg>
