<svg width="22" height="22" viewBox="0 0 22 22" fill="none" xmlns="http://www.w3.org/2000/svg">
<path fill-rule="evenodd" clip-rule="evenodd" d="M10.5207 1.22497C10.8344 1.14002 11.1652 1.14002 11.4789 1.22497C11.8432 1.3236 12.1499 1.56437 12.3946 1.75653C12.418 1.77488 12.4408 1.79278 12.463 1.81007L18.6801 6.64561C18.7041 6.66422 18.7278 6.68265 18.7514 6.70093C19.0966 6.96885 19.4008 7.2049 19.6274 7.51134C19.8263 7.78027 19.9745 8.08324 20.0647 8.40536C20.1674 8.7724 20.167 9.15741 20.1665 9.59443C20.1665 9.62424 20.1665 9.6543 20.1665 9.68461V16.352C20.1665 16.8352 20.1665 17.2521 20.1384 17.5954C20.1088 17.9578 20.0435 18.3183 19.8667 18.6651C19.6031 19.1825 19.1824 19.6032 18.6649 19.8669C18.3181 20.0436 17.9576 20.109 17.5952 20.1386C17.2519 20.1667 16.835 20.1667 16.3518 20.1666H14.4831C14.4762 20.1666 14.4691 20.1666 14.4619 20.1666C14.3527 20.1667 14.2223 20.1667 14.1075 20.1573C13.9743 20.1465 13.7837 20.1186 13.5839 20.0168C13.3252 19.8849 13.1148 19.6746 12.983 19.4159C12.8812 19.2161 12.8533 19.0254 12.8424 18.8923C12.833 18.7774 12.8331 18.647 12.8331 18.5378L12.8331 12.4666C12.8331 12.1948 12.8324 12.0461 12.8237 11.9392C12.8233 11.935 12.823 11.9309 12.8226 11.9271C12.8188 11.9268 12.8148 11.9264 12.8106 11.9261C12.7037 11.9173 12.555 11.9166 12.2831 11.9166H9.71647C9.44465 11.9166 9.29592 11.9173 9.18905 11.9261C9.18479 11.9264 9.18077 11.9268 9.17696 11.9271C9.17661 11.9309 9.17626 11.935 9.17591 11.9392C9.16718 12.0461 9.16647 12.1948 9.16647 12.4666L9.16647 18.5378C9.16652 18.647 9.16657 18.7774 9.15718 18.8923C9.1463 19.0254 9.1184 19.2161 9.0166 19.4159C8.88478 19.6746 8.67443 19.8849 8.41571 20.0168C8.21592 20.1186 8.02526 20.1465 7.89215 20.1573C7.77728 20.1667 7.64688 20.1667 7.53769 20.1666C7.53052 20.1666 7.52344 20.1666 7.51647 20.1666H5.64778C5.16457 20.1667 4.74771 20.1667 4.40436 20.1386C4.04196 20.109 3.68151 20.0436 3.33466 19.8669C2.81722 19.6032 2.39652 19.1826 2.13287 18.6651C1.95614 18.3183 1.89077 17.9578 1.86116 17.5954C1.8331 17.252 1.83312 16.8352 1.83313 16.352L1.83314 9.68461C1.83314 9.6543 1.8331 9.62424 1.83307 9.59443C1.8326 9.15741 1.83218 8.7724 1.93492 8.40536C2.02509 8.08324 2.17326 7.78027 2.37217 7.51134C2.59883 7.20489 2.90299 6.96885 3.24824 6.70092C3.27179 6.68264 3.29554 6.66421 3.31946 6.6456L9.53658 1.81007C9.55881 1.79278 9.58162 1.77487 9.60499 1.75653C9.84974 1.56437 10.1564 1.3236 10.5207 1.22497ZM10.9931 3.00805C10.9242 3.05407 10.8335 3.12396 10.6621 3.25722L4.44502 8.09275C3.98845 8.44786 3.90343 8.52408 3.84615 8.60153C3.77984 8.69117 3.73045 8.79216 3.7004 8.89953C3.67443 8.9923 3.66647 9.1062 3.66647 9.68461V16.3166C3.66647 16.8451 3.66718 17.1864 3.6884 17.4461C3.70875 17.6951 3.74329 17.7875 3.76638 17.8328C3.85426 18.0053 3.9945 18.1455 4.16698 18.2334C4.2123 18.2565 4.30463 18.291 4.55365 18.3114C4.81338 18.3326 5.15463 18.3333 5.68314 18.3333H7.33314L7.33313 12.4374C7.33311 12.206 7.33308 11.9807 7.34867 11.7899C7.36579 11.5804 7.40618 11.3331 7.53296 11.0843C7.70872 10.7394 7.98919 10.4589 8.33415 10.2831C8.58296 10.1563 8.83021 10.116 9.03976 10.0988C9.23058 10.0832 9.45589 10.0833 9.68724 10.0833H12.3124C12.5437 10.0833 12.769 10.0832 12.9598 10.0988C13.1694 10.116 13.4166 10.1563 13.6655 10.2831C14.0104 10.4589 14.2909 10.7394 14.4666 11.0843C14.5934 11.3331 14.6338 11.5804 14.6509 11.7899C14.6665 11.9807 14.6665 12.2061 14.6665 12.4374L14.6665 18.3333H16.3165C16.845 18.3333 17.1862 18.3326 17.446 18.3114C17.695 18.291 17.7873 18.2565 17.8326 18.2334C18.0051 18.1455 18.1453 18.0053 18.2332 17.8328C18.2563 17.7875 18.2909 17.6951 18.3112 17.4461C18.3324 17.1864 18.3331 16.8451 18.3331 16.3166V9.68461C18.3331 9.1062 18.3252 8.9923 18.2992 8.89953C18.2692 8.79216 18.2198 8.69117 18.1535 8.60153C18.0962 8.52408 18.0112 8.44786 17.5546 8.09275L11.3375 3.25722C11.1661 3.12396 11.0754 3.05407 11.0065 3.00805C11.0042 3.00649 11.0019 3.00501 10.9998 3.00361C10.9977 3.00501 10.9954 3.00649 10.9931 3.00805Z" fill="#000"/>
</svg>
