<svg width="18" height="18" viewBox="0 0 18 18" fill="#000" xmlns="http://www.w3.org/2000/svg">
<path fill-rule="evenodd" clip-rule="evenodd" d="M5.06909 2.25H12.931C13.5348 2.24999 14.033 2.24998 14.4389 2.28315C14.8605 2.31759 15.248 2.39151 15.612 2.57698C16.1765 2.8646 16.6355 3.32354 16.9231 3.88803C17.1021 4.23929 17.1772 4.61245 17.2132 5.01698C17.2533 5.13953 17.2603 5.26879 17.2365 5.3922C17.2501 5.72979 17.2501 6.12027 17.2501 6.56901V11.431C17.2501 12.0347 17.2501 12.533 17.2169 12.9389C17.1825 13.3604 17.1086 13.748 16.9231 14.112C16.6355 14.6765 16.1765 15.1354 15.612 15.423C15.248 15.6085 14.8605 15.6824 14.4389 15.7169C14.033 15.75 13.5348 15.75 12.9311 15.75H5.06907C4.46535 15.75 3.96709 15.75 3.5612 15.7169C3.13962 15.6824 2.75209 15.6085 2.38809 15.423C1.82361 15.1354 1.36467 14.6765 1.07704 14.112C0.891577 13.748 0.817653 13.3604 0.78321 12.9389C0.750047 12.533 0.750054 12.0347 0.750064 11.431V6.56903C0.750057 6.12028 0.750051 5.72979 0.763667 5.3922C0.73985 5.26879 0.746879 5.13952 0.786976 5.01697C0.822967 4.61245 0.898071 4.23929 1.07704 3.88803C1.36466 3.32354 1.82361 2.8646 2.38809 2.57698C2.75209 2.39151 3.13962 2.31759 3.5612 2.28315C3.96709 2.24998 4.46536 2.24999 5.06909 2.25ZM2.25006 6.69049V11.4C2.25006 12.0424 2.25065 12.4792 2.27823 12.8167C2.30509 13.1455 2.35379 13.3137 2.41355 13.431C2.55736 13.7132 2.78684 13.9427 3.06908 14.0865C3.18638 14.1463 3.35453 14.195 3.68334 14.2218C4.02091 14.2494 4.45763 14.25 5.10006 14.25H12.9001C13.5425 14.25 13.9792 14.2494 14.3168 14.2218C14.6456 14.195 14.8138 14.1463 14.9311 14.0865C15.2133 13.9427 15.4428 13.7132 15.5866 13.431C15.6463 13.3137 15.695 13.1455 15.7219 12.8167C15.7495 12.4792 15.7501 12.0424 15.7501 11.4V6.69049L10.8065 10.151C10.7774 10.1714 10.7485 10.1916 10.72 10.2117C10.3115 10.4985 9.95279 10.7504 9.54427 10.8522C9.18693 10.9413 8.8132 10.9413 8.45586 10.8522C8.04735 10.7504 7.68866 10.4985 7.28017 10.2117C7.25159 10.1916 7.22276 10.1714 7.19366 10.151L2.25006 6.69049ZM15.688 4.90296L9.94628 8.92216C9.39957 9.30485 9.28375 9.37125 9.18147 9.39675C9.06235 9.42644 8.93778 9.42644 8.81866 9.39675C8.71638 9.37125 8.60056 9.30485 8.05385 8.92216L2.31214 4.90296C2.33893 4.74759 2.37379 4.64705 2.41355 4.56902C2.55736 4.28677 2.78684 4.0573 3.06908 3.91349C3.18638 3.85372 3.35453 3.80503 3.68334 3.77816C4.02091 3.75058 4.45763 3.75 5.10006 3.75H12.9001C13.5425 3.75 13.9792 3.75058 14.3168 3.77816C14.6456 3.80503 14.8138 3.85372 14.9311 3.91349C15.2133 4.0573 15.4428 4.28677 15.5866 4.56902C15.6263 4.64705 15.6612 4.74759 15.688 4.90296Z" fill="#000"/>
</svg>
