<svg width="30" height="30" viewBox="0 0 30 30" fill="none" xmlns="http://www.w3.org/2000/svg">
<path d="M2.10449 6.59509H26.1689V29.617H2.10449V6.59509Z" fill="white"/>
<path d="M2.10449 6.59509H3.25343V29.617H2.10449V6.59509Z" fill="#D7DADD"/>
<path d="M2.99575 10.3732C1.76517 10.3732 0.767578 9.37557 0.767578 8.145V4.59312H5.22398V8.145C5.22392 9.37557 4.22632 10.3732 2.99575 10.3732Z" fill="#EF5264"/>
<path d="M1.91651 8.14494V4.59306H0.767578V8.14494C0.767578 9.37551 1.76517 10.3731 2.99575 10.3731C3.19445 10.3731 3.3869 10.3467 3.57022 10.2979C2.61813 10.0446 1.91651 9.17687 1.91651 8.14494Z" fill="#F27583"/>
<path d="M7.45229 10.3732C6.22172 10.3732 5.22412 9.37557 5.22412 8.145V4.59306H9.68052V8.14494C9.68046 9.37557 8.68287 10.3732 7.45229 10.3732Z" fill="#BEC3C7"/>
<path d="M6.37306 8.14494V4.59306H5.22412V8.14494C5.22412 9.37551 6.22172 10.3731 7.45229 10.3731C7.65099 10.3731 7.84344 10.3467 8.02676 10.2979C7.07467 10.0446 6.37306 9.17687 6.37306 8.14494Z" fill="#D7DADD"/>
<path d="M11.9083 10.3732C10.6778 10.3732 9.68018 9.37557 9.68018 8.145V4.59306H14.1366V8.14494C14.1365 9.37557 13.1389 10.3732 11.9083 10.3732Z" fill="#EF5264"/>
<path d="M10.8291 8.14494V4.59306H9.68018V8.14494C9.68018 9.37551 10.6778 10.3731 11.9083 10.3731C12.107 10.3731 12.2995 10.3467 12.4828 10.2979C11.5307 10.0446 10.8291 9.17687 10.8291 8.14494Z" fill="#F27583"/>
<path d="M16.3649 10.3732C15.1343 10.3732 14.1367 9.37557 14.1367 8.145V4.59306H18.5931V8.14494C18.5931 9.37557 17.5955 10.3732 16.3649 10.3732Z" fill="#BEC3C7"/>
<path d="M15.2857 8.14494V4.59306H14.1367V8.14494C14.1367 9.37551 15.1343 10.3731 16.3649 10.3731C16.5636 10.3731 16.756 10.3467 16.9394 10.2979C15.9873 10.0446 15.2857 9.17687 15.2857 8.14494Z" fill="#D7DADD"/>
<path d="M20.8214 10.3732C19.5909 10.3732 18.5933 9.37557 18.5933 8.145V4.59306H23.0497V8.14494C23.0496 9.37557 22.052 10.3732 20.8214 10.3732Z" fill="#EF5264"/>
<path d="M19.7422 8.14494V4.59306H18.5933V8.14494C18.5933 9.37551 19.5909 10.3731 20.8214 10.3731C21.0201 10.3731 21.2126 10.3467 21.3959 10.2979C20.4438 10.0446 19.7422 9.17687 19.7422 8.14494Z" fill="#F27583"/>
<path d="M25.2775 10.3732C24.0469 10.3732 23.0493 9.37557 23.0493 8.145V4.59306H27.5057V8.14494C27.5057 9.37557 26.5081 10.3732 25.2775 10.3732Z" fill="#BEC3C7"/>
<path d="M24.1983 8.14494V4.59306H23.0493V8.14494C23.0493 9.37551 24.0469 10.3731 25.2775 10.3731C25.4762 10.3731 25.6686 10.3467 25.852 10.2979C24.8999 10.0446 24.1983 9.17687 24.1983 8.14494Z" fill="#D7DADD"/>
<path d="M24.4475 0.38298H3.82592L0.767578 4.59307H27.5059L24.4475 0.38298Z" fill="#635BFE"/>
<path d="M5.95675 1.46809H25.2358L24.4475 0.38298H3.82592L0.767578 4.59307H2.3856L3.89103 2.5207C4.37141 1.85943 5.13934 1.46809 5.95675 1.46809Z" fill="#938DFF"/>
<path d="M7.42448 20.8826C5.89646 20.8826 4.65771 22.1214 4.65771 23.6494V29.6178H10.1912V23.6494C10.1912 22.1213 8.9525 20.8826 7.42448 20.8826Z" fill="#635BFE"/>
<path d="M7.99895 20.9427C7.81359 20.9036 7.62152 20.8827 7.42448 20.8827C5.89646 20.8827 4.65771 22.1214 4.65771 23.6494V29.6179H5.80665V23.6494C5.80665 22.3183 6.74667 21.2072 7.99895 20.9427Z" fill="#938DFF"/>
<path d="M29.4254 15.1022C29.4254 14.3971 28.8538 13.8256 28.1488 13.8256H12.7441V16.5407H29.4254V15.1022Z" fill="#635BFE"/>
<path d="M28.1488 13.8256H12.7441V14.9745H26.8083C27.3724 14.9745 27.8296 15.4317 27.8296 15.9958V16.5407H29.4254V15.1022C29.4254 14.3971 28.8538 13.8256 28.1488 13.8256Z" fill="#938DFF"/>
<path d="M12.7441 16.5406V26.1318H28.1488C28.8538 26.1318 29.4254 25.5603 29.4254 24.8552V16.5406H12.7441Z" fill="#BEC3C7"/>
<path d="M27.8296 16.5406V26.1318H28.1487C28.8538 26.1318 29.4253 25.5603 29.4253 24.8552V16.5406H27.8296Z" fill="#D7DADD"/>
<path d="M26.1519 20.3379H22.6984C22.4869 20.3379 22.3154 20.1664 22.3154 19.9549C22.3154 19.7434 22.4869 19.5719 22.6984 19.5719H26.1519C26.3633 19.5719 26.5348 19.7434 26.5348 19.9549C26.5348 20.1664 26.3633 20.3379 26.1519 20.3379Z" fill="#310E31"/>
<path d="M26.1519 23.1006H22.6984C22.4869 23.1006 22.3154 22.9291 22.3154 22.7176C22.3154 22.5061 22.4869 22.3346 22.6984 22.3346H26.1519C26.3633 22.3346 26.5348 22.5061 26.5348 22.7176C26.5348 22.9291 26.3633 23.1006 26.1519 23.1006Z" fill="#310E31"/>
<path d="M16.5279 22.4297H19.8618C20.2143 22.4297 20.5001 22.144 20.5001 21.7914V20.0513C20.5001 19.4168 19.9857 18.9024 19.3511 18.9024H16.5279C16.1754 18.9024 15.8896 19.1881 15.8896 19.5407V21.7914C15.8896 22.144 16.1754 22.4297 16.5279 22.4297Z" fill="#D7DADD"/>
<path d="M16.0172 22.9404H19.0319C19.3844 22.9404 19.6702 22.6546 19.6702 22.3021V20.3704C19.6702 20.0179 19.3844 19.7321 19.0319 19.7321H16.0172C15.6647 19.7321 15.3789 20.0179 15.3789 20.3704V22.3021C15.3789 22.6546 15.6647 22.9404 16.0172 22.9404Z" fill="#FFCB5B"/>
<path d="M16.7832 21.3279C16.7832 20.9754 17.0689 20.6896 17.4215 20.6896H19.6702V20.3704C19.6702 20.0179 19.3844 19.7321 19.0319 19.7321H16.0172C15.6647 19.7321 15.3789 20.0179 15.3789 20.3704V22.3021C15.3789 22.6546 15.6647 22.9404 16.0172 22.9404H16.7832V21.3279Z" fill="#F9DE79"/>
<path d="M19.0321 23.3233H16.0174C15.4543 23.3233 14.9961 22.8652 14.9961 22.3021V20.3704C14.9961 19.8073 15.4543 19.3492 16.0174 19.3492H19.0321C19.5952 19.3492 20.0533 19.8073 20.0533 20.3704V22.3021C20.0533 22.8652 19.5952 23.3233 19.0321 23.3233ZM16.0173 20.1152C15.8765 20.1152 15.762 20.2297 15.762 20.3705V22.3021C15.762 22.4429 15.8765 22.5574 16.0173 22.5574H19.032C19.1728 22.5574 19.2873 22.4429 19.2873 22.3021V20.3705C19.2873 20.2297 19.1728 20.1152 19.032 20.1152H16.0173Z" fill="#310E31"/>
<path d="M28.1489 13.4427H26.552V10.4229C27.349 9.97532 27.8889 9.12223 27.8889 8.14493C27.8889 8.14493 27.8882 4.5787 27.8879 4.57155C27.8847 4.4984 27.858 4.4273 27.8159 4.368L24.7576 0.157915C24.6855 0.0587234 24.5704 0 24.4477 0H3.826C3.70339 0 3.58817 0.0587234 3.51617 0.157915L0.457896 4.368C0.410917 4.43317 0.385193 4.51257 0.384747 4.59306V8.14493C0.384747 9.12223 0.924747 9.97526 1.72166 10.4229V29.234H0.574385C0.362917 29.234 0.191406 29.4056 0.191406 29.617C0.191406 29.8285 0.362917 30 0.574385 30H27.6994C27.9108 30 28.0823 29.8285 28.0823 29.617C28.0823 29.4056 27.9108 29.234 27.6994 29.234H26.552V26.5148H28.1489C29.064 26.5148 29.8084 25.7703 29.8084 24.8552V15.1023C29.8084 14.1871 29.064 13.4427 28.1489 13.4427ZM27.123 8.14493C27.123 9.16238 26.2953 9.99013 25.2779 9.99013C24.2604 9.99013 23.4327 9.16238 23.4327 8.14493V4.97604H27.123V8.14493ZM4.02119 0.765957H24.2526L26.7544 4.21008H1.51932L4.02119 0.765957ZM22.6666 4.97604V8.14493C22.6666 9.16238 21.8389 9.99013 20.8214 9.99013C19.804 9.99013 18.9763 9.16238 18.9763 8.14493V4.97604H22.6666ZM18.2103 4.97604V8.14493C18.2103 9.16238 17.3825 9.99013 16.365 9.99013C15.3476 9.99013 14.5199 9.16238 14.5199 8.14493V4.97604H18.2103ZM13.7539 4.97604V8.14493C13.7539 9.16238 12.9262 9.99013 11.9087 9.99013C10.8913 9.99013 10.0635 9.16238 10.0635 8.14493V4.97604H13.7539ZM9.29749 4.97604V8.14493C9.29749 9.16238 8.46975 9.99013 7.4523 9.99013C6.43485 9.99013 5.60711 9.16238 5.60711 8.14493V4.97604H9.29749ZM1.1507 8.14493V4.97604H4.84109V8.14493C4.84109 9.16238 4.01334 9.99013 2.9959 9.99013C1.97845 9.99013 1.1507 9.16245 1.1507 8.14493ZM9.80838 29.234H5.04087V23.6494C5.04087 22.3349 6.11021 21.2656 7.42466 21.2656C8.73911 21.2656 9.80845 22.3349 9.80845 23.6494V29.234H9.80838ZM25.7861 29.234H10.5743V23.6494C10.5743 21.9126 9.16134 20.4996 7.4246 20.4996C5.68785 20.4996 4.27485 21.9126 4.27485 23.6494V29.234H2.48762V10.7061C2.65211 10.7387 2.82196 10.7561 2.9959 10.7561C3.93783 10.7561 4.76475 10.2547 5.22407 9.50483C5.68338 10.2547 6.5103 10.7561 7.45224 10.7561C8.39417 10.7561 9.22109 10.2547 9.68041 9.50483C10.1397 10.2547 10.9666 10.7561 11.9086 10.7561C12.8505 10.7561 13.6774 10.2547 14.1367 9.50483C14.5961 10.2547 15.423 10.7561 16.3649 10.7561C17.3069 10.7561 18.1338 10.2547 18.5932 9.50483C19.0525 10.2547 19.8794 10.7561 20.8213 10.7561C21.7633 10.7561 22.5902 10.2547 23.0495 9.50483C23.5088 10.2547 24.3357 10.7561 25.2777 10.7561C25.4516 10.7561 25.6214 10.7387 25.7859 10.7061V13.4427H13.1272V12.8796C13.1272 12.6681 12.9557 12.4966 12.7442 12.4966C12.5328 12.4966 12.3613 12.6681 12.3613 12.8796V27.0779C12.3613 27.2894 12.5328 27.4609 12.7442 27.4609C12.9557 27.4609 13.1272 27.2894 13.1272 27.0779V26.5148H25.7861V29.234ZM29.0425 24.8552C29.0425 25.348 28.6416 25.7488 28.1489 25.7488H13.1272V16.9236H29.0425V24.8552ZM29.0425 16.1577H13.1272V14.2086H28.1489C28.6416 14.2086 29.0425 14.6095 29.0425 15.1023V16.1577Z" fill="#310E31"/>
</svg>
