<svg width="18" height="18" viewBox="0 0 18 18" fill="#000" xmlns="http://www.w3.org/2000/svg">
<path d="M1.48953 2.03203C1.33258 2.0694 1.19058 2.17029 1.08595 2.33098L1 2.4543V4.75622C1 7.1964 1.00374 7.22629 1.18311 7.67098C1.36248 8.11193 1.78475 8.59773 2.1958 8.83315L2.42001 8.96394V12.5513C2.42001 14.9392 2.43496 16.1873 2.46112 16.2808C2.5097 16.4639 2.69654 16.6731 2.88713 16.7591C3.02913 16.8263 3.30939 16.8301 8.95956 16.8301C14.6396 16.8301 14.89 16.8263 15.0357 16.7591C15.2151 16.6769 15.4132 16.4527 15.4617 16.2695C15.4842 16.1873 15.4991 14.7598 15.4991 12.5401C15.4991 10.5633 15.5103 8.94526 15.529 8.94526C15.5963 8.94526 16.0073 8.64257 16.1979 8.45573C16.467 8.19041 16.6388 7.92509 16.7808 7.5514L16.9004 7.24498L16.9116 4.84964L16.9229 2.45803L16.8369 2.33098C16.7248 2.16656 16.5903 2.07313 16.4109 2.03203C16.2315 1.98719 1.6689 1.99092 1.48953 2.03203ZM4.65467 5.14485L4.64346 6.9834L4.52014 7.23377C4.29593 7.6934 3.90729 7.92135 3.3916 7.89146C2.93944 7.8653 2.59191 7.63361 2.37891 7.22629L2.28922 7.05813L2.27801 5.17848L2.2668 3.30257H3.46634H4.66588L4.65467 5.14485ZM8.31681 5.1598L8.3056 7.02077L8.20097 7.23377C8.07018 7.49909 7.82355 7.71956 7.54328 7.82793C7.37886 7.89146 7.27796 7.90267 7.05375 7.89146C6.60158 7.8653 6.25032 7.63361 6.056 7.23377L5.95137 7.02077L5.94016 5.1598L5.92895 3.30257H7.12849H8.32802L8.31681 5.1598ZM11.979 5.1598L11.9677 7.02077L11.8631 7.23377C11.751 7.46545 11.553 7.66351 11.3063 7.7943C11.1718 7.8653 11.0896 7.88025 10.7906 7.88025C10.4917 7.88025 10.4095 7.8653 10.2749 7.7943C10.0283 7.66351 9.83025 7.46545 9.71814 7.23377L9.61351 7.02077L9.6023 5.1598L9.59109 3.30257H10.7906H11.9902L11.979 5.1598ZM15.6411 5.17848L15.6299 7.05813L15.5402 7.22629C15.3309 7.62614 14.9797 7.86156 14.5425 7.89146C14.0305 7.92509 13.6232 7.6934 13.399 7.2375L13.2757 6.9834L13.2644 5.14485L13.2532 3.30257H14.4528H15.6523L15.6411 5.17848ZM5.5291 8.58652C5.78694 8.82194 6.18679 9.03121 6.53058 9.10968C6.84822 9.18816 7.41623 9.18442 7.72265 9.10968C8.05523 9.02747 8.51113 8.78457 8.75777 8.56036L8.95956 8.37725L9.16882 8.56783C9.40051 8.78084 9.87509 9.02747 10.2114 9.11342C10.4954 9.18442 11.0784 9.18442 11.3885 9.10968C11.7361 9.03121 12.1322 8.82194 12.3938 8.58278L12.6217 8.37725L12.8347 8.57157C13.1523 8.85557 13.8511 9.16947 14.1613 9.16947C14.2248 9.16947 14.2286 9.31895 14.2286 12.3645V15.5595H12.8646H11.5006V13.4108C11.5006 11.0641 11.5044 11.1089 11.2839 10.8735C11.2278 10.8137 11.1157 10.7352 11.0335 10.6979C10.8953 10.6343 10.7533 10.6269 8.96703 10.6269C6.87811 10.6269 6.90054 10.6231 6.66511 10.8436C6.60532 10.8996 6.52685 11.0118 6.48948 11.094C6.42595 11.2322 6.41848 11.3817 6.41848 13.3996V15.5595H5.05452H3.69055V12.3645C3.69055 9.31895 3.69429 9.16947 3.75782 9.16947C4.06798 9.16947 4.77051 8.85184 5.0732 8.57531C5.18531 8.47441 5.2862 8.38846 5.28994 8.38473C5.29741 8.38473 5.40578 8.47441 5.5291 8.58652ZM10.2301 13.7285V15.5595H8.95956H7.68902V13.7285V11.8974H8.95956H10.2301V13.7285Z" fill="#000"/>
</svg>
