<svg width="36" height="10" viewBox="0 0 36 10" fill="none" xmlns="http://www.w3.org/2000/svg">
<path d="M4.22786 0.572263H1.48749C1.29994 0.572263 1.14047 0.709113 1.11121 0.895077L0.00287768 7.9518C-0.0191662 8.09098 0.0882448 8.21655 0.228868 8.21655H1.53716C1.72469 8.21655 1.88415 8.07976 1.91341 7.89345L2.21233 5.99016C2.2412 5.80381 2.40105 5.66699 2.58818 5.66699H3.4557C5.26086 5.66699 6.30266 4.78978 6.57477 3.05144C6.69736 2.29091 6.57996 1.69338 6.22533 1.2749C5.83585 0.815318 5.14505 0.572263 4.22786 0.572263V0.572263ZM4.54402 3.14964C4.39415 4.13711 3.64283 4.13711 2.91636 4.13711H2.50285L2.79295 2.29296C2.81019 2.18148 2.90634 2.09939 3.01855 2.09939H3.20806C3.70292 2.09939 4.16976 2.09939 4.41097 2.38265C4.55483 2.55168 4.59892 2.80276 4.54402 3.14964Z" fill="#283B82"/>
<path d="M12.4182 3.11787H11.106C10.9942 3.11787 10.8976 3.19996 10.8803 3.31143L10.8223 3.68002L10.7305 3.54641C10.4464 3.13234 9.81286 2.99394 9.18057 2.99394C7.73046 2.99394 6.49189 4.09689 6.25068 5.64409C6.12527 6.41587 6.30358 7.15386 6.73953 7.66849C7.13942 8.14169 7.71161 8.33887 8.39244 8.33887C9.56088 8.33887 10.2088 7.58443 10.2088 7.58443L10.1503 7.9506C10.1282 8.09063 10.2356 8.21617 10.3755 8.21617H11.5575C11.7454 8.21617 11.9041 8.07935 11.9338 7.89307L12.643 3.38264C12.6655 3.24381 12.5585 3.11787 12.4182 3.11787V3.11787ZM10.589 5.68272C10.4625 6.43557 9.86737 6.94102 9.1085 6.94102C8.72744 6.94102 8.42287 6.81826 8.22731 6.58568C8.03339 6.3547 7.95965 6.02595 8.02137 5.65976C8.13956 4.91333 8.74466 4.39146 9.49191 4.39146C9.86461 4.39146 10.1675 4.51578 10.3671 4.75034C10.5671 4.98735 10.6463 5.31813 10.589 5.68272Z" fill="#283B82"/>
<path d="M19.4085 3.11784H18.0898C17.964 3.11784 17.8458 3.18062 17.7745 3.28567L15.9557 5.97605L15.1848 3.39068C15.1363 3.22889 14.9876 3.11784 14.8193 3.11784H13.5235C13.366 3.11784 13.2566 3.27235 13.3067 3.42124L14.7592 7.70188L13.3936 9.63781C13.2862 9.79027 13.3944 10 13.58 10H14.8971C15.0221 10 15.1391 9.9388 15.21 9.83579L19.596 3.47801C19.701 3.32587 19.5933 3.11784 19.4085 3.11784" fill="#283B82"/>
<path d="M23.7742 0.572263H21.0335C20.8464 0.572263 20.6868 0.709113 20.6576 0.895077L19.5493 7.9518C19.5273 8.09098 19.6346 8.21655 19.7745 8.21655H21.1809C21.3115 8.21655 21.4234 8.12083 21.4438 7.99043L21.7583 5.99016C21.7872 5.80381 21.9471 5.66699 22.1342 5.66699H23.0013C24.8068 5.66699 25.8483 4.78978 26.1207 3.05144C26.2438 2.29091 26.1256 1.69338 25.7709 1.2749C25.3819 0.815318 24.6915 0.572263 23.7742 0.572263V0.572263ZM24.0904 3.14964C23.9409 4.13711 23.1897 4.13711 22.4628 4.13711H22.0497L22.3402 2.29296C22.3574 2.18148 22.4527 2.09939 22.5653 2.09939H22.7549C23.2494 2.09939 23.7166 2.09939 23.9577 2.38265C24.1016 2.55168 24.1453 2.80276 24.0904 3.14964Z" fill="#469BDB"/>
<path d="M31.9649 3.11787H30.6534C30.5408 3.11787 30.445 3.19996 30.4282 3.31143L30.3701 3.68002L30.278 3.54641C29.9939 3.13234 29.3607 2.99394 28.7284 2.99394C27.2783 2.99394 26.0402 4.09689 25.7989 5.64409C25.6739 6.41587 25.8514 7.15386 26.2874 7.66849C26.6881 8.14169 27.2595 8.33887 27.9402 8.33887C29.1087 8.33887 29.7566 7.58443 29.7566 7.58443L29.6981 7.9506C29.6761 8.09063 29.7834 8.21617 29.9241 8.21617H31.1058C31.2929 8.21617 31.4524 8.07935 31.4817 7.89307L32.1913 3.38264C32.2129 3.24381 32.1055 3.11787 31.9649 3.11787V3.11787ZM30.1357 5.68272C30.0098 6.43557 29.414 6.94102 28.6551 6.94102C28.2748 6.94102 27.9695 6.81826 27.7739 6.58568C27.5801 6.3547 27.5071 6.02595 27.568 5.65976C27.687 4.91333 28.2913 4.39146 29.0386 4.39146C29.4112 4.39146 29.7141 4.51578 29.9137 4.75034C30.1144 4.98735 30.1938 5.31813 30.1357 5.68272Z" fill="#469BDB"/>
<path d="M33.5119 0.765381L32.3871 7.95131C32.3652 8.09049 32.4725 8.21606 32.6124 8.21606H33.7431C33.931 8.21606 34.0906 8.07927 34.1194 7.89297L35.2285 0.83666C35.2506 0.697376 35.1432 0.571441 35.0033 0.571441H33.7371C33.6253 0.571777 33.5292 0.653971 33.5119 0.765381" fill="#469BDB"/>
</svg>
