<svg width="88" height="32" viewBox="0 0 88 32" fill="none" xmlns="http://www.w3.org/2000/svg">
<path d="M12.8721 7.44602H7.76964C7.42042 7.44602 7.1235 7.70083 7.06902 8.04708L5.00536 21.1863C4.96431 21.4455 5.16431 21.6793 5.42614 21.6793H7.86212C8.21128 21.6793 8.50819 21.4246 8.56268 21.0777L9.11924 17.5339C9.17299 17.1869 9.47064 16.9321 9.81907 16.9321H11.4343C14.7954 16.9321 16.7352 15.2988 17.2419 12.0621C17.4701 10.6461 17.2515 9.53348 16.5912 8.75429C15.8661 7.89857 14.5798 7.44602 12.8721 7.44602ZM13.4607 12.245C13.1817 14.0836 11.7828 14.0836 10.4301 14.0836H9.66018L10.2003 10.6499C10.2324 10.4423 10.4115 10.2895 10.6204 10.2895H10.9732C11.8946 10.2895 12.7639 10.2895 13.213 10.8169C13.4809 11.1316 13.5629 11.5991 13.4607 12.245Z" fill="#283B82"/>
<path d="M28.1225 12.1858H25.6792C25.471 12.1858 25.2912 12.3386 25.259 12.5462L25.151 13.2324L24.9801 12.9837C24.4511 12.2127 23.2715 11.955 22.0942 11.955C19.3942 11.955 17.088 14.0086 16.6389 16.8894C16.4054 18.3265 16.7374 19.7006 17.5491 20.6588C18.2937 21.5399 19.3591 21.907 20.6267 21.907C22.8023 21.907 24.0087 20.5023 24.0087 20.5023L23.8998 21.1841C23.8587 21.4448 24.0587 21.6785 24.3191 21.6785H26.5199C26.8698 21.6785 27.1653 21.4238 27.2206 21.0769L28.5411 12.6787C28.5829 12.4202 28.3837 12.1858 28.1225 12.1858ZM24.7167 16.9614C24.481 18.3631 23.373 19.3043 21.96 19.3043C21.2505 19.3043 20.6834 19.0757 20.3193 18.6426C19.9582 18.2126 19.8209 17.6005 19.9358 16.9186C20.1559 15.5288 21.2825 14.5571 22.6739 14.5571C23.3678 14.5571 23.9318 14.7886 24.3034 15.2253C24.6757 15.6666 24.8233 16.2825 24.7167 16.9614Z" fill="#283B82"/>
<path d="M41.1369 12.1858H38.6816C38.4473 12.1858 38.2272 12.3027 38.0944 12.4983L34.7079 17.5076L33.2725 12.6938C33.1822 12.3925 32.9055 12.1858 32.5921 12.1858H30.1793C29.886 12.1858 29.6824 12.4735 29.7757 12.7507L32.4802 20.721L29.9375 24.3256C29.7375 24.6095 29.9389 25 30.2845 25H32.7369C32.9696 25 33.1875 24.8861 33.3195 24.6943L41.4861 12.8564C41.6816 12.5731 41.4809 12.1858 41.1369 12.1858Z" fill="#283B82"/>
<path d="M49.2672 7.44602H44.164C43.8156 7.44602 43.5186 7.70083 43.4641 8.04708L41.4005 21.1863C41.3595 21.4455 41.5594 21.6793 41.8198 21.6793H44.4386C44.6817 21.6793 44.89 21.5011 44.928 21.2583L45.5136 17.5339C45.5673 17.1869 45.8651 16.9321 46.2135 16.9321H47.8281C51.1898 16.9321 53.1289 15.2988 53.6362 12.0621C53.8654 10.6461 53.6453 9.53348 52.9849 8.75429C52.2605 7.89857 50.975 7.44602 49.2672 7.44602ZM49.8559 12.245C49.5776 14.0836 48.1788 14.0836 46.8253 14.0836H46.0561L46.5971 10.6499C46.6291 10.4423 46.8066 10.2895 47.0163 10.2895H47.3692C48.2899 10.2895 49.1598 10.2895 49.6089 10.8169C49.8768 11.1316 49.958 11.5991 49.8559 12.245Z" fill="#469BDB"/>
<path d="M64.5172 12.1858H62.0752C61.8656 12.1858 61.6872 12.3386 61.6559 12.5462L61.5477 13.2324L61.3761 12.9837C60.8472 12.2127 59.6683 11.955 58.491 11.955C55.7909 11.955 53.4856 14.0086 53.0364 16.8894C52.8036 18.3265 53.1341 19.7006 53.9459 20.6588C54.692 21.5399 55.7558 21.907 57.0234 21.907C59.199 21.907 60.4054 20.5023 60.4054 20.5023L60.2964 21.1841C60.2555 21.4448 60.4554 21.6785 60.7174 21.6785H62.9175C63.2659 21.6785 63.5629 21.4238 63.6174 21.0769L64.9387 12.6787C64.9789 12.4202 64.779 12.1858 64.5172 12.1858ZM61.1112 16.9614C60.8769 18.3631 59.7675 19.3043 58.3545 19.3043C57.6464 19.3043 57.0779 19.0757 56.7138 18.6426C56.3528 18.2126 56.2169 17.6005 56.3304 16.9186C56.5519 15.5288 57.6771 14.5571 59.0686 14.5571C59.7624 14.5571 60.3263 14.7886 60.6979 15.2253C61.0717 15.6666 61.2194 16.2825 61.1112 16.9614Z" fill="#469BDB"/>
<path d="M67.3986 7.80577L65.3043 21.1856C65.2633 21.4447 65.4632 21.6786 65.7236 21.6786H67.829C68.179 21.6786 68.476 21.4239 68.5297 21.077L70.5947 7.93849C70.6358 7.67915 70.436 7.44466 70.1755 7.44466H67.8178C67.6097 7.44529 67.4307 7.59833 67.3986 7.80577Z" fill="#469BDB"/>
<circle cx="72.5" cy="20.5" r="1.5" fill="#3F405B"/>
<circle cx="77.5" cy="20.5" r="1.5" fill="#3F405B"/>
<circle cx="82.5" cy="20.5" r="1.5" fill="#3F405B"/>
</svg>
