<svg width="66" height="18" viewBox="0 0 66 18" fill="none" xmlns="http://www.w3.org/2000/svg">
<path d="M7.87206 0.446019H2.76964C2.42042 0.446019 2.1235 0.700827 2.06902 1.04708L0.00535809 14.1863C-0.0356865 14.4455 0.164307 14.6793 0.426141 14.6793H2.86212C3.21128 14.6793 3.50819 14.4246 3.56268 14.0777L4.11924 10.5339C4.17299 10.1869 4.47064 9.93214 4.81907 9.93214H6.43434C9.79544 9.93214 11.7352 8.29881 12.2419 5.06213C12.4701 3.64606 12.2515 2.53348 11.5912 1.75429C10.8661 0.898575 9.57981 0.446019 7.87206 0.446019ZM8.46073 5.24496C8.18169 7.08359 6.78277 7.08359 5.43012 7.08359H4.66018L5.20032 3.64986C5.23244 3.44229 5.41145 3.28946 5.62039 3.28946H5.97325C6.89465 3.28946 7.76388 3.28946 8.21299 3.81686C8.48086 4.13158 8.56294 4.59908 8.46073 5.24496Z" fill="#000"/>
<path d="M23.1225 5.18576H20.6792C20.471 5.18576 20.2912 5.33861 20.259 5.54616L20.151 6.23245L19.9801 5.98368C19.4511 5.21269 18.2715 4.95501 17.0942 4.95501C14.3942 4.95501 12.088 7.00864 11.6389 9.88944C11.4054 11.3265 11.7374 12.7006 12.5491 13.6588C13.2937 14.5399 14.3591 14.907 15.6267 14.907C17.8023 14.907 19.0087 13.5023 19.0087 13.5023L18.8998 14.1841C18.8587 14.4448 19.0587 14.6785 19.3191 14.6785H21.5199C21.8698 14.6785 22.1653 14.4238 22.2206 14.0769L23.5411 5.67874C23.5829 5.42024 23.3837 5.18576 23.1225 5.18576ZM19.7167 9.96138C19.481 11.3631 18.373 12.3043 16.96 12.3043C16.2505 12.3043 15.6834 12.0757 15.3193 11.6426C14.9582 11.2126 14.8209 10.6005 14.9358 9.91862C15.1559 8.52882 16.2825 7.55711 17.6739 7.55711C18.3678 7.55711 18.9318 7.7886 19.3034 8.22533C19.6757 8.66663 19.8233 9.28253 19.7167 9.96138Z" fill="#000"/>
<path d="M36.1369 5.18578H33.6816C33.4473 5.18578 33.2272 5.30266 33.0944 5.49825L29.7079 10.5076L28.2725 5.69378C28.1822 5.39255 27.9055 5.18578 27.5921 5.18578H25.1793C24.886 5.18578 24.6824 5.47346 24.7757 5.75068L27.4802 13.721L24.9375 17.3256C24.7375 17.6095 24.9389 18 25.2845 18H27.7369C27.9696 18 28.1875 17.8861 28.3195 17.6943L36.4861 5.85639C36.6816 5.57312 36.4809 5.18578 36.1369 5.18578Z" fill="#000"/>
<path d="M44.2672 0.446019H39.164C38.8156 0.446019 38.5186 0.700827 38.4641 1.04708L36.4005 14.1863C36.3595 14.4455 36.5594 14.6793 36.8198 14.6793H39.4386C39.6817 14.6793 39.89 14.5011 39.928 14.2583L40.5136 10.5339C40.5673 10.1869 40.8651 9.93214 41.2135 9.93214H42.8281C46.1898 9.93214 48.1289 8.29881 48.6362 5.06213C48.8654 3.64606 48.6453 2.53348 47.9849 1.75429C47.2605 0.898575 45.975 0.446019 44.2672 0.446019ZM44.8559 5.24496C44.5776 7.08359 43.1788 7.08359 41.8253 7.08359H41.0561L41.5971 3.64986C41.6291 3.44229 41.8066 3.28946 42.0163 3.28946H42.3692C43.2899 3.28946 44.1598 3.28946 44.6089 3.81686C44.8768 4.13158 44.958 4.59908 44.8559 5.24496Z" fill="#469BDB"/>
<path d="M59.5172 5.18576H57.0752C56.8656 5.18576 56.6872 5.33861 56.6559 5.54616L56.5477 6.23245L56.3761 5.98368C55.8472 5.21269 54.6683 4.95501 53.491 4.95501C50.7909 4.95501 48.4856 7.00864 48.0364 9.88944C47.8036 11.3265 48.1341 12.7006 48.9459 13.6588C49.692 14.5399 50.7558 14.907 52.0234 14.907C54.199 14.907 55.4054 13.5023 55.4054 13.5023L55.2964 14.1841C55.2555 14.4448 55.4554 14.6785 55.7174 14.6785H57.9175C58.2659 14.6785 58.5629 14.4238 58.6174 14.0769L59.9387 5.67874C59.9789 5.42024 59.779 5.18576 59.5172 5.18576ZM56.1112 9.96138C55.8769 11.3631 54.7675 12.3043 53.3545 12.3043C52.6464 12.3043 52.0779 12.0757 51.7138 11.6426C51.3528 11.2126 51.2169 10.6005 51.3304 9.91862C51.5519 8.52882 52.6771 7.55711 54.0686 7.55711C54.7624 7.55711 55.3263 7.7886 55.6979 8.22533C56.0717 8.66663 56.2194 9.28253 56.1112 9.96138Z" fill="#469BDB"/>
<path d="M62.3986 0.805768L60.3043 14.1856C60.2633 14.4447 60.4632 14.6786 60.7236 14.6786H62.829C63.179 14.6786 63.476 14.4239 63.5297 14.077L65.5947 0.938486C65.6358 0.679147 65.436 0.444662 65.1755 0.444662H62.8178C62.6097 0.445288 62.4307 0.598328 62.3986 0.805768Z" fill="#469BDB"/>
</svg>
