<svg width="66" height="18" viewBox="0 0 66 18" fill="none" xmlns="http://www.w3.org/2000/svg">
<path d="M7.87206 0.446019H2.76964C2.42042 0.446019 2.1235 0.700827 2.06902 1.04708L0.00535809 14.1863C-0.0356865 14.4455 0.164307 14.6793 0.426141 14.6793H2.86212C3.21128 14.6793 3.50819 14.4246 3.56268 14.0777L4.11924 10.5339C4.17299 10.1869 4.47064 9.93214 4.81907 9.93214H6.43434C9.79544 9.93214 11.7352 8.29881 12.2419 5.06213C12.4701 3.64606 12.2515 2.53348 11.5912 1.75429C10.8661 0.898575 9.57981 0.446019 7.87206 0.446019ZM8.46073 5.24496C8.18169 7.08359 6.78277 7.08359 5.43012 7.08359H4.66018L5.20032 3.64986C5.23244 3.44229 5.41145 3.28946 5.62039 3.28946H5.97325C6.89465 3.28946 7.76388 3.28946 8.21299 3.81686C8.48086 4.13158 8.56294 4.59908 8.46073 5.24496Z" fill="white"/>
<path d="M23.1226 5.18576H20.6793C20.4712 5.18576 20.2914 5.33861 20.2591 5.54616L20.1511 6.23245L19.9802 5.98368C19.4512 5.21269 18.2716 4.95501 17.0943 4.95501C14.3943 4.95501 12.0881 7.00864 11.639 9.88944C11.4055 11.3265 11.7375 12.7006 12.5492 13.6588C13.2938 14.5399 14.3592 14.907 15.6269 14.907C17.8024 14.907 19.0088 13.5023 19.0088 13.5023L18.8999 14.1841C18.8588 14.4448 19.0588 14.6785 19.3192 14.6785H21.52C21.87 14.6785 22.1654 14.4238 22.2207 14.0769L23.5412 5.67874C23.5831 5.42024 23.3838 5.18576 23.1226 5.18576ZM19.7168 9.96138C19.4811 11.3631 18.3731 12.3043 16.9601 12.3043C16.2506 12.3043 15.6835 12.0757 15.3194 11.6426C14.9583 11.2126 14.821 10.6005 14.9359 9.91862C15.156 8.52882 16.2827 7.55711 17.674 7.55711C18.368 7.55711 18.9319 7.7886 19.3035 8.22533C19.6759 8.66663 19.8234 9.28253 19.7168 9.96138Z" fill="white"/>
<path d="M36.137 5.18578H33.6817C33.4474 5.18578 33.2273 5.30266 33.0945 5.49825L29.708 10.5076L28.2726 5.69378C28.1824 5.39255 27.9056 5.18578 27.5922 5.18578H25.1794C24.8861 5.18578 24.6825 5.47346 24.7758 5.75068L27.4803 13.721L24.9377 17.3256C24.7376 17.6095 24.9391 18 25.2846 18H27.737C27.9697 18 28.1876 17.8861 28.3197 17.6943L36.4862 5.85639C36.6817 5.57312 36.481 5.18578 36.137 5.18578Z" fill="white"/>
<path d="M44.2671 0.446019H39.1639C38.8155 0.446019 38.5185 0.700827 38.464 1.04708L36.4004 14.1863C36.3594 14.4455 36.5593 14.6793 36.8197 14.6793H39.4385C39.6816 14.6793 39.8899 14.5011 39.9279 14.2583L40.5135 10.5339C40.5672 10.1869 40.865 9.93214 41.2134 9.93214H42.8279C46.1897 9.93214 48.1288 8.29881 48.6361 5.06213C48.8653 3.64606 48.6452 2.53348 47.9848 1.75429C47.2604 0.898575 45.9749 0.446019 44.2671 0.446019ZM44.8558 5.24496C44.5775 7.08359 43.1787 7.08359 41.8251 7.08359H41.056L41.5969 3.64986C41.629 3.44229 41.8065 3.28946 42.0161 3.28946H42.369C43.2898 3.28946 44.1597 3.28946 44.6087 3.81686C44.8766 4.13158 44.9579 4.59908 44.8558 5.24496Z" fill="#469BDB"/>
<path d="M59.517 5.18576H57.0751C56.8654 5.18576 56.687 5.33861 56.6557 5.54616L56.5476 6.23245L56.376 5.98368C55.8471 5.21269 54.6682 4.95501 53.4909 4.95501C50.7907 4.95501 48.4855 7.00864 48.0362 9.88944C47.8035 11.3265 48.134 12.7006 48.9458 13.6588C49.6919 14.5399 50.7557 14.907 52.0233 14.907C54.1989 14.907 55.4053 13.5023 55.4053 13.5023L55.2963 14.1841C55.2554 14.4448 55.4553 14.6785 55.7172 14.6785H57.9174C58.2658 14.6785 58.5628 14.4238 58.6173 14.0769L59.9386 5.67874C59.9787 5.42024 59.7789 5.18576 59.517 5.18576ZM56.1111 9.96138C55.8768 11.3631 54.7674 12.3043 53.3544 12.3043C52.6463 12.3043 52.0778 12.0757 51.7137 11.6426C51.3527 11.2126 51.2168 10.6005 51.3303 9.91862C51.5518 8.52882 52.6769 7.55711 54.0684 7.55711C54.7622 7.55711 55.3262 7.7886 55.6978 8.22533C56.0715 8.66663 56.2193 9.28253 56.1111 9.96138Z" fill="#469BDB"/>
<path d="M62.3985 0.805768L60.3042 14.1856C60.2632 14.4447 60.4631 14.6786 60.7235 14.6786H62.8289C63.1788 14.6786 63.4758 14.4239 63.5296 14.077L65.5946 0.938486C65.6357 0.679147 65.4358 0.444662 65.1754 0.444662H62.8177C62.6096 0.445288 62.4306 0.598328 62.3985 0.805768Z" fill="#469BDB"/>
</svg>
