<svg width="16" height="16" viewBox="0 0 16 16" fill="#000" xmlns="http://www.w3.org/2000/svg">
<path fill-rule="evenodd" clip-rule="evenodd" d="M4.17876 1.74675C3.96593 1.6391 3.71458 1.6391 3.50174 1.74675C3.4217 1.78724 3.32192 1.87369 2.88165 2.31395L2.76343 2.43218C2.34326 2.85234 2.23001 2.97386 2.13948 3.13502C2.03454 3.32182 1.94663 3.65988 1.94727 3.87413C1.94784 4.06479 1.97598 4.1796 2.09993 4.61629C2.71163 6.77147 3.86558 8.80531 5.56382 10.5035C7.26207 12.2018 9.29591 13.3557 11.4511 13.9674C11.8878 14.0914 12.0026 14.1195 12.1932 14.1201C12.4075 14.1207 12.7456 14.0328 12.9324 13.9279C13.0935 13.8374 13.215 13.7241 13.6352 13.3039L13.7534 13.1857C14.1937 12.7455 14.2801 12.6457 14.3206 12.5656C14.4283 12.3528 14.4283 12.1014 14.3206 11.8886C14.2801 11.8086 14.1937 11.7088 13.7534 11.2685L13.6073 11.1224C13.318 10.8331 13.2529 10.7739 13.2036 10.7418C12.9551 10.5802 12.6346 10.5802 12.386 10.7418C12.3367 10.7739 12.2717 10.8331 11.9824 11.1224C11.9767 11.1281 11.9708 11.134 11.9648 11.14C11.8975 11.2075 11.8123 11.293 11.71 11.3663C11.3447 11.6278 10.8482 11.7125 10.4169 11.5868C10.2966 11.5517 10.1976 11.504 10.1206 11.4669C10.1145 11.4639 10.1086 11.4611 10.1027 11.4583C8.94027 10.9001 7.85151 10.1396 6.88965 9.17772C5.92779 8.21587 5.16723 7.1271 4.6091 5.96463C4.6063 5.95881 4.60343 5.95286 4.6005 5.94677C4.56337 5.86975 4.51564 5.77074 4.48058 5.65046C4.35486 5.21919 4.43953 4.72264 4.70106 4.3574C4.77433 4.25507 4.85985 4.16986 4.9274 4.10256C4.93342 4.09656 4.93929 4.09071 4.945 4.085C5.23429 3.79571 5.29352 3.73067 5.32557 3.68137C5.48719 3.43279 5.48719 3.11232 5.32557 2.86374C5.29352 2.81443 5.23428 2.74939 4.945 2.46011L4.79885 2.31395C4.35858 1.87369 4.2588 1.78724 4.17876 1.74675ZM2.82472 0.408231C3.46323 0.0852774 4.21728 0.085277 4.85578 0.408231C5.18023 0.572335 5.46189 0.85472 5.78772 1.18139C5.81141 1.20513 5.83533 1.22911 5.85951 1.25329L6.00566 1.39945C6.0216 1.41538 6.03739 1.43114 6.05302 1.44675C6.26801 1.66138 6.45321 1.84626 6.58314 2.0461C7.06801 2.79185 7.06801 3.75325 6.58314 4.49901C6.45321 4.69884 6.26801 4.88373 6.05302 5.09836C6.03739 5.11396 6.0216 5.12972 6.00566 5.14566C5.96246 5.18886 5.94042 5.21102 5.92506 5.22726C5.92478 5.22849 5.92451 5.22984 5.92426 5.2313C5.92398 5.23292 5.92378 5.23443 5.92363 5.23579C5.92611 5.24127 5.92945 5.24852 5.93406 5.25832C5.94127 5.27364 5.94974 5.29129 5.96132 5.3154C6.44718 6.32736 7.1098 7.27655 7.95031 8.11706C8.79082 8.95757 9.74002 9.62019 10.752 10.1061C10.7761 10.1176 10.7937 10.1261 10.8091 10.1333C10.8189 10.1379 10.8261 10.1413 10.8316 10.1437C10.8329 10.1436 10.8345 10.1434 10.8361 10.1431C10.8375 10.1429 10.8389 10.1426 10.8401 10.1423C10.8564 10.127 10.8785 10.1049 10.9217 10.0617C10.9377 10.0458 10.9534 10.03 10.969 10.0143C11.1837 9.79936 11.3685 9.61416 11.5684 9.48424C12.3141 8.99937 13.2755 8.99937 14.0213 9.48424C14.2211 9.61416 14.406 9.79936 14.6206 10.0143C14.6362 10.03 14.652 10.0458 14.6679 10.0617L14.8141 10.2079C14.8383 10.232 14.8622 10.256 14.886 10.2796C15.2127 10.6055 15.495 10.8871 15.6591 11.2116C15.9821 11.8501 15.9821 12.6041 15.6591 13.2427C15.495 13.5671 15.2127 13.8488 14.886 14.1746C14.8622 14.1983 14.8383 14.2222 14.8141 14.2464L14.6959 14.3646C14.6787 14.3817 14.6618 14.3987 14.6451 14.4154C14.2961 14.7647 14.0285 15.0326 13.667 15.2357C13.2545 15.4674 12.6619 15.6215 12.1888 15.6201C11.7749 15.6189 11.473 15.5331 11.0838 15.4225C11.0698 15.4185 11.0557 15.4145 11.0415 15.4104C8.6466 14.7307 6.38689 13.4479 4.50316 11.5642C2.61944 9.68048 1.33668 7.42078 0.656926 5.02586C0.652896 5.01166 0.648895 4.99758 0.644926 4.98362C0.534296 4.59437 0.448506 4.29251 0.447275 3.8786C0.445867 3.40552 0.599997 2.81284 0.831694 2.40038C1.03479 2.03883 1.30266 1.77124 1.65196 1.42229C1.66871 1.40556 1.68564 1.38864 1.70277 1.37152L1.82099 1.25329C1.84518 1.22911 1.8691 1.20513 1.89278 1.18139C2.21861 0.85472 2.50028 0.572335 2.82472 0.408231Z" fill="#000"/>
</svg>
