<svg width="18" height="18" viewBox="0 0 18 18" fill="none" xmlns="http://www.w3.org/2000/svg">
<path fill-rule="evenodd" clip-rule="evenodd" d="M6.67758 7.03726e-07H11.3224C11.7537 -1.39265e-05 12.1258 -2.6606e-05 12.4323 0.0250128C12.7557 0.0514409 13.0774 0.10979 13.387 0.267531C13.8489 0.502856 14.2244 0.878355 14.4597 1.34021C14.6174 1.64979 14.6758 1.97151 14.7022 2.29498C14.7273 2.60144 14.7272 2.97351 14.7272 3.40481V4.11311C14.7982 4.11703 14.8669 4.12164 14.9333 4.12707C15.3932 4.16464 15.8159 4.24529 16.213 4.44762C16.8288 4.76138 17.3295 5.26205 17.6432 5.87785C17.8455 6.27494 17.9262 6.6977 17.9638 7.1576C17.9999 7.60039 17.9999 8.14395 17.9999 8.80255V10.6364C17.9999 10.6744 17.9999 10.712 18 10.7489C18.0003 11.3997 18.0006 11.883 17.8884 12.3016C17.5858 13.431 16.7036 14.3131 15.5743 14.6158C15.3227 14.6832 15.0478 14.71 14.7272 14.7206C14.727 15.0989 14.7248 15.4287 14.7022 15.705C14.6758 16.0285 14.6174 16.3502 14.4597 16.6598C14.2244 17.1216 13.8489 17.4971 13.387 17.7325C13.0775 17.8902 12.7557 17.9486 12.4323 17.975C12.1258 18 11.7537 18 11.3224 18H6.67756C6.24626 18 5.8742 18 5.56773 17.975C5.24427 17.9486 4.92255 17.8902 4.61297 17.7325C4.15112 17.4971 3.77563 17.1216 3.5403 16.6598C3.38257 16.3502 3.32422 16.0285 3.29779 15.705C3.27521 15.4287 3.273 15.0989 3.2728 14.7206C2.95222 14.71 2.67731 14.6832 2.42574 14.6158C1.29636 14.3131 0.41421 13.431 0.111593 12.3016C-0.000575438 11.883 -0.000313759 11.3997 3.86315e-05 10.7489C5.86259e-05 10.712 7.8913e-05 10.6744 7.8913e-05 10.6364L7.85229e-05 8.80258C6.80867e-05 8.14396 5.95078e-05 7.60039 0.036237 7.1576C0.0738119 6.6977 0.154455 6.27494 0.356782 5.87785C0.670546 5.26205 1.17121 4.76138 1.787 4.44762C2.18409 4.24529 2.60685 4.16464 3.06674 4.12707C3.13314 4.12164 3.2018 4.11703 3.27278 4.11311L3.27278 3.40483C3.27276 2.97353 3.27275 2.60145 3.29779 2.29498C3.32422 1.97151 3.38257 1.64979 3.5403 1.34021C3.77563 0.878354 4.15112 0.502856 4.61297 0.267531C4.92255 0.10979 5.24427 0.0514409 5.56773 0.0250128C5.8742 -2.6606e-05 6.24628 -1.39265e-05 6.67758 7.03726e-07ZM4.90913 4.09091H13.0909V3.43636C13.0909 2.96464 13.0902 2.66005 13.0713 2.42823C13.0531 2.20596 13.0223 2.12355 13.0017 2.0831C12.9233 1.92915 12.7981 1.80398 12.6441 1.72554C12.6037 1.70493 12.5213 1.6741 12.299 1.65594C12.0672 1.637 11.7626 1.63637 11.2909 1.63637H6.70911C6.23739 1.63637 5.9328 1.637 5.70099 1.65594C5.47872 1.6741 5.39631 1.70493 5.35586 1.72554C5.20191 1.80398 5.07674 1.92915 4.9983 2.0831C4.97769 2.12355 4.94686 2.20596 4.9287 2.42823C4.90976 2.66005 4.90913 2.96464 4.90913 3.43636V4.09091ZM4.90913 14.5636C4.90913 15.0354 4.90976 15.3399 4.9287 15.5718C4.94686 15.794 4.97769 15.8764 4.9983 15.9169C5.07674 16.0709 5.20191 16.196 5.35586 16.2745C5.39631 16.2951 5.47872 16.3259 5.70099 16.3441C5.9328 16.363 6.23739 16.3636 6.70911 16.3636H11.2909C11.7626 16.3636 12.0672 16.363 12.299 16.3441C12.5213 16.3259 12.6037 16.2951 12.6441 16.2745C12.7981 16.196 12.9233 16.0709 13.0017 15.9169C13.0223 15.8764 13.0531 15.794 13.0713 15.5718C13.0902 15.34 13.0909 15.0354 13.0909 14.5636V13.2545C13.0909 12.7828 13.0902 12.4782 13.0713 12.2464C13.0531 12.0241 13.0223 11.9417 13.0017 11.9013C12.9233 11.7473 12.7981 11.6222 12.6441 11.5437C12.6037 11.5231 12.5213 11.4923 12.299 11.4741C12.0672 11.4552 11.7626 11.4545 11.2909 11.4545H6.70911C6.23739 11.4545 5.93281 11.4552 5.70099 11.4741C5.47872 11.4923 5.39631 11.5231 5.35586 11.5437C5.20191 11.6222 5.07674 11.7473 4.9983 11.9013C4.97769 11.9417 4.94686 12.0241 4.9287 12.2464C4.90976 12.4782 4.90913 12.7828 4.90913 13.2545V14.5636ZM14.7272 13.0828C14.7269 12.7106 14.7245 12.3859 14.7022 12.1132C14.6758 11.7897 14.6174 11.468 14.4597 11.1584C14.2244 10.6965 13.8489 10.321 13.387 10.0857C13.0775 9.92797 12.7557 9.86962 12.4323 9.84319C12.1258 9.81816 11.7537 9.81817 11.3224 9.81818H6.67759C6.24629 9.81817 5.8742 9.81816 5.56773 9.84319C5.24427 9.86962 4.92255 9.92797 4.61297 10.0857C4.15112 10.321 3.77563 10.6965 3.5403 11.1584C3.38257 11.468 3.32422 11.7897 3.29779 12.1132C3.2755 12.3859 3.27306 12.7106 3.27281 13.0828C3.06205 13.0753 2.94645 13.0612 2.84926 13.0352C2.28457 12.8838 1.84349 12.4428 1.69219 11.8781C1.64346 11.6962 1.63643 11.4499 1.63643 10.6364V8.83636C1.63643 8.13553 1.63706 7.6591 1.66715 7.29085C1.69646 6.93215 1.74958 6.74871 1.81478 6.62074C1.97166 6.31284 2.22199 6.06251 2.52989 5.90563C2.65785 5.84043 2.84129 5.7873 3.19999 5.758C3.56824 5.72791 4.04466 5.72727 4.74549 5.72727H13.2545C13.9553 5.72727 14.4318 5.72791 14.8 5.758C15.1587 5.7873 15.3421 5.84043 15.4701 5.90563C15.778 6.06251 16.0283 6.31284 16.1852 6.62074C16.2504 6.74871 16.3035 6.93215 16.3328 7.29085C16.3629 7.6591 16.3636 8.13553 16.3636 8.83636V10.6364C16.3636 11.4499 16.3565 11.6962 16.3078 11.8781C16.1565 12.4428 15.7154 12.8838 15.1507 13.0352C15.0535 13.0612 14.938 13.0753 14.7272 13.0828ZM10.6363 7.77273C10.6363 7.32086 11.0027 6.95455 11.4545 6.95455H13.909C14.3609 6.95455 14.7272 7.32086 14.7272 7.77273C14.7272 8.2246 14.3609 8.59091 13.909 8.59091H11.4545C11.0027 8.59091 10.6363 8.2246 10.6363 7.77273Z" fill="white"/>
</svg>
