<svg width="24" height="24" viewBox="0 0 24 24" fill="none" xmlns="http://www.w3.org/2000/svg">
<path d="M7.62206 5.39697H5.39551V7.62213H7.62206V5.39697Z" fill="white"/>
<path d="M14.9244 17.0444H12.6992V19.271H14.9244V17.0444Z" fill="white"/>
<path d="M21.6002 14.8186H19.375V17.0438H21.6002V14.8186Z" fill="white"/>
<path d="M17.1482 14.8186H14.9244V12.5945H12.6992V14.8196H14.9244V17.0438H17.1495V14.8196H19.374V12.5945H17.1482V14.8186Z" fill="white"/>
<path d="M19.3743 19.269H17.1484V21.4949H19.3743V19.269Z" fill="white"/>
<path d="M3.04262 10.6194H9.97607C10.3309 10.6194 10.6184 10.3318 10.6188 9.97702V3.04287C10.6188 2.68774 10.3312 2.40015 9.97607 2.40015H3.04262C2.68749 2.40015 2.3999 2.68774 2.3999 3.04287V9.97702C2.3999 10.3318 2.68749 10.6194 3.04262 10.6194ZM3.685 3.68525H9.33335V9.3343H3.685V3.68525Z" fill="white"/>
<path d="M17.8345 5.39697H15.6094V7.62213H17.8345V5.39697Z" fill="white"/>
<path d="M13.255 10.6194H20.1899C20.5447 10.6194 20.8323 10.3318 20.8326 9.97702V3.04287C20.8326 2.68774 20.545 2.40015 20.1899 2.40015H13.255C12.8999 2.40015 12.6123 2.68774 12.6123 3.04287V9.97668C12.6123 10.3318 12.8999 10.6194 13.255 10.6194ZM13.8974 3.68525H19.5472V9.3343H13.8974V3.68525Z" fill="white"/>
<path d="M7.63629 15.5945H5.41113V17.8196H7.63629V15.5945Z" fill="white"/>
<path d="M9.99116 12.5969H3.05629C2.70116 12.5969 2.41357 12.8845 2.41357 13.2396V20.1738C2.41357 20.5289 2.70116 20.8165 3.05629 20.8165H9.99116C10.346 20.8165 10.6335 20.5286 10.6339 20.1738V13.2396C10.6339 12.8845 10.3463 12.5969 9.99116 12.5969ZM9.34844 19.5311H3.69867V13.8824H9.34844V19.5311Z" fill="white"/>
</svg>
