<svg width="270" height="270" viewBox="0 0 270 270" fill="none" xmlns="http://www.w3.org/2000/svg">
<g clip-path="url(#clip0_7280_2833)">
<path d="M3.99255 48C6.19803 48 7.98509 46.2129 7.98509 44.0075V7.98509H44.0075C46.2129 7.98509 48 6.19803 48 3.99255C48 1.78706 46.2129 0 44.0075 0H3.99255C1.78706 0 0 1.78706 0 3.99255V44.0075C0 46.2129 1.78706 48 3.99255 48Z" fill="white"/>
<path d="M266.008 222C263.802 222 262.015 223.787 262.015 225.992V262.015H225.992C223.787 262.015 222 263.802 222 266.008C222 268.213 223.787 270 225.992 270H266.008C268.213 270 270 268.213 270 266.008V225.992C270 223.789 268.213 222 266.008 222Z" fill="white"/>
<path d="M266.008 0H225.992C223.787 0 222 1.78706 222 3.99255C222 6.19803 223.787 7.98509 225.992 7.98509H262.015V44.0075C262.015 46.2129 263.802 48 266.008 48C268.213 48 270 46.2129 270 44.0075V3.99255C270 1.78706 268.213 0 266.008 0Z" fill="white"/>
<path d="M44.0075 262.015H7.98509V225.992C7.98509 223.787 6.19803 222 3.99255 222C1.78706 222 0 223.789 0 225.992V266.008C0 268.213 1.78706 270 3.99255 270H44.0075C46.2129 270 48 268.213 48 266.008C48 263.802 46.2129 262.015 44.0075 262.015Z" fill="white"/>
</g>
<defs>
<clipPath id="clip0_7280_2833">
<rect width="270" height="270" fill="white"/>
</clipPath>
</defs>
</svg>
