<svg width="375" height="266" viewBox="0 0 375 266" fill="none" xmlns="http://www.w3.org/2000/svg">
<path d="M178.04 76.3772H176.688V149.173H178.04V76.3772Z" fill="#0D0B2B"/>
<path d="M178.039 77.5593C195.685 77.5593 209.99 63.2674 209.99 45.6375C209.99 28.0075 195.685 13.7156 178.039 13.7156C160.394 13.7156 146.089 28.0075 146.089 45.6375C146.089 63.2674 160.394 77.5593 178.039 77.5593Z" fill="#F9DD76"/>
<path d="M202.383 48.5087C202.383 61.8517 191.563 72.6612 178.208 72.6612C164.853 72.6612 154.034 61.8517 154.034 48.5087C154.034 48.002 154.034 47.4953 154.034 47.1575C154.71 59.8249 165.361 69.9588 178.208 69.9588C191.056 69.9588 201.706 59.8249 202.383 47.1575C202.383 47.4953 202.383 48.002 202.383 48.5087Z" fill="#F8DF96"/>
<path d="M178.039 69.79C191.391 69.79 202.214 59.5814 202.214 46.9886C202.214 34.3958 191.391 24.1873 178.039 24.1873C164.688 24.1873 153.865 34.3958 153.865 46.9886C153.865 59.5814 164.688 69.79 178.039 69.79Z" fill="#FBAB1F"/>
<path d="M202.383 45.6376C202.383 46.1443 202.383 46.8199 202.383 47.3266C201.537 34.8281 191.056 24.8631 178.208 24.8631C165.361 24.8631 154.879 34.8281 154.034 47.3266C154.034 46.8199 154.034 46.1443 154.034 45.6376C154.034 32.2946 164.853 21.4851 178.208 21.4851C191.394 21.4851 202.383 32.2946 202.383 45.6376Z" fill="#E2A01A"/>
<path d="M177.025 57.6293V54.7581C175.335 54.7581 173.644 54.2514 172.63 53.4069L173.306 51.3801C174.32 52.0557 175.842 52.5624 177.532 52.5624C179.561 52.5624 181.082 51.3801 181.082 49.6911C181.082 48.171 179.899 47.1576 177.701 46.1442C174.658 44.9619 172.968 43.6107 172.968 41.0773C172.968 38.7127 174.658 36.8548 177.363 36.3481V33.4768H179.223V36.3481C180.913 36.3481 182.097 36.8548 182.942 37.3615L182.266 39.2194C181.59 38.8816 180.406 38.206 178.547 38.206C176.349 38.206 175.504 39.5572 175.504 40.7395C175.504 42.2596 176.518 42.9351 179.054 44.1174C182.097 45.2997 183.618 46.8198 183.618 49.5222C183.618 51.8868 182.097 53.9136 179.054 54.4203V57.4604H177.025V57.6293Z" fill="white"/>
<path d="M177.363 112.691C177.363 112.691 185.985 86.5113 208.469 94.4495C219.795 98.672 177.363 112.691 177.363 112.691Z" fill="#0D0B2B"/>
<path d="M177.363 112.691C177.363 112.691 165.53 81.9512 147.272 81.9512C128.339 81.9512 177.363 112.691 177.363 112.691Z" fill="#0D0B2B"/>
<path d="M175.166 110.326C170.602 106.441 166.375 102.219 162.825 97.4897C161.98 96.3075 161.135 95.1252 160.29 93.9429C159.444 92.7606 158.768 91.2405 157.247 90.5649C155.894 89.8893 154.204 89.7204 152.682 89.3826C151.161 89.2137 149.639 88.707 148.456 87.6936C149.47 88.8759 151.161 89.2137 152.513 89.5515C154.035 89.8893 155.556 90.0582 156.909 90.7338C158.261 91.4094 158.937 92.7606 159.782 93.9429C160.628 95.1252 161.473 96.4763 162.318 97.6586C164.178 100.023 166.037 102.219 168.235 104.415C170.433 106.61 172.63 108.468 175.166 110.326Z" fill="#635BFE"/>
<path d="M151.668 93.2673C152.851 93.0984 154.204 92.9295 155.387 92.7606C156.063 92.5917 156.57 92.5917 157.247 92.4228C157.754 92.2539 158.599 91.9161 158.599 91.0716C158.43 90.396 158.092 89.8893 157.923 89.3826C157.585 88.8759 157.416 88.3692 157.078 87.8625C156.401 86.8491 155.725 86.0046 154.88 84.9912C155.556 86.0046 156.063 87.018 156.739 88.0314C157.247 89.0448 157.923 90.2271 158.092 91.0716C158.092 91.4094 157.754 91.7472 157.078 91.9161C156.57 92.085 155.894 92.085 155.387 92.2539C154.035 92.5917 152.851 92.9295 151.668 93.2673Z" fill="#635BFE"/>
<path d="M160.966 98.8406C161.642 99.3473 162.318 99.6851 162.994 100.192C163.333 100.361 163.671 100.53 164.009 100.867C164.347 101.036 165.023 101.205 165.53 100.698C166.037 99.854 166.037 99.1784 166.206 98.5028C166.375 97.8272 166.375 96.9827 166.375 96.3071C166.206 96.9827 166.037 97.8272 165.699 98.5028C165.53 99.1784 165.192 100.023 165.023 100.53C164.685 100.867 163.84 100.361 163.163 100.023C162.487 99.5162 161.811 99.1784 160.966 98.8406Z" fill="#635BFE"/>
<path d="M178.716 110.833C183.618 109.65 187.845 106.779 191.902 103.908C195.959 101.037 200.016 97.9965 204.412 95.8008C199.678 97.6587 195.621 100.699 191.564 103.401C187.506 106.441 183.449 109.144 178.716 110.833Z" fill="#635BFE"/>
<path d="M197.987 92.9294C197.48 94.1117 196.973 95.294 196.466 96.4763C196.297 96.983 195.958 97.6586 195.789 98.1653C195.62 98.8409 195.282 99.3476 195.282 100.023C195.282 100.868 196.127 101.374 196.804 101.374C197.48 101.374 197.987 101.205 198.663 101.205C199.847 101.037 201.03 100.868 202.213 100.53C201.03 100.53 199.847 100.53 198.663 100.699C198.156 100.699 197.48 100.868 196.973 100.868C196.466 100.868 195.958 100.53 195.958 100.023C195.958 99.5165 196.127 98.8409 196.466 98.3342C196.635 97.6586 196.804 97.1519 196.973 96.4763C197.311 95.4629 197.649 94.2806 197.987 92.9294Z" fill="#635BFE"/>
<path d="M191.225 100.53C190.887 101.375 190.549 102.05 190.21 102.895C190.041 103.232 189.872 103.739 189.703 104.077C189.534 104.415 189.365 104.921 189.365 105.428C189.365 106.104 190.041 106.441 190.549 106.441C191.056 106.441 191.394 106.441 191.732 106.273C192.577 106.104 193.422 105.935 194.099 105.766C193.253 105.766 192.408 105.766 191.563 105.766C191.225 105.766 190.718 105.766 190.38 105.766C190.041 105.766 189.703 105.597 189.703 105.259C189.703 104.584 190.21 103.739 190.38 102.895C190.718 102.219 191.056 101.375 191.225 100.53Z" fill="#635BFE"/>
<path d="M176.688 237C207.405 237 232.306 235.336 232.306 233.284C232.306 231.232 207.405 229.568 176.688 229.568C145.971 229.568 121.07 231.232 121.07 233.284C121.07 235.336 145.971 237 176.688 237Z" fill="#333067"/>
<path d="M190.38 156.773C190.55 156.435 202.383 136.843 202.383 136.843C202.89 135.323 201.2 133.803 199.171 134.141C194.945 134.816 188.183 136.168 185.478 135.661C184.633 135.492 184.633 135.154 183.28 134.985C181.928 134.648 180.745 134.31 179.561 134.648C178.04 134.985 176.856 136.337 176.856 136.337C174.321 138.532 172.461 138.87 171.278 138.87C167.39 138.701 159.951 134.141 156.063 133.972C155.556 133.972 155.049 133.972 154.542 134.31C153.189 134.985 153.189 136.674 153.358 137.519L162.994 156.604C162.994 156.773 163.163 156.942 163.163 156.942C150.484 169.272 133.072 192.918 133.072 206.598C133.072 219.097 140.849 234.129 176.687 234.129C212.526 234.129 220.302 219.097 220.302 206.598C220.133 193.424 203.059 169.103 190.38 156.773Z" fill="#FFAF30"/>
<path d="M155.555 134.14C155.386 134.14 155.048 134.14 154.879 134.309C155.048 134.309 155.217 134.14 155.555 134.14Z" fill="#0D0B2B"/>
<path d="M190.379 156.773C190.548 156.435 202.382 136.843 202.382 136.843C202.889 135.323 201.198 133.803 199.17 134.141C195.113 134.816 188.351 135.999 185.815 135.661C183.448 141.91 179.053 153.733 178.884 153.902C192.746 167.414 211.68 194.269 211.68 208.794C211.68 216.395 208.975 225.008 199.846 231.089C216.075 226.022 220.132 215.55 220.132 206.598C220.132 193.424 203.058 169.103 190.379 156.773Z" fill="#0D0B2B"/>
<path d="M191.058 157.449C190.889 157.28 190.72 157.111 190.551 156.942C190.551 156.942 190.889 156.605 191.565 155.422H162.657L163.333 156.774C163.333 156.942 163.502 157.111 163.502 157.111C163.333 157.28 163.333 157.28 163.164 157.449H191.058Z" fill="#F9DD76"/>
<path d="M194.946 161.503C194.27 160.827 193.594 160.152 192.918 159.476H160.967C160.291 160.152 159.615 160.827 158.77 161.503H194.946Z" fill="#F9DD76"/>
<path d="M163.164 156.773C163.164 156.942 163.164 156.942 163.333 157.111C163.164 157.28 163.164 157.28 162.995 157.449H191.058C190.888 157.28 190.719 157.111 190.55 156.942H163.164V156.773Z" fill="#FBAB1F"/>
<path d="M194.438 160.827H159.445C159.276 160.996 159.107 161.165 158.769 161.503H194.945C194.776 161.165 194.607 160.996 194.438 160.827Z" fill="#FBAB1F"/>
<path d="M179.391 194.1C179.222 194.1 179.222 194.1 179.391 194.1C179.053 193.931 178.546 193.593 178.039 193.255C174.827 191.06 173.136 189.371 173.136 188.02C173.136 187.175 173.474 186.499 173.982 185.993C174.489 185.486 175.334 185.148 176.179 185.148C177.532 185.148 178.377 185.486 179.053 186.331C179.729 187.006 179.898 188.188 179.898 189.877V190.553H186.66V189.877C186.66 186.499 185.815 183.966 184.125 182.277C183.11 181.095 181.589 180.419 179.729 180.081V175.69H173.136V180.081C171.277 180.419 169.924 181.095 168.741 182.108C166.881 183.628 166.036 185.824 166.036 188.695C166.036 190.891 166.543 192.749 167.558 194.269C168.572 195.789 171.108 197.816 175.165 200.518C175.334 200.687 175.672 200.856 176.01 201.025C178.546 202.714 179.898 204.065 179.898 205.416C179.898 206.43 179.56 207.105 179.053 207.781C178.377 208.287 177.532 208.625 176.517 208.625C175.165 208.625 174.151 208.287 173.643 207.443C173.136 206.598 172.798 205.247 172.798 203.052V202.545H166.036C166.036 202.714 166.036 202.883 166.036 203.22C166.036 203.558 166.036 203.727 166.036 203.896C166.036 207.443 166.881 210.145 168.572 211.834C169.755 213.017 171.277 213.692 173.305 214.03V218.252H179.898V213.861C181.758 213.523 183.279 212.848 184.463 211.834C186.322 210.314 187.167 207.95 187.167 205.078C187.167 201.194 184.632 197.647 179.391 194.1Z" fill="#0D0B2B"/>
<path d="M317 108.636V162.684C317 165.724 314.972 168.089 312.436 168.089H233.489C230.953 168.089 228.925 165.724 228.925 162.684V108.636C228.925 105.596 230.953 103.232 233.489 103.232H312.436C314.972 103.232 317 105.596 317 108.636Z" fill="white"/>
<path d="M254.619 142.754H244.814V159.644H254.619V142.754Z" fill="#0D0B2B"/>
<path d="M270.172 131.776H260.367V159.476H270.172V131.776Z" fill="#635BFE"/>
<path d="M285.556 120.46H275.751V159.475H285.556V120.46Z" fill="#9D80F8"/>
<path d="M301.109 111.846H291.304V159.475H301.109V111.846Z" fill="#FFAF30"/>
<path d="M237.884 109.144C237.884 110.157 237.039 111.001 236.025 111.001C235.01 111.001 234.165 110.157 234.165 109.144C234.165 108.13 235.01 107.286 236.025 107.286C237.039 107.286 237.884 108.13 237.884 109.144Z" fill="#0D0B2B"/>
<path d="M244.815 109.144C244.815 110.157 243.97 111.001 242.955 111.001C241.941 111.001 241.096 110.157 241.096 109.144C241.096 108.13 241.941 107.286 242.955 107.286C243.97 107.286 244.815 108.13 244.815 109.144Z" fill="#0D0B2B"/>
<path d="M251.578 109.144C251.578 110.157 250.732 111.001 249.718 111.001C248.704 111.001 247.858 110.157 247.858 109.144C247.858 108.13 248.704 107.286 249.718 107.286C250.732 107.286 251.578 108.13 251.578 109.144Z" fill="#0D0B2B"/>
<path d="M59.8739 185.655H121.577C123.268 185.655 124.451 187.175 124.451 189.033V201.531L129.016 203.727L124.451 205.922V209.132C124.451 210.989 123.099 212.509 121.577 212.509H59.8739C58.1834 212.509 57 210.989 57 209.132V189.033C57 187.175 58.3524 185.655 59.8739 185.655Z" fill="white"/>
<path d="M112.618 191.059H64.4385V193.423H112.618V191.059Z" fill="#9D80F8"/>
<path d="M93.8533 195.62H64.4385V197.984H93.8533V195.62Z" fill="#9D80F8"/>
<path d="M106.194 200.18H64.4385V202.544H106.194V200.18Z" fill="#9D80F8"/>
<path d="M85.7389 204.909H64.4385V207.274H85.7389V204.909Z" fill="#9D80F8"/>
<path d="M290.458 181.432V216.732C290.458 218.759 289.106 220.279 287.415 220.279H235.685C233.995 220.279 232.643 218.759 232.643 216.732V181.432C232.643 179.406 233.995 177.885 235.685 177.885H287.415C289.106 177.885 290.458 179.406 290.458 181.432Z" fill="#0D0B2B"/>
<path d="M238.729 181.77C238.729 182.445 238.222 182.952 237.546 182.952C236.869 182.952 236.362 182.445 236.362 181.77C236.362 181.094 236.869 180.587 237.546 180.587C238.053 180.587 238.729 181.094 238.729 181.77Z" fill="#9D80F8"/>
<path d="M241.941 182.952C242.595 182.952 243.125 182.423 243.125 181.77C243.125 181.117 242.595 180.587 241.941 180.587C241.288 180.587 240.758 181.117 240.758 181.77C240.758 182.423 241.288 182.952 241.941 182.952Z" fill="#9D80F8"/>
<path d="M246.337 182.952C246.99 182.952 247.52 182.423 247.52 181.77C247.52 181.117 246.99 180.587 246.337 180.587C245.683 180.587 245.153 181.117 245.153 181.77C245.153 182.423 245.683 182.952 246.337 182.952Z" fill="#9D80F8"/>
<path d="M272.878 186.668V189.877H279.64L269.159 200.349L263.242 194.606L253.606 204.402L248.366 199.166L238.392 209.3L240.589 211.665L248.366 203.896L253.606 208.963L263.242 199.166L269.159 205.078L281.669 192.579V198.66H284.881V186.668H272.878Z" fill="#FFAF30"/>
<path d="M81.5122 105.259C81.5122 109.313 78.1312 112.69 74.074 112.69C70.0168 112.69 66.6357 109.313 66.6357 105.259C66.6357 101.205 70.0168 97.8274 74.074 97.8274C78.3002 97.8274 81.5122 101.205 81.5122 105.259Z" fill="#0D0B2B"/>
<path d="M76.9479 106.779C76.9479 105.765 76.4408 105.09 75.4265 104.752L74.4122 104.414C73.736 104.076 73.2288 103.907 73.2288 103.57C73.2288 103.063 73.5669 102.894 74.2431 102.894C74.9193 102.894 75.2574 103.063 75.7646 103.57L76.6098 102.556C76.1027 102.05 75.4265 101.712 74.7503 101.543V100.361H73.2288V101.543C72.2145 101.881 71.5383 102.725 71.5383 103.739C71.5383 104.921 72.2145 105.428 73.0598 105.765L74.0741 106.103C74.7503 106.441 75.0884 106.61 75.0884 106.948C75.0884 107.454 74.7503 107.623 74.0741 107.623C73.3978 107.623 72.7216 107.285 72.2145 106.779L71.2002 107.961C71.7073 108.468 72.5526 108.806 73.2288 108.974V110.157H74.7503V108.974C76.2717 108.806 76.9479 107.961 76.9479 106.779Z" fill="#FFAF30"/>
<path d="M109.574 104.414C109.574 106.948 107.545 108.974 105.01 108.974C102.474 108.974 100.445 106.948 100.445 104.414C100.445 101.881 102.474 99.8539 105.01 99.8539C107.545 99.685 109.574 101.881 109.574 104.414Z" fill="white"/>
<path d="M106.7 105.259C106.7 104.583 106.362 104.245 105.686 103.908L105.01 103.739C104.672 103.57 104.334 103.401 104.334 103.232C104.334 102.894 104.503 102.894 105.01 102.894C105.348 102.894 105.686 103.063 106.024 103.232L106.531 102.556C106.193 102.219 105.855 102.05 105.348 102.05V101.374H104.334V102.05C103.658 102.219 103.319 102.725 103.319 103.401C103.319 104.076 103.827 104.414 104.334 104.752L105.01 105.09C105.348 105.259 105.686 105.428 105.686 105.596C105.686 105.934 105.517 106.103 105.01 106.103C104.672 106.103 104.165 105.934 103.827 105.596L103.15 106.272C103.488 106.61 103.996 106.779 104.503 106.948V107.623H105.517V106.779C106.362 106.61 106.7 105.934 106.7 105.259Z" fill="#635BFE"/>
<path d="M88.9499 157.449C88.9499 163.022 84.5546 167.414 78.9759 167.414C73.3973 167.414 69.002 163.022 69.002 157.449C69.002 151.875 73.3973 147.484 78.9759 147.484C84.5546 147.484 88.9499 151.875 88.9499 157.449Z" fill="white"/>
<path d="M82.864 159.475C82.864 157.955 82.0188 157.28 80.8354 156.773L79.483 156.266C78.6377 155.928 77.9615 155.76 77.9615 155.084C77.9615 154.577 78.4687 154.24 79.3139 154.24C80.1592 154.24 80.8354 154.577 81.5116 155.084L82.695 153.564C82.0188 152.888 81.1735 152.382 80.1592 152.382V150.693H78.1306V152.213C76.7782 152.551 75.7639 153.733 75.7639 155.084C75.7639 156.604 76.7782 157.449 77.7925 157.786L79.1449 158.293C79.9901 158.631 80.6664 158.8 80.6664 159.475C80.6664 160.151 80.1592 160.489 79.3139 160.489C78.4687 160.489 77.4544 159.982 76.7782 159.475L75.4258 160.995C76.271 161.671 77.2853 162.178 78.2996 162.347V163.867H80.3282V162.516C81.8497 162.178 82.864 160.827 82.864 159.475Z" fill="#0D0B2B"/>
<path d="M122.76 139.039C122.76 141.91 120.394 144.106 117.689 144.106C114.815 144.106 112.617 141.741 112.617 139.039C112.617 136.167 114.984 133.972 117.689 133.972C120.394 133.972 122.76 136.336 122.76 139.039Z" fill="#FFAF30"/>
<path d="M119.547 140.221C119.547 139.546 119.209 139.039 118.533 138.87L117.857 138.532C117.35 138.363 117.012 138.194 117.012 137.857C117.012 137.519 117.35 137.35 117.688 137.35C118.026 137.35 118.364 137.519 118.702 137.688L119.378 137.012C119.04 136.674 118.533 136.505 118.026 136.336V135.492H117.012V136.336C116.335 136.505 115.828 137.181 115.828 137.857C115.828 138.532 116.335 139.039 116.843 139.208L117.519 139.546C118.026 139.714 118.195 139.883 118.195 140.221C118.195 140.559 118.026 140.728 117.519 140.728C117.012 140.728 116.674 140.559 116.166 140.221L115.49 141.066C115.828 141.403 116.335 141.741 116.843 141.741V142.586H117.857V141.741C119.04 141.572 119.547 140.897 119.547 140.221Z" fill="#0D0B2B"/>
<path d="M117.689 41.4146C117.689 43.948 115.998 45.9748 113.97 45.9748C115.998 45.9748 117.689 48.0016 117.689 50.5351C117.689 48.0016 119.379 45.9748 121.408 45.9748C119.379 45.9748 117.689 43.948 117.689 41.4146Z" fill="white"/>
<path d="M128.169 38.0369C128.169 40.5703 126.479 42.5971 124.45 42.5971C126.479 42.5971 128.169 44.6239 128.169 47.1574C128.169 44.6239 129.86 42.5971 131.888 42.5971C129.86 42.5971 128.169 40.5703 128.169 38.0369Z" fill="white"/>
<path d="M123.267 49.522C123.267 50.7043 122.422 51.7177 121.407 51.7177C122.422 51.7177 123.267 52.7311 123.267 53.9133C123.267 52.7311 124.112 51.7177 125.126 51.7177C123.943 51.7177 123.267 50.7043 123.267 49.522Z" fill="white"/>
<path d="M121.239 34.6594C121.239 36.1795 120.224 37.3618 118.872 37.3618C120.055 37.3618 121.239 38.5441 121.239 40.0642C121.239 38.5441 122.253 37.3618 123.605 37.3618C122.253 37.5307 121.239 36.1795 121.239 34.6594Z" fill="white"/>
<path d="M203.567 120.122C203.567 121.979 202.384 123.5 200.862 123.5C202.384 123.5 203.567 125.02 203.567 126.878C203.567 125.02 204.75 123.5 206.272 123.5C204.75 123.5 203.567 121.979 203.567 120.122Z" fill="white"/>
<path d="M211.174 117.757C211.174 119.615 209.99 121.135 208.469 121.135C209.99 121.135 211.174 122.655 211.174 124.513C211.174 122.655 212.357 121.135 213.878 121.135C212.526 121.135 211.174 119.615 211.174 117.757Z" fill="white"/>
<path d="M207.625 126.033C207.625 126.877 207.118 127.553 206.272 127.553C206.949 127.553 207.625 128.229 207.625 129.073C207.625 128.229 208.132 127.553 208.977 127.553C208.132 127.553 207.625 126.877 207.625 126.033Z" fill="white"/>
<path d="M206.273 115.223C206.273 116.406 205.596 117.25 204.582 117.25C205.427 117.25 206.273 118.095 206.273 119.277C206.273 118.095 206.949 117.25 207.963 117.25C206.949 117.25 206.273 116.406 206.273 115.223Z" fill="white"/>
<path d="M148.287 121.98C148.287 123.5 147.272 124.682 146.089 124.682C147.272 124.682 148.287 125.865 148.287 127.385C148.287 125.865 149.301 124.682 150.484 124.682C149.301 124.513 148.287 123.331 148.287 121.98Z" fill="white"/>
<path d="M154.372 119.953C154.372 121.473 153.358 122.655 152.175 122.655C153.358 122.655 154.372 123.838 154.372 125.358C154.372 123.838 155.387 122.655 156.57 122.655C155.387 122.655 154.372 121.473 154.372 119.953Z" fill="white"/>
<path d="M151.499 126.54C151.499 127.216 150.992 127.722 150.484 127.722C150.992 127.722 151.499 128.229 151.499 128.905C151.499 128.229 152.006 127.722 152.513 127.722C152.006 127.722 151.499 127.216 151.499 126.54Z" fill="white"/>
<path d="M150.315 118.095C150.315 118.94 149.639 119.615 148.963 119.615C149.639 119.615 150.315 120.291 150.315 121.135C150.315 120.291 150.991 119.615 151.668 119.615C150.991 119.615 150.315 118.94 150.315 118.095Z" fill="white"/>
</svg>
