<svg width="30" height="30" viewBox="0 0 30 30" fill="white" xmlns="http://www.w3.org/2000/svg">
<path fill-rule="evenodd" clip-rule="evenodd" d="M9.69838 2.5L10 2.5C10.6904 2.5 11.25 3.05965 11.25 3.75C11.25 4.44036 10.6904 5 10 5H9.75C8.67928 5 7.95141 5.00097 7.3888 5.04694C6.84078 5.09172 6.56053 5.17287 6.36503 5.27249C5.89462 5.51217 5.51217 5.89462 5.27249 6.36503C5.17287 6.56052 5.09172 6.84078 5.04694 7.3888C5.00097 7.95141 5 8.67928 5 9.75V10C5 10.6904 4.44036 11.25 3.75 11.25C3.05965 11.25 2.5 10.6904 2.5 10L2.5 9.69838C2.49998 8.69216 2.49997 7.86171 2.55524 7.18522C2.61265 6.4826 2.73586 5.83672 3.04497 5.23005C3.52434 4.28924 4.28924 3.52434 5.23005 3.04497C5.83672 2.73586 6.4826 2.61265 7.18522 2.55524C7.86171 2.49997 8.69217 2.49998 9.69838 2.5ZM22.6112 5.04694C22.0486 5.00097 21.3207 5 20.25 5H20C19.3096 5 18.75 4.44036 18.75 3.75C18.75 3.05965 19.3096 2.5 20 2.5L20.3016 2.5C21.3078 2.49998 22.1383 2.49997 22.8148 2.55524C23.5174 2.61265 24.1633 2.73586 24.77 3.04497C25.7108 3.52434 26.4757 4.28924 26.955 5.23005C27.2642 5.83672 27.3874 6.4826 27.4448 7.18522C27.5 7.86171 27.5 8.69215 27.5 9.69835V10C27.5 10.6904 26.9404 11.25 26.25 11.25C25.5596 11.25 25 10.6904 25 10V9.75C25 8.67928 24.999 7.95141 24.9531 7.3888C24.9083 6.84078 24.8271 6.56053 24.7275 6.36503C24.4878 5.89462 24.1054 5.51217 23.635 5.27249C23.4395 5.17287 23.1592 5.09172 22.6112 5.04694ZM2.5 15C2.5 14.3096 3.05965 13.75 3.75 13.75H3.7625C4.45286 13.75 5.0125 14.3096 5.0125 15C5.0125 15.6904 4.45286 16.25 3.7625 16.25H3.75C3.05965 16.25 2.5 15.6904 2.5 15ZM8.125 15C8.125 14.3096 8.68465 13.75 9.375 13.75H9.3875C10.0779 13.75 10.6375 14.3096 10.6375 15C10.6375 15.6904 10.0779 16.25 9.3875 16.25H9.375C8.68465 16.25 8.125 15.6904 8.125 15ZM13.75 15C13.75 14.3096 14.3096 13.75 15 13.75H15.0125C15.7029 13.75 16.2625 14.3096 16.2625 15C16.2625 15.6904 15.7029 16.25 15.0125 16.25H15C14.3096 16.25 13.75 15.6904 13.75 15ZM19.375 15C19.375 14.3096 19.9346 13.75 20.625 13.75H20.6375C21.3279 13.75 21.8875 14.3096 21.8875 15C21.8875 15.6904 21.3279 16.25 20.6375 16.25H20.625C19.9346 16.25 19.375 15.6904 19.375 15ZM25 15C25 14.3096 25.5596 13.75 26.25 13.75H26.2625C26.9529 13.75 27.5125 14.3096 27.5125 15C27.5125 15.6904 26.9529 16.25 26.2625 16.25H26.25C25.5596 16.25 25 15.6904 25 15ZM3.75 18.75C4.44036 18.75 5 19.3096 5 20V20.25C5 21.3207 5.00097 22.0486 5.04694 22.6112C5.09172 23.1592 5.17287 23.4395 5.27249 23.635C5.51217 24.1054 5.89462 24.4878 6.36503 24.7275C6.56053 24.8271 6.84078 24.9083 7.3888 24.9531C7.95141 24.999 8.67928 25 9.75 25H10C10.6904 25 11.25 25.5596 11.25 26.25C11.25 26.9404 10.6904 27.5 10 27.5H9.69835C8.69215 27.5 7.86171 27.5 7.18522 27.4448C6.4826 27.3874 5.83672 27.2641 5.23005 26.955C4.28924 26.4757 3.52434 25.7108 3.04497 24.77C2.73586 24.1633 2.61265 23.5174 2.55524 22.8148C2.49997 22.1383 2.49998 21.3078 2.5 20.3016L2.5 20C2.5 19.3096 3.05965 18.75 3.75 18.75ZM26.25 18.75C26.9404 18.75 27.5 19.3096 27.5 20V20.3017C27.5 21.3079 27.5 22.1383 27.4448 22.8148C27.3874 23.5174 27.2642 24.1633 26.955 24.77C26.4757 25.7108 25.7108 26.4757 24.77 26.955C24.1633 27.2641 23.5174 27.3874 22.8148 27.4448C22.1383 27.5 21.3079 27.5 20.3017 27.5H20C19.3096 27.5 18.75 26.9404 18.75 26.25C18.75 25.5596 19.3096 25 20 25H20.25C21.3207 25 22.0486 24.999 22.6112 24.9531C23.1592 24.9083 23.4395 24.8271 23.635 24.7275C24.1054 24.4878 24.4878 24.1054 24.7275 23.635C24.8271 23.4395 24.9083 23.1592 24.9531 22.6112C24.999 22.0486 25 21.3207 25 20.25V20C25 19.3096 25.5596 18.75 26.25 18.75Z" />
</svg>
