<svg width="48" height="41" viewBox="0 0 48 41" fill="#000000" xmlns="http://www.w3.org/2000/svg">
<path fill-rule="evenodd" clip-rule="evenodd" d="M23.4068 4.53618H6.5C5.05013 4.53618 3.875 5.71131 3.875 7.16118V7.22156C2.804 7.34931 1.81175 7.86993 1.09513 8.69243C0.263877 9.64706 -0.112373 10.9141 0.0608768 12.1671L3.46375 36.6671C3.76475 38.8301 5.61363 40.4401 7.79763 40.4401H40.2024C40.6854 40.4401 41.0774 40.0481 41.0774 39.5651C41.0774 39.0821 40.6854 38.6901 40.2024 38.6901H7.79763C6.48688 38.6901 5.37738 37.7241 5.19713 36.4264L1.79425 11.9264C1.69013 11.1748 1.91675 10.4144 2.41463 9.84131C2.91338 9.26906 3.63525 8.94006 4.39475 8.94006H43.6053C44.3647 8.94006 45.0866 9.26906 45.5854 9.84131C46.0833 10.4144 46.3099 11.1748 46.2058 11.9264L43.6534 30.3014C43.5869 30.7792 43.9211 31.2219 44.3998 31.2884C44.8784 31.3549 45.3203 31.0198 45.3868 30.5421C46.232 24.4538 47.3013 16.7582 47.9391 12.1671C48.1124 10.9141 47.7361 9.64706 46.9049 8.69243C46.1883 7.86993 45.196 7.34931 44.125 7.22156V3.06006C44.125 1.61018 42.9499 0.435059 41.5 0.435059C37.7996 0.435059 31.1286 0.435059 27.7809 0.435059C26.5253 0.435059 25.365 1.10793 24.742 2.19818L23.4068 4.53618ZM37.1066 30.8159L44.3849 38.0942C44.8976 38.6069 45.7289 38.6069 46.2416 38.0942C46.7535 37.5823 46.7535 36.7502 46.2416 36.2383L38.9205 28.9172C39.9933 27.4139 40.625 25.5738 40.625 23.5876C40.625 18.5169 36.5081 14.4001 31.4375 14.4001C26.3669 14.4001 22.25 18.5169 22.25 23.5876C22.25 28.6582 26.3669 32.7751 31.4375 32.7751C33.576 32.7751 35.5448 32.0427 37.1066 30.8159ZM20.0634 30.8378C20.0634 29.8718 19.2803 29.0878 18.3134 29.0878C16.3718 29.0878 13.2559 29.0878 11.3134 29.0878C10.3474 29.0878 9.56338 29.8718 9.56338 30.8378V32.5878C9.56338 33.5547 10.3474 34.3378 11.3134 34.3378H18.3134C19.2803 34.3378 20.0634 33.5547 20.0634 32.5878C20.0634 32.0252 20.0634 31.4013 20.0634 30.8378ZM36.215 28.0842C37.3219 26.9099 38 25.3271 38 23.5876C38 19.9659 35.0591 17.0251 31.4375 17.0251C27.8159 17.0251 24.875 19.9659 24.875 23.5876C24.875 27.2092 27.8159 30.1501 31.4375 30.1501C33.303 30.1501 34.9883 29.3696 36.1835 28.1183L36.215 28.0842Z"/>
</svg>
