<svg width="16" height="16" viewBox="0 0 16 16" fill="none" xmlns="http://www.w3.org/2000/svg">
<path fill-rule="evenodd" clip-rule="evenodd" d="M7.25 2C4.3505 2 2 4.3505 2 7.25C2 10.1495 4.3505 12.5 7.25 12.5C8.66446 12.5 9.94827 11.9406 10.8923 11.031C10.912 11.0054 10.9337 10.9807 10.9572 10.9572C10.9807 10.9337 11.0054 10.912 11.031 10.8923C11.9406 9.94827 12.5 8.66446 12.5 7.25C12.5 4.3505 10.1495 2 7.25 2ZM12.5239 11.4633C13.4476 10.3085 14 8.84376 14 7.25C14 3.52208 10.9779 0.5 7.25 0.5C3.52208 0.5 0.5 3.52208 0.5 7.25C0.5 10.9779 3.52208 14 7.25 14C8.84376 14 10.3085 13.4476 11.4633 12.5239L14.2197 15.2803C14.5126 15.5732 14.9874 15.5732 15.2803 15.2803C15.5732 14.9874 15.5732 14.5126 15.2803 14.2197L12.5239 11.4633Z" fill="#6A6B87"/>
</svg>
