<svg width="62" height="27" viewBox="0 0 62 27" fill="none" xmlns="http://www.w3.org/2000/svg">
<path d="M4.34844 10.7643C4.34844 10.0906 4.89844 9.83153 5.80937 9.83153C7.11562 9.83153 8.76562 10.2288 10.0719 10.937V6.87784C8.64531 6.30783 7.23594 6.08328 5.80937 6.08328C2.32031 6.08328 0 7.91422 0 10.9715C0 15.7389 6.53125 14.9789 6.53125 17.0344C6.53125 17.8289 5.84375 18.088 4.88125 18.088C3.45469 18.088 1.63281 17.5008 0.189062 16.7062V20.8172C1.7875 21.5081 3.40313 21.8017 4.88125 21.8017C8.45625 21.8017 10.9141 20.0226 10.9141 16.9307C10.8969 11.7834 4.34844 12.6988 4.34844 10.7643ZM15.9672 2.62867L11.7734 3.52687L11.7563 17.3626C11.7563 19.919 13.6641 21.8017 16.2078 21.8017C17.6172 21.8017 18.6484 21.5426 19.2156 21.2317V17.7253C18.6656 17.9499 15.95 18.7444 15.95 16.188V10.0561H19.2156V6.37692H15.95L15.9672 2.62867ZM24.5609 7.65512L24.2859 6.37692H20.5734V21.4908H24.8703V11.2479C25.8844 9.91789 27.6031 10.1597 28.1359 10.3497V6.37692C27.5859 6.16964 25.575 5.78964 24.5609 7.65512ZM29.1844 6.37692H33.4984V21.4908H29.1844V6.37692ZM29.1844 5.06417L33.4984 4.13143V0.625L29.1844 1.54047V5.06417ZM42.4703 6.08328C40.7859 6.08328 39.7031 6.87784 39.1016 7.43057L38.8781 6.35965H35.0969V26.5L39.3937 25.5845L39.4109 20.6963C40.0297 21.1454 40.9406 21.7845 42.4531 21.7845C45.5297 21.7845 48.3312 19.2971 48.3312 13.8216C48.3141 8.81242 45.4781 6.08328 42.4703 6.08328ZM41.4391 17.9844C40.425 17.9844 39.8234 17.6217 39.4109 17.1726L39.3937 10.7643C39.8406 10.2634 40.4594 9.91789 41.4391 9.91789C43.0031 9.91789 44.0859 11.6797 44.0859 13.9425C44.0859 16.2571 43.0203 17.9844 41.4391 17.9844ZM61.875 13.9943C61.875 9.57243 59.7438 6.08328 55.6703 6.08328C51.5797 6.08328 49.1047 9.57243 49.1047 13.9598C49.1047 19.159 52.0266 21.7845 56.2203 21.7845C58.2656 21.7845 59.8125 21.3181 60.9812 20.6617V17.2071C59.8125 17.7944 58.4719 18.1571 56.7703 18.1571C55.1031 18.1571 53.625 17.5698 53.4359 15.5316H61.8406C61.8406 15.3071 61.875 14.4089 61.875 13.9943ZM53.3844 12.3534C53.3844 10.4015 54.5703 9.5897 55.6531 9.5897C56.7016 9.5897 57.8188 10.4015 57.8188 12.3534H53.3844Z" fill="#6772E5"/>
</svg>
