<svg width="33" height="13" viewBox="0 0 33 13" fill="none" xmlns="http://www.w3.org/2000/svg">
<path d="M2.31917 5.09413C2.31917 4.75567 2.6125 4.6255 3.09833 4.6255C3.795 4.6255 4.675 4.8251 5.37167 5.18091V3.14152C4.61083 2.85514 3.85917 2.74232 3.09833 2.74232C1.2375 2.74232 0 3.66222 0 5.19826C0 7.59346 3.48333 7.21162 3.48333 8.24433C3.48333 8.64352 3.11667 8.7737 2.60333 8.7737C1.8425 8.7737 0.870833 8.47864 0.100833 8.07944V10.1449C0.953333 10.492 1.815 10.6395 2.60333 10.6395C4.51 10.6395 5.82083 9.74566 5.82083 8.19226C5.81167 5.60614 2.31917 6.06609 2.31917 5.09413ZM8.51583 1.00668L6.27917 1.45794L6.27 8.40921C6.27 9.69359 7.2875 10.6395 8.64417 10.6395C9.39583 10.6395 9.94583 10.5093 10.2483 10.3531V8.59146C9.955 8.70427 8.50667 9.10347 8.50667 7.81909V4.73832H10.2483V2.88985H8.50667L8.51583 1.00668ZM13.0992 3.53204L12.9525 2.88985H10.9725V10.4833H13.2642V5.33712C13.805 4.66889 14.7217 4.79039 15.0058 4.88585V2.88985C14.7125 2.78571 13.64 2.59479 13.0992 3.53204ZM15.565 2.88985H17.8658V10.4833H15.565V2.88985ZM15.565 2.23031L17.8658 1.76168V0L15.565 0.459947V2.23031ZM22.6508 2.74232C21.7525 2.74232 21.175 3.14152 20.8542 3.41923L20.735 2.88117H18.7183V13L21.01 12.5401L21.0192 10.0841C21.3492 10.3097 21.835 10.6308 22.6417 10.6308C24.2825 10.6308 25.7767 9.38117 25.7767 6.63017C25.7675 4.11348 24.255 2.74232 22.6508 2.74232ZM22.1008 8.72163C21.56 8.72163 21.2392 8.53939 21.0192 8.31375L21.01 5.09413C21.2483 4.84246 21.5783 4.66889 22.1008 4.66889C22.935 4.66889 23.5125 5.55407 23.5125 6.69092C23.5125 7.8538 22.9442 8.72163 22.1008 8.72163ZM33 6.71696C33 4.49533 31.8633 2.74232 29.6908 2.74232C27.5092 2.74232 26.1892 4.49533 26.1892 6.6996C26.1892 9.31175 27.7475 10.6308 29.9842 10.6308C31.075 10.6308 31.9 10.3965 32.5233 10.0668V8.33111C31.9 8.62617 31.185 8.80841 30.2775 8.80841C29.3883 8.80841 28.6 8.51335 28.4992 7.48932H32.9817C32.9817 7.3765 33 6.92523 33 6.71696ZM28.4717 5.89252C28.4717 4.91188 29.1042 4.50401 29.6817 4.50401C30.2408 4.50401 30.8367 4.91188 30.8367 5.89252H28.4717Z" fill="#6772E5"/>
</svg>
