<svg width="16" height="16" viewBox="0 0 16 16" fill="#000" xmlns="http://www.w3.org/2000/svg">
<path fill-rule="evenodd" clip-rule="evenodd" d="M7.99984 2C4.68613 2 1.99984 4.68629 1.99984 8C1.99984 11.3137 4.68613 14 7.99984 14C11.3135 14 13.9998 11.3137 13.9998 8C13.9998 4.68629 11.3135 2 7.99984 2ZM0.666504 8C0.666504 3.94991 3.94975 0.666666 7.99984 0.666666C12.0499 0.666666 15.3332 3.94991 15.3332 8C15.3332 12.0501 12.0499 15.3333 7.99984 15.3333C3.94975 15.3333 0.666504 12.0501 0.666504 8ZM11.4712 5.52859C11.7316 5.78894 11.7316 6.21105 11.4712 6.4714L7.47124 10.4714C7.21089 10.7318 6.78878 10.7318 6.52843 10.4714L4.52843 8.4714C4.26808 8.21105 4.26808 7.78894 4.52843 7.52859C4.78878 7.26824 5.21089 7.26824 5.47124 7.52859L6.99984 9.05719L10.5284 5.52859C10.7888 5.26825 11.2109 5.26825 11.4712 5.52859Z" fill="#000"/>
</svg>
