<svg width="66" height="66" viewBox="0 0 66 66" fill="none" xmlns="http://www.w3.org/2000/svg">
<path d="M35.5718 0.0773392C43.5511 0.812103 50.8085 4.16367 56.2483 9.60351C61.4046 14.7727 64.6273 21.2695 65.7616 28.8105C66.0452 30.7312 65.9679 35.7715 65.6327 37.8984C64.0858 47.4375 58.9683 55.4039 51.0405 60.6246C47.9597 62.6484 43.4737 64.5176 39.8901 65.2781C34.2569 66.4641 28.3917 66.1676 22.9648 64.4273C20.1417 63.525 16.6483 61.875 15.1144 60.7148C12.8327 59.0004 13.8124 55.3523 16.6483 54.9656C17.4347 54.8625 18.1952 55.0945 19.4327 55.8422C24.9628 59.168 31.8593 60.341 38.3433 59.0262C44.0409 57.8789 49.571 54.5789 53.3351 50.0801C56.4288 46.3934 58.3753 42.1008 59.239 37.0605C59.5612 35.243 59.5612 30.7312 59.2519 28.9394C57.589 19.3875 51.453 11.7691 42.623 8.31445C35.6878 5.60741 28.1081 5.91679 21.3276 9.2039C13.6319 12.9422 8.39834 19.9031 6.7999 28.5656C6.55498 29.8934 6.51631 30.5766 6.50342 33.709C6.49053 36.0422 6.43896 37.4344 6.34873 37.6535C6.1167 38.1949 5.42061 38.9168 4.84053 39.2262C4.10577 39.6129 2.71358 39.6129 1.97881 39.2262C1.19248 38.8137 0.547954 38.0273 0.290141 37.1637C0.109673 36.5449 0.0709961 35.8746 0.0581055 33.2578C0.0581055 29.8418 0.16123 28.7461 0.76709 25.9488C3.43545 13.6125 13.0261 3.8414 25.3237 0.902336C27.8632 0.296478 29.3585 0.116013 32.2847 0.0644455C33.7671 0.0515594 35.2495 0.0515594 35.5718 0.0773392Z" fill="#635BFE"/>
<path d="M44.7305 21.102C44.2277 21.2695 43.016 22.4297 36.1324 29.3004L28.1016 37.3055L25.0465 34.2633C21.7594 30.9891 21.3469 30.6926 20.1867 30.6797C19.2715 30.6797 18.627 30.9117 17.9566 31.5047C17.1961 32.1621 16.8867 32.8453 16.8867 33.8379C16.8867 35.243 17.0414 35.4363 21.8625 40.2445C25.0852 43.4543 26.3871 44.6531 26.8125 44.8465C27.573 45.1945 28.6301 45.1945 29.3906 44.8465C30.2543 44.4598 48.3656 26.3742 48.8039 25.459C49.5645 23.8477 48.8813 21.9527 47.257 21.1922C46.4836 20.8312 45.5941 20.8055 44.7305 21.102Z" fill="#FFAF30"/>
</svg>
