<svg width="60" height="54" viewBox="0 0 60 54" fill="none" xmlns="http://www.w3.org/2000/svg">
<path d="M0.645218 46.1931L26.1211 3.13675C27.8735 0.174956 32.1266 0.174956 33.879 3.13675L59.3549 46.1931C61.1518 49.2301 58.9824 53.0844 55.476 53.0844H4.52412C1.01764 53.0845 -1.15173 49.2302 0.645218 46.1931Z" fill="#FD4755"/>
<path d="M21.1982 53.0845H55.4756C58.9821 53.0845 61.1516 49.2302 59.3545 46.1932L40.7409 14.7343C41.4781 17.8792 41.8337 21.4374 41.4473 25.3186C39.6193 43.681 22.8952 52.2425 21.8117 52.7742C21.6036 52.882 21.3998 52.9845 21.1982 53.0845Z" fill="#FB2B3A"/>
<path d="M4.52327 49.4707C3.78171 49.4451 3.36944 48.7575 3.76132 48.0453L29.2371 4.98901C29.6307 4.37202 30.3782 4.38011 30.7611 4.98901L56.2368 48.0452C56.6303 48.7601 56.2215 49.4447 55.4749 49.4706H4.52327V49.4707Z" fill="#FED402"/>
<path d="M41.5838 23.2806C41.56 23.9496 41.5158 24.6287 41.4472 25.3186C40.2313 37.532 32.4265 45.4079 27.0161 49.4707H55.4747C56.2213 49.4448 56.6302 48.7602 56.2367 48.0453L41.5838 23.2806Z" fill="#F7BC09"/>
<path d="M30 36.2508C29.3545 36.2508 28.8174 35.7548 28.7661 35.1115L27.5757 20.1914C27.4629 18.7765 28.5806 17.5659 30 17.5659C31.4194 17.5659 32.5372 18.7765 32.4242 20.1914L31.2338 35.1115C31.1825 35.7548 30.6455 36.2508 30 36.2508Z" fill="#554E56"/>
<path d="M30.0001 43.6775C31.0736 43.6775 31.944 42.8072 31.944 41.7336C31.944 40.66 31.0736 39.7897 30.0001 39.7897C28.9265 39.7897 28.0562 40.66 28.0562 41.7336C28.0562 42.8072 28.9265 43.6775 30.0001 43.6775Z" fill="#554E56"/>
</svg>
