<svg width="375" height="266" viewBox="0 0 375 266" fill="none" xmlns="http://www.w3.org/2000/svg">
<path opacity="0.5" d="M79.1561 211.008C55.7897 213.497 51.7463 216.335 90.3144 217.462C128.882 218.551 168.306 217.112 196.726 222.672C225.186 228.232 258.816 237.252 279.267 237.018C319.507 236.591 341.707 206.809 312.003 199.811C285.06 193.474 195.988 210.775 174.099 209.648C152.599 208.52 107.693 207.976 79.1561 211.008Z" fill="#4843B6"/>
<path d="M66.754 213.068C44.5151 216.839 38.7221 223.838 75.6573 229.203C119.124 235.501 168.617 227.959 198.437 231.925C228.219 235.89 264.299 238.106 284.36 236.784C323.861 234.141 331.909 207.236 300.456 201.871C271.919 197.011 184.13 214.273 163.135 213.301C141.596 212.291 93.8916 208.48 66.754 213.068Z" fill="#4843B6"/>
<path d="M110.221 49.6606C93.6976 59.8858 85.2609 78.1978 86.8938 96.2766C82.6171 97.0153 78.3793 98.5316 74.4914 100.981C58.201 111.051 53.1856 132.395 63.2553 148.686C72.4696 163.576 91.0927 169.019 106.644 162.177C107.111 163.926 107.811 165.676 108.822 167.309C114.226 176.057 125.695 178.778 134.443 173.335C135.532 172.635 136.542 171.858 137.476 171.002C146.34 180.061 160.57 182.122 171.806 175.162C173.75 173.957 175.499 172.519 177.054 170.963C177.754 174.89 179.154 178.739 181.409 182.316C190.818 197.518 210.724 202.183 225.925 192.813C239.3 184.532 244.549 168.086 239.144 153.895C252.869 137.605 252.946 109.184 237.822 84.7684C223.709 61.9464 200.615 49.4662 180.748 51.9544C180.048 50.5159 179.271 49.0385 178.376 47.6388C168.462 31.6206 151.044 24.3891 139.536 31.5429C135.57 33.9923 132.81 37.8413 131.294 42.4679C123.984 43.2455 116.831 45.5783 110.221 49.6606Z" fill="#4843B6"/>
<path d="M122.857 53.8596C122.74 53.8596 122.662 53.8207 122.584 53.743L119.474 50.6326C119.319 50.4771 119.319 50.2439 119.474 50.0883C119.63 49.9328 119.863 49.9328 120.018 50.0883L122.701 52.771L124.684 48.0666C124.723 47.95 124.839 47.8722 124.956 47.8333C125.073 47.7945 125.228 47.8334 125.306 47.9111L127.716 50.1661L130.282 44.723C130.321 44.6064 130.438 44.5286 130.593 44.4897C130.71 44.4897 130.866 44.5286 130.943 44.6064L133.276 47.3279C133.432 47.4834 133.393 47.7556 133.237 47.8722C133.082 48.0277 132.81 47.9889 132.693 47.8333L130.749 45.5784L128.222 50.9826C128.183 51.0992 128.066 51.177 127.95 51.2158C127.833 51.2547 127.716 51.2158 127.6 51.0992L125.228 48.8442L123.245 53.5875C123.206 53.7041 123.09 53.7819 122.973 53.8207C122.934 53.8596 122.895 53.8596 122.857 53.8596Z" fill="white"/>
<path d="M266.708 75.3607C266.669 75.2829 266.631 75.1663 266.669 75.0496L267.836 70.8118C267.875 70.6174 268.108 70.5008 268.302 70.5397C268.497 70.5786 268.613 70.8118 268.575 71.0062L267.564 74.6997L272.618 74.0777C272.735 74.0777 272.89 74.1166 272.968 74.1943C273.046 74.2721 273.084 74.4276 273.046 74.5442L272.268 77.7323L278.255 77.2658C278.372 77.2658 278.528 77.3046 278.605 77.4213C278.683 77.5379 278.722 77.6545 278.644 77.7712L277.439 81.1537C277.361 81.3481 277.128 81.4647 276.934 81.3869C276.739 81.3092 276.622 81.0759 276.7 80.8815L277.711 78.0822L271.763 78.5488C271.646 78.5488 271.529 78.5099 271.452 78.4321C271.374 78.3544 271.335 78.1989 271.374 78.0822L272.151 74.8941L267.058 75.5162C266.942 75.5162 266.786 75.4773 266.708 75.3996C266.747 75.3996 266.747 75.3607 266.708 75.3607Z" fill="white"/>
<path d="M243.809 91.7277C242.293 91.7277 241.088 90.5225 241.088 89.0062C241.088 87.4899 242.293 86.2847 243.809 86.2847C245.326 86.2847 246.531 87.4899 246.531 89.0062C246.531 90.5225 245.326 91.7277 243.809 91.7277ZM243.809 87.0622C242.721 87.0622 241.865 87.9176 241.865 89.0062C241.865 90.0948 242.721 90.9502 243.809 90.9502C244.898 90.9502 245.753 90.0948 245.753 89.0062C245.753 87.9565 244.898 87.0622 243.809 87.0622Z" fill="white"/>
<path d="M89.6141 97.5983C88.0978 97.5983 86.8926 96.3931 86.8926 94.8768C86.8926 93.3605 88.0978 92.1553 89.6141 92.1553C91.1304 92.1553 92.3357 93.3605 92.3357 94.8768C92.3357 96.3931 91.1304 97.5983 89.6141 97.5983ZM89.6141 92.9329C88.5255 92.9329 87.6702 93.7882 87.6702 94.8768C87.6702 95.9654 88.5255 96.8208 89.6141 96.8208C90.7027 96.8208 91.5581 95.9654 91.5581 94.8768C91.5581 93.8271 90.7027 92.9329 89.6141 92.9329Z" fill="white"/>
<path d="M57.8117 71.316L55.7122 69.9552L57.8117 68.6333C58.0061 68.5167 58.045 68.2834 57.9284 68.089C57.8117 67.8946 57.5784 67.8558 57.3841 67.9724L54.9735 69.4887L52.563 67.9335C52.3686 67.8169 52.1354 67.8558 52.0187 68.0502C51.9021 68.2446 51.941 68.4778 52.1354 68.5945L54.2348 69.9552L52.1354 71.2771C51.941 71.3938 51.9021 71.627 52.0187 71.8214C52.0965 71.9381 52.2131 72.0158 52.3298 72.0158C52.4075 72.0158 52.4853 72.0158 52.5242 71.9381L54.9347 70.4218L57.3452 71.977C57.4229 72.0158 57.5007 72.0547 57.5396 72.0547C57.6562 72.0547 57.7728 71.977 57.8506 71.8603C58.045 71.6659 58.0061 71.4326 57.8117 71.316Z" fill="white"/>
<path d="M209.167 48.8443L207.068 47.4836L209.167 46.1617C209.362 46.045 209.4 45.8118 209.284 45.6174C209.167 45.423 208.934 45.3841 208.74 45.5007L206.329 47.017L203.919 45.4618C203.724 45.3452 203.491 45.3841 203.374 45.5785C203.258 45.7729 203.296 46.0062 203.491 46.1228L205.59 47.4836L203.491 48.8054C203.296 48.9221 203.258 49.1554 203.374 49.3498C203.452 49.4664 203.569 49.5442 203.685 49.5442C203.763 49.5442 203.841 49.5442 203.88 49.4664L206.29 47.9501L208.701 49.5053C208.778 49.5442 208.856 49.583 208.895 49.583C209.012 49.583 209.128 49.5053 209.206 49.3886C209.4 49.1942 209.323 48.961 209.167 48.8443Z" fill="white"/>
<path d="M130.05 89.902C130.011 89.902 129.972 89.902 129.972 89.902C122.43 89.7853 117.142 80.1822 112.049 70.8901C107.811 63.1532 103.768 55.8439 99.4134 56.1938C96.653 56.4271 91.0544 59.4985 80.1294 73.0285C73.5588 81.1931 68.1157 89.3577 68.0768 89.4354L67.1826 89.1244C68.0768 87.8025 89.0327 56.2716 99.3356 55.494C104.468 55.1052 108.433 62.2978 113.021 70.6568C117.764 79.288 123.169 89.1244 130.011 89.2021C130.05 89.2021 130.05 89.2021 130.089 89.2021C133.238 89.2021 136.504 86.053 140.003 79.5601C143.191 73.6894 146.068 65.9913 148.868 58.5265C153.339 46.6295 157.227 36.3655 161.503 35.0047C162.281 34.7714 163.097 34.7714 163.914 35.0436C169.007 36.6376 174.606 47.5626 180.01 58.1378C182.304 62.57 184.442 66.7689 186.347 69.8015C188.991 74.0393 190.196 74.3115 190.585 74.2337C195.095 73.3395 227.948 46.8239 244.666 32.9441L245.404 33.4495C243.422 35.0824 196.767 73.7672 190.857 74.9724C188.019 75.5556 184.675 69.3738 179.077 58.4099C173.984 48.4569 168.229 37.2208 163.525 35.7434C162.942 35.549 162.398 35.549 161.892 35.7045C158.043 36.9098 154.039 47.5238 149.84 58.7598C144.008 74.0393 138.02 89.902 130.05 89.902Z" fill="white"/>
<path d="M238.795 44.3347L237.862 44.0236L244.821 33.1764L233.546 38.775L233.002 38.1529L247.271 31.0769L238.795 44.3347Z" fill="white"/>
<path d="M155.515 98.3374C155.398 98.3374 155.32 98.2985 155.243 98.2208L152.132 95.1104C151.977 94.9549 151.977 94.7216 152.132 94.5661C152.288 94.4106 152.521 94.4106 152.677 94.5661L155.359 97.2488L157.342 92.5444C157.381 92.4278 157.498 92.35 157.614 92.3111C157.731 92.2722 157.886 92.3111 157.964 92.3889L160.375 94.6439L162.941 89.2008C162.98 89.0842 163.096 89.0064 163.252 88.9675C163.368 88.9675 163.524 89.0064 163.602 89.0842L165.934 91.8057C166.09 91.9612 166.051 92.2334 165.895 92.35C165.74 92.5055 165.468 92.4666 165.351 92.3111L163.407 90.0561L160.88 95.4603C160.841 95.577 160.725 95.6547 160.608 95.6936C160.491 95.7325 160.375 95.6936 160.258 95.577L157.886 93.322L155.904 98.0652C155.865 98.1819 155.748 98.2596 155.631 98.2985C155.554 98.3374 155.554 98.3374 155.515 98.3374Z" fill="white"/>
<path d="M129.894 93.6338C129.661 95.3056 129.117 96.8997 128.261 98.2604C127.834 98.9214 127.367 99.5823 126.823 100.127C126.279 100.671 125.695 101.176 125.073 101.643C124.257 102.226 123.363 102.693 122.43 103.043C120.952 103.587 119.319 103.859 117.647 103.742C117.375 103.742 117.142 103.703 116.87 103.665C115.276 103.47 113.837 102.965 112.515 102.187C111.777 101.76 111.116 101.254 110.494 100.71C107.811 98.2604 106.334 94.5669 106.8 90.679C106.956 89.4349 107.306 88.3074 107.811 87.2188C108.511 85.7413 109.522 84.4195 110.727 83.3697C111.466 82.7088 112.321 82.1645 113.215 81.7368C114.576 81.0759 116.131 80.6482 117.725 80.5704C118.425 80.5315 119.125 80.5704 119.825 80.6482C126.24 81.4646 130.711 87.2965 129.894 93.6338Z" fill="#9D80F8" stroke="#2E3433" stroke-width="1.5" stroke-miterlimit="10"/>
<path d="M123.876 99.3975C127.875 96.3552 128.65 90.6474 125.608 86.6489C122.565 82.6504 116.858 81.8753 112.859 84.9176C108.861 87.96 108.085 93.6677 111.128 97.6662C114.17 101.665 119.878 102.44 123.876 99.3975Z" fill="#9D80F8"/>
<path d="M121.688 92.9763C121.338 92.4709 120.832 92.121 120.21 91.8488V91.7322C121.416 91.4211 122.038 90.7602 122.193 89.7105C122.271 89.2439 122.193 88.8162 122.038 88.4275C121.882 88.1164 121.649 87.8443 121.299 87.611C121.144 87.4944 120.988 87.4166 120.794 87.3388L121.066 85.2783L119.783 85.1227L119.549 86.9889C119.277 86.9501 118.966 86.8723 118.655 86.8334H118.577L118.811 85.0061L117.528 84.8506L117.294 86.6779L115.001 86.3669C114.962 86.3669 114.923 86.3669 114.923 86.4446L114.884 86.8334C114.884 86.8723 114.884 86.9112 114.962 86.9112L116.284 87.2222C116.322 87.2222 116.361 87.2611 116.361 87.3L115.195 96.2422C115.195 96.281 115.156 96.3199 115.117 96.3199L113.795 96.281C113.756 96.281 113.718 96.281 113.718 96.3588L113.679 96.7476C113.679 96.7865 113.679 96.8253 113.756 96.8253L116.05 97.1364L115.817 99.1192L117.1 99.2747L117.333 97.2919L117.761 97.3308C117.955 97.3697 118.15 97.3697 118.305 97.3697L118.033 99.3525L119.316 99.508L119.588 97.3308C120.483 97.2141 121.144 96.9031 121.61 96.3977C121.999 95.97 122.232 95.4646 122.31 94.8814C122.31 94.2204 122.115 93.5595 121.688 92.9763ZM118.927 87.611C119.122 87.6499 119.277 87.6888 119.433 87.7276C119.783 87.8443 120.094 87.9998 120.327 88.2331C120.444 88.3497 120.56 88.4663 120.638 88.6219C120.794 88.9329 120.832 89.2828 120.794 89.6716C120.755 90.0993 120.599 90.4492 120.366 90.6825C120.21 90.8768 119.977 91.0324 119.705 91.149C119.511 91.2268 119.238 91.3045 118.966 91.3434C118.694 91.3823 118.344 91.3823 117.994 91.3434C117.917 91.3434 117.839 91.3434 117.761 91.3045L117.294 91.2268C117.256 91.2268 117.217 91.1879 117.217 91.149L117.683 87.4555C117.683 87.4166 117.722 87.3777 117.761 87.3777L118.344 87.4555L118.5 87.4944L118.927 87.611ZM119.627 96.3977C119.277 96.5532 118.811 96.6698 118.305 96.631C118.072 96.631 117.839 96.6309 117.606 96.5921L117.372 96.5532L116.634 96.4754C116.595 96.4754 116.556 96.4366 116.556 96.3977L117.139 91.9655C117.139 91.9266 117.178 91.8877 117.217 91.8877L117.917 91.9655H117.955C118.305 92.0043 118.616 92.0821 118.889 92.1599C119.394 92.3154 119.822 92.5487 120.094 92.8597C120.56 93.3262 120.755 93.9872 120.638 94.8425C120.56 95.6201 120.21 96.1255 119.627 96.3977Z" fill="white"/>
<path d="M146.378 68.948C146.533 69.9589 146.456 70.9308 146.184 71.8251C146.067 72.2916 145.873 72.7193 145.678 73.1081C145.484 73.4969 145.212 73.8856 144.939 74.2356C144.551 74.7021 144.123 75.0909 143.656 75.4408C142.918 75.9851 142.024 76.4128 141.052 76.6072C140.896 76.6461 140.74 76.6849 140.585 76.6849C139.652 76.8405 138.758 76.7627 137.902 76.5683C137.436 76.4517 136.969 76.2573 136.503 76.0629C134.598 75.0909 133.159 73.2247 132.809 70.9697C132.693 70.231 132.693 69.5312 132.809 68.8702C132.965 67.8983 133.315 67.004 133.859 66.2265C134.17 65.721 134.559 65.2934 134.986 64.9046C135.647 64.2825 136.464 63.816 137.358 63.5049C137.747 63.3883 138.136 63.2717 138.563 63.1939C142.335 62.6496 145.795 65.2156 146.378 68.948Z" fill="#FFAF30" stroke="#2E3433" stroke-width="1.5" stroke-miterlimit="10"/>
<path d="M144.903 69.1753C145.33 72.0912 143.308 74.8517 140.393 75.2793C137.477 75.707 134.716 73.6853 134.289 70.7694C133.861 67.8534 135.883 65.093 138.799 64.6653C141.714 64.1988 144.475 66.2205 144.903 69.1753Z" fill="#FFAF30"/>
<path d="M141.596 69.8753C141.324 69.6421 140.974 69.5254 140.585 69.4865V69.4088C141.207 69.0589 141.479 68.5534 141.363 67.9314C141.324 67.6592 141.207 67.4259 141.052 67.2316C140.935 67.076 140.741 66.9594 140.507 66.8816C140.429 66.8428 140.313 66.8039 140.157 66.8039L139.963 65.5986L139.224 65.7153L139.38 66.8039C139.224 66.8039 139.03 66.8428 138.835 66.8816H138.797L138.641 65.793L137.902 65.9097L138.058 66.9983L136.697 67.1927C136.658 67.1927 136.658 67.2316 136.658 67.2316L136.697 67.4648C136.697 67.5037 136.736 67.5037 136.736 67.5037L137.514 67.4648C137.552 67.4648 137.552 67.4648 137.552 67.5037L138.33 72.7524C138.33 72.7913 138.33 72.7913 138.291 72.7913L137.514 72.9857C137.475 72.9857 137.475 73.0245 137.475 73.0245L137.514 73.2578C137.514 73.2967 137.552 73.2967 137.552 73.2967L138.913 73.1023L139.069 74.2687L139.807 74.152L139.652 72.9857L139.885 72.9468C140.002 72.9468 140.118 72.9079 140.196 72.9079L140.352 74.0743L141.09 73.9576L140.896 72.6746C141.401 72.4802 141.712 72.2081 141.907 71.8193C142.062 71.5083 142.101 71.1972 142.062 70.8473C142.14 70.4974 141.946 70.1475 141.596 69.8753ZM139.185 67.2704C139.302 67.2704 139.38 67.2704 139.496 67.2704C139.73 67.2704 139.924 67.3093 140.08 67.4259C140.157 67.4648 140.235 67.5426 140.313 67.6203C140.429 67.7759 140.546 67.9703 140.585 68.2035C140.624 68.4368 140.585 68.6701 140.507 68.8645C140.429 69.02 140.352 69.1366 140.196 69.2533C140.08 69.331 139.963 69.4088 139.807 69.4865C139.652 69.5643 139.458 69.6032 139.263 69.6421C139.224 69.6421 139.185 69.6421 139.108 69.6809L138.835 69.7198C138.797 69.7198 138.797 69.7198 138.797 69.6809L138.486 67.5037C138.486 67.4648 138.486 67.4648 138.524 67.4648L138.874 67.4259H138.952L139.185 67.2704ZM140.974 72.1692C140.818 72.3247 140.546 72.4413 140.274 72.5191C140.157 72.558 140.002 72.5969 139.846 72.5969L139.691 72.6357L139.263 72.7135C139.224 72.7135 139.224 72.7135 139.224 72.6746L138.835 70.0697C138.835 70.0309 138.835 70.0308 138.874 70.0308L139.263 69.9531C139.263 69.9531 139.263 69.9531 139.302 69.9531C139.496 69.9142 139.691 69.9142 139.885 69.9142C140.196 69.9142 140.468 69.992 140.702 70.1086C141.052 70.303 141.246 70.6529 141.324 71.1583C141.363 71.5471 141.246 71.897 140.974 72.1692Z" fill="#2E3433"/>
<path d="M103.727 47.2071C103.339 48.1402 102.756 48.9178 102.056 49.5787C101.706 49.8897 101.317 50.1619 100.928 50.4341C100.539 50.6673 100.112 50.8617 99.7229 51.0172C99.1786 51.2116 98.5955 51.3283 98.0123 51.406C97.0792 51.4838 96.1072 51.3671 95.1741 51.0561C95.0186 51.0172 94.9019 50.9395 94.7464 50.9006C93.8911 50.5507 93.1135 50.0064 92.5303 49.3843C92.1804 49.0344 91.8694 48.6456 91.5972 48.2179C90.4697 46.3906 90.1976 44.0579 91.0918 41.9195C91.3639 41.2586 91.7527 40.6365 92.2193 40.1311C92.8413 39.3924 93.6189 38.8092 94.4743 38.4204C95.0186 38.1871 95.5629 37.9927 96.1461 37.8761C97.0403 37.7206 97.9734 37.7206 98.8676 37.915C99.2564 37.9927 99.6452 38.1483 100.034 38.3038C103.572 39.7034 105.205 43.708 103.727 47.2071Z" fill="#FFAF30" stroke="#2E3433" stroke-width="1.5" stroke-miterlimit="10"/>
<path d="M98.3361 49.813C101.257 49.3134 103.22 46.5406 102.72 43.6198C102.22 40.699 99.4477 38.7362 96.5269 39.2358C93.6061 39.7354 91.6433 42.5082 92.1429 45.429C92.6425 48.3498 95.4152 50.3126 98.3361 49.813Z" fill="#FFAF30"/>
<path d="M99.1819 45.4946C99.0652 45.1447 98.8319 44.8725 98.5209 44.6392L98.5598 44.5615C99.2985 44.5615 99.765 44.2893 99.9983 43.745C100.115 43.4729 100.154 43.2396 100.115 43.0063C100.076 42.8119 99.9983 42.6175 99.8428 42.4231C99.765 42.3454 99.6873 42.2676 99.6095 42.1899L100.076 41.0624L99.3762 40.7513L98.9486 41.7622C98.7931 41.6844 98.6375 41.6067 98.4432 41.5289H98.4043L98.8319 40.5181L98.1321 40.207L97.7045 41.2179L96.4603 40.6736C96.4214 40.6736 96.4214 40.6736 96.3826 40.7125L96.3048 40.9457C96.3048 40.9846 96.3048 40.9846 96.3437 41.0235L97.0435 41.4123C97.0824 41.4123 97.0824 41.4512 97.0824 41.49L95.0218 46.3888C95.0218 46.4277 94.9829 46.4277 94.944 46.4277L94.2053 46.1944C94.1665 46.1944 94.1664 46.1944 94.1276 46.2333L94.0498 46.4666C94.0498 46.5054 94.0498 46.5054 94.0887 46.5443L95.3328 47.0886L94.8663 48.1772L95.5661 48.4883L96.0326 47.3997L96.2659 47.4774C96.3826 47.5163 96.4603 47.5552 96.5769 47.5941L96.1104 48.6827L96.8102 48.9937L97.3157 47.8273C97.8211 47.9051 98.2488 47.8273 98.5987 47.6329C98.9097 47.4385 99.1041 47.2053 99.2207 46.8942C99.3374 46.311 99.3374 45.9223 99.1819 45.4946ZM98.482 42.0343C98.5598 42.0732 98.6764 42.1121 98.7542 42.1899C98.9486 42.3065 99.0652 42.462 99.1819 42.6175C99.2207 42.6953 99.2596 42.8119 99.2985 42.8897C99.3374 43.0841 99.2985 43.2785 99.2207 43.5118C99.143 43.745 98.9875 43.9005 98.8319 44.0172C98.7153 44.0949 98.5598 44.1727 98.4043 44.1727C98.2876 44.1727 98.1321 44.1727 97.9766 44.1727C97.8211 44.1338 97.6267 44.0949 97.4323 44.0172C97.3934 44.0172 97.3545 43.9783 97.2768 43.9783L97.0046 43.8617C96.9657 43.8617 96.9657 43.8228 96.9657 43.7839L97.8211 41.7622C97.8211 41.7233 97.86 41.7233 97.8988 41.7233L98.2099 41.8788L98.2876 41.9177L98.482 42.0343ZM97.4712 47.1275C97.2379 47.1664 96.9657 47.1275 96.6547 47.0498C96.5381 47.0109 96.3826 46.972 96.2659 46.8942L96.1104 46.8554L95.7216 46.6998C95.6827 46.6998 95.6827 46.661 95.6827 46.6221L96.6936 44.2116C96.6936 44.1727 96.7325 44.1727 96.7713 44.1727L97.1601 44.3282C97.1601 44.3282 97.1601 44.3282 97.199 44.3282C97.3934 44.406 97.5489 44.4837 97.7045 44.6004C97.9766 44.7559 98.171 44.9503 98.2876 45.1836C98.482 45.5335 98.482 45.9223 98.2876 46.3888C98.1321 46.8165 97.86 47.0498 97.4712 47.1275Z" fill="#2E3433"/>
<path d="M49.2578 133.171C49.2578 133.171 49.2578 133.133 49.2578 133.094V133.171Z" fill="#DBE0E6" stroke="#2E3433" stroke-width="1.6611" stroke-miterlimit="10" stroke-linecap="round" stroke-linejoin="round"/>
<path d="M49.2578 133.093C49.2578 133.054 49.2578 133.016 49.2578 132.938C49.2965 132.977 49.2578 133.016 49.2578 133.093Z" fill="#DBE0E6" stroke="#2E3433" stroke-width="1.6611" stroke-miterlimit="10" stroke-linecap="round" stroke-linejoin="round"/>
<path d="M70.7189 193.085V193.163C69.8635 193.124 69.3192 193.085 69.0859 193.046C69.5914 193.085 70.1745 193.085 70.7189 193.085Z" fill="#DBE0E6" stroke="#2E3433" stroke-width="1.6611" stroke-miterlimit="10" stroke-linecap="round" stroke-linejoin="round"/>
<path d="M325.961 132.705C325.3 128.934 317.135 129.906 313.014 134.105C305.627 141.608 299.056 170.185 297.501 183.87C297.112 187.447 297.035 189.974 297.423 190.907C298.006 192.385 301.311 193.007 304.577 193.046V193.123L307.182 214.546H302.516C302.516 214.546 294.507 196.195 294.352 196.195H187.629C187.629 196.195 80.5557 196.195 80.4002 196.156L72.741 214.623H68.1144L70.7193 193.201V193.123C73.9462 193.084 77.2898 192.462 77.873 190.985C78.2229 190.091 78.184 187.525 77.7953 183.948C76.279 170.262 69.6695 141.686 62.2825 134.183C59.7942 131.655 55.8674 130.295 52.9904 130.411C52.9126 130.411 52.8349 130.411 52.7571 130.411C52.6405 130.411 52.5627 130.411 52.4461 130.45C52.3683 130.45 52.2517 130.489 52.1739 130.489C52.0573 130.489 51.9407 130.528 51.824 130.567C51.7463 130.567 51.6685 130.606 51.5907 130.606C51.513 130.606 51.4741 130.645 51.4352 130.645C51.3575 130.683 51.2797 130.683 51.202 130.722C51.0464 130.761 50.9298 130.839 50.8132 130.878C50.7354 130.917 50.6965 130.956 50.6188 130.994C50.5021 131.033 50.4244 131.111 50.3466 131.189C50.2689 131.228 50.23 131.267 50.1522 131.344C50.1133 131.344 50.1133 131.383 50.0745 131.383C50.0356 131.422 49.9578 131.5 49.9189 131.539C49.8801 131.578 49.8412 131.617 49.8023 131.655C49.7634 131.694 49.7245 131.733 49.6857 131.772C49.6468 131.85 49.6079 131.889 49.569 131.966C49.5301 132.005 49.5301 132.044 49.4913 132.122C49.4524 132.161 49.4524 132.2 49.4524 132.239C49.4524 132.277 49.4135 132.316 49.4135 132.394C49.4135 132.433 49.3746 132.472 49.3746 132.55C49.3746 132.588 49.3746 132.589 49.3358 132.627C49.3358 132.705 49.2969 132.783 49.2969 132.861C49.3746 132.122 49.8412 130.256 52.0573 128.623C54.0401 127.184 67.3757 120.575 75.4625 116.726C80.4002 127.107 89.2257 138.498 92.6082 158.249L92.2583 158.482C92.2583 158.482 86.1931 161.437 83.1217 163.225H83.355C80.9445 163.225 78.9616 165.169 78.9616 167.619V171.856C78.9616 174.267 80.9056 176.25 83.355 176.25H83.8215C81.1389 176.25 79.0005 178.427 79.0005 181.071V188.613C79.0005 190.557 80.128 192.268 81.722 193.123C82.0331 193.279 82.383 193.434 82.7329 193.512C83.1606 193.629 83.5882 193.706 84.0548 193.706H187.668V193.668H291.242C291.708 193.668 292.136 193.59 292.563 193.473C292.913 193.395 293.263 193.24 293.574 193.084C295.207 192.229 296.335 190.557 296.335 188.574V181.032C296.335 178.349 294.157 176.211 291.514 176.211H291.98C294.391 176.211 296.374 174.267 296.374 171.818V167.619C296.374 165.208 294.391 163.225 291.98 163.225H292.213C289.142 161.398 283.077 158.482 283.077 158.482L282.727 158.249C286.109 138.498 294.935 127.107 299.873 116.726C307.96 120.575 321.295 127.184 323.278 128.623C325.377 130.139 325.844 131.928 325.961 132.705Z" fill="#DBE0E6" stroke="#2E3433" stroke-width="1.6611" stroke-miterlimit="10" stroke-linecap="round" stroke-linejoin="round"/>
<path d="M187.629 115.21V160.232L96.6519 160.271C95.2523 160.271 92.5696 160.038 92.5696 160.038C89.1871 140.287 80.3616 128.895 75.4239 118.515C74.7241 117.037 74.102 115.599 73.5577 114.121C71.847 109.378 77.329 105.335 82.3444 105.335H177.054C182.691 105.179 187.629 109.184 187.629 115.21Z" fill="white" stroke="#2E3433" stroke-width="1.6611" stroke-miterlimit="10" stroke-linecap="round" stroke-linejoin="round"/>
<path d="M296.334 167.619V171.857C296.334 174.267 294.39 176.25 291.941 176.25L187.628 176.289H83.3543C80.9438 176.289 78.9609 174.345 78.9609 171.896V167.658C78.9609 165.247 80.9438 163.264 83.3543 163.264H104.232C137.941 163.264 187.628 163.264 187.628 163.264C187.628 163.264 237.316 163.226 271.024 163.226H291.941C294.351 163.226 296.334 165.17 296.334 167.619Z" fill="white" stroke="#2E3433" stroke-width="1.6611" stroke-miterlimit="10" stroke-linecap="round" stroke-linejoin="round"/>
<path d="M296.334 181.033V188.575C296.334 190.519 295.207 192.23 293.574 193.085C293.263 193.241 292.913 193.396 292.563 193.474C292.135 193.591 291.707 193.669 291.241 193.669L187.628 193.707H84.0152C83.5487 193.707 83.121 193.63 82.6933 193.513C82.3434 193.435 81.9935 193.28 81.6825 193.124C80.0496 192.269 78.9609 190.597 78.9609 188.614V181.072C78.9609 178.389 81.1382 176.251 83.7819 176.251H187.628L291.474 176.212C294.157 176.212 296.334 178.389 296.334 181.033Z" fill="white" stroke="#2E3433" stroke-width="1.6611" stroke-miterlimit="10" stroke-linecap="round" stroke-linejoin="round"/>
<path d="M292.175 163.226H271.025C237.316 163.226 187.629 163.264 187.629 163.264C187.629 163.264 137.941 163.264 104.233 163.264H83.083C86.1545 161.437 92.2196 158.521 92.2196 158.521L187.629 158.482H283.038C283.038 158.443 289.103 161.398 292.175 163.226Z" fill="#DBE0E6" stroke="#2E3433" stroke-width="1.6611" stroke-miterlimit="10" stroke-linecap="round" stroke-linejoin="round"/>
<path d="M77.8728 190.947C77.2896 192.424 73.9848 193.046 70.719 193.085C70.1747 193.085 69.5915 193.085 69.0472 193.085C69.0083 193.085 69.0083 193.085 68.9694 193.085C66.87 193.007 65.0038 192.696 64.2651 192.23C58.8609 188.886 60.7271 178.661 49.3744 134.339C49.2577 133.911 49.2189 133.561 49.2577 133.211V133.133C49.2577 133.056 49.2577 132.978 49.2966 132.9C49.2966 132.822 49.3355 132.745 49.3355 132.667C49.3355 132.628 49.3355 132.628 49.3744 132.589C49.3744 132.55 49.4133 132.472 49.4133 132.434C49.4133 132.395 49.4521 132.356 49.4521 132.278C49.4521 132.239 49.491 132.2 49.491 132.161C49.5299 132.123 49.5299 132.045 49.5688 132.006C49.6077 131.928 49.6465 131.889 49.6854 131.812C49.7243 131.773 49.7632 131.734 49.802 131.695C49.8409 131.656 49.8798 131.617 49.9187 131.578C49.9576 131.539 50.0353 131.462 50.0742 131.423C50.1131 131.384 50.1131 131.384 50.152 131.384C50.2297 131.345 50.2686 131.267 50.3464 131.228C50.4241 131.151 50.5408 131.112 50.6185 131.034C50.6963 130.995 50.7352 130.956 50.8129 130.917C50.9295 130.84 51.0851 130.801 51.2017 130.762C51.2795 130.723 51.3572 130.723 51.435 130.684C51.4738 130.684 51.5516 130.645 51.5905 130.645C51.6682 130.606 51.746 130.606 51.8238 130.606C51.9404 130.567 52.057 130.567 52.1737 130.529C52.2514 130.529 52.3681 130.49 52.4458 130.49C52.5625 130.49 52.6402 130.451 52.7569 130.451C52.8346 130.451 52.9124 130.451 52.9901 130.451C55.8672 130.334 59.794 131.695 62.2822 134.222C69.6693 141.726 76.2398 170.302 77.795 183.987C78.1838 187.486 78.2227 190.052 77.8728 190.947Z" fill="white" stroke="#2E3433" stroke-width="1.6611" stroke-miterlimit="10" stroke-linecap="round" stroke-linejoin="round"/>
<path d="M306.287 193.048C306.092 193.048 305.509 193.086 304.576 193.164V193.086C305.12 193.086 305.704 193.048 306.287 193.048Z" fill="#DBE0E6" stroke="#2E3433" stroke-width="1.6611" stroke-miterlimit="10" stroke-linecap="round" stroke-linejoin="round"/>
<path d="M325.999 133.133V133.056C325.999 133.095 325.999 133.133 325.999 133.133Z" fill="#DBE0E6" stroke="#2E3433" stroke-width="1.6611" stroke-miterlimit="10" stroke-linecap="round" stroke-linejoin="round"/>
<path d="M301.699 112.334C301.194 113.773 300.572 115.25 299.833 116.727C294.856 127.108 286.07 138.5 282.687 158.25C282.687 158.25 280.044 158.484 278.605 158.484H187.628V113.462C187.628 107.435 192.566 103.431 198.164 103.547H292.874C297.928 103.547 303.41 107.591 301.699 112.334Z" fill="white" stroke="#2E3433" stroke-width="1.6611" stroke-miterlimit="10" stroke-linecap="round" stroke-linejoin="round"/>
<path d="M325.999 133.057V133.135C325.999 133.485 325.96 133.835 325.882 134.263C314.529 178.585 316.395 188.849 310.991 192.154C310.253 192.62 308.425 192.931 306.365 193.009C306.365 193.009 306.326 193.009 306.287 193.009C305.743 193.048 305.159 193.048 304.576 193.009C301.349 192.97 298.045 192.348 297.422 190.871C297.073 189.976 297.111 187.41 297.5 183.833C299.017 170.148 305.626 141.572 313.013 134.068C317.173 129.83 325.299 128.858 325.96 132.668C325.96 132.707 325.96 132.785 325.999 132.824C325.999 132.941 325.999 132.98 325.999 133.057Z" fill="white" stroke="#2E3433" stroke-width="1.6611" stroke-miterlimit="10" stroke-linecap="round" stroke-linejoin="round"/>
<path d="M262.546 127.756L248.792 142.309L255.63 148.771L269.384 134.219L262.546 127.756Z" fill="#635BFF" stroke="#2E3433" stroke-width="1.5" stroke-miterlimit="10"/>
<path d="M266.631 136.67L257.456 146.351C256.756 147.09 255.55 147.051 254.734 146.274L251.429 142.891C250.652 142.075 250.613 140.831 251.313 140.092L260.488 130.411C261.188 129.672 262.393 129.711 263.21 130.489L266.514 133.871C267.292 134.649 267.331 135.932 266.631 136.67Z" fill="#E4E6EB"/>
<path d="M259.065 141.802C260.975 141.748 262.481 140.157 262.427 138.246C262.374 136.336 260.782 134.831 258.872 134.884C256.962 134.937 255.456 136.529 255.51 138.44C255.563 140.35 257.155 141.855 259.065 141.802Z" fill="#96999E" stroke="#2E3433" stroke-width="1.5" stroke-miterlimit="10"/>
<path d="M260.296 137.526C260.14 137.448 259.985 137.448 259.829 137.448C259.674 137.448 259.479 137.487 259.324 137.565C259.246 137.604 259.052 137.721 258.78 137.876L257.535 136.71C257.691 136.593 257.846 136.554 258.041 136.554C258.196 136.554 258.391 136.632 258.585 136.749L258.935 136.243C258.624 136.01 258.313 135.932 257.963 135.971C257.691 136.01 257.458 136.126 257.186 136.36L256.991 136.165L256.758 136.399L256.952 136.593C256.719 136.904 256.602 137.176 256.563 137.448C256.563 137.837 256.68 138.187 256.991 138.459C257.147 138.615 257.341 138.731 257.535 138.77C257.73 138.809 257.924 138.809 258.158 138.77C258.43 138.693 258.663 138.576 258.857 138.42L260.218 139.703C260.024 139.859 259.829 139.937 259.557 139.898C259.363 139.898 259.129 139.781 258.896 139.587L258.585 140.092C258.818 140.287 259.052 140.403 259.324 140.442C259.557 140.481 259.79 140.481 259.985 140.403C260.179 140.325 260.374 140.209 260.607 140.014L261.035 140.403L261.268 140.17L260.84 139.781C261.112 139.47 261.229 139.12 261.229 138.731C261.19 138.343 261.035 138.032 260.762 137.759C260.607 137.682 260.451 137.604 260.296 137.526ZM258.469 138.07C258.235 138.226 258.002 138.265 257.846 138.265C257.691 138.265 257.497 138.187 257.38 138.032C257.224 137.876 257.147 137.721 257.147 137.526C257.147 137.332 257.186 137.137 257.302 136.943L258.469 138.07ZM260.646 138.887C260.685 139.12 260.607 139.315 260.49 139.509L259.207 138.265C259.479 138.109 259.713 138.032 259.907 138.032C260.063 138.032 260.218 138.109 260.374 138.265C260.529 138.459 260.646 138.654 260.646 138.887Z" fill="white"/>
<path d="M255.162 142.388C255.668 142.893 255.706 143.671 255.201 144.215C254.696 144.72 253.918 144.759 253.374 144.254C252.868 143.748 252.829 142.971 253.335 142.427C253.801 141.921 254.618 141.921 255.162 142.388Z" fill="#E4E6EB"/>
<path d="M264.299 132.745C264.804 133.251 264.843 134.028 264.338 134.573C263.832 135.078 263.055 135.117 262.51 134.611C262.005 134.106 261.966 133.328 262.472 132.784C262.977 132.24 263.793 132.24 264.299 132.745Z" fill="#E4E6EB"/>
<path d="M266.696 128.036L250.604 139.95L256.202 147.512L272.294 135.598L266.696 128.036Z" fill="#635BFF" stroke="#2E3433" stroke-width="1.5" stroke-miterlimit="10"/>
<path d="M269.159 137.487L258.429 145.418C257.612 146.04 256.407 145.768 255.785 144.874L253.141 140.947C252.519 140.014 252.675 138.77 253.53 138.148L264.26 130.217C265.077 129.595 266.282 129.867 266.904 130.761L269.548 134.688C270.17 135.621 270.015 136.904 269.159 137.487Z" fill="#E4E6EB"/>
<path d="M264.775 138.225C264.998 136.328 263.641 134.608 261.743 134.384C259.845 134.161 258.126 135.518 257.902 137.416C257.678 139.314 259.036 141.033 260.933 141.257C262.831 141.48 264.551 140.123 264.775 138.225Z" fill="#96999E" stroke="#2E3433" stroke-width="1.5" stroke-miterlimit="10"/>
<path d="M262.782 137.256C262.627 137.178 262.471 137.101 262.316 137.101C262.16 137.062 261.966 137.101 261.772 137.14C261.655 137.178 261.461 137.217 261.188 137.334L260.178 135.973C260.372 135.895 260.527 135.857 260.683 135.895C260.838 135.934 260.994 136.012 261.188 136.206L261.616 135.779C261.344 135.507 261.072 135.351 260.722 135.351C260.45 135.351 260.178 135.429 259.905 135.584L259.75 135.351L259.478 135.545L259.633 135.779C259.361 136.051 259.167 136.284 259.128 136.556C259.05 136.945 259.128 137.295 259.361 137.645C259.517 137.839 259.672 137.956 259.866 138.073C260.061 138.15 260.255 138.189 260.489 138.15C260.761 138.111 261.033 138.034 261.266 137.917L262.394 139.433C262.199 139.55 261.966 139.589 261.694 139.511C261.499 139.472 261.305 139.317 261.072 139.083L260.644 139.511C260.838 139.744 261.072 139.9 261.305 139.978C261.538 140.055 261.772 140.094 261.966 140.055C262.16 140.017 262.394 139.939 262.666 139.783L263.016 140.25L263.288 140.055L262.938 139.589C263.249 139.317 263.443 139.006 263.482 138.656C263.521 138.267 263.443 137.917 263.171 137.606C263.055 137.451 262.938 137.334 262.782 137.256ZM260.877 137.451C260.605 137.528 260.411 137.567 260.216 137.528C260.061 137.489 259.905 137.373 259.789 137.217C259.672 137.062 259.633 136.867 259.633 136.673C259.633 136.479 259.75 136.284 259.905 136.129L260.877 137.451ZM262.899 138.656C262.899 138.889 262.782 139.083 262.627 139.239L261.577 137.8C261.888 137.684 262.121 137.645 262.277 137.723C262.433 137.762 262.588 137.878 262.705 138.034C262.86 138.189 262.899 138.423 262.899 138.656Z" fill="white"/>
<path d="M256.834 141.144C257.262 141.727 257.145 142.504 256.562 142.932C255.979 143.36 255.201 143.243 254.774 142.66C254.346 142.077 254.463 141.299 255.046 140.871C255.629 140.444 256.445 140.56 256.834 141.144Z" fill="#E4E6EB"/>
<path d="M267.565 133.212C267.992 133.795 267.876 134.572 267.292 135C266.709 135.428 265.932 135.311 265.504 134.728C265.076 134.145 265.193 133.367 265.776 132.939C266.359 132.512 267.137 132.667 267.565 133.212Z" fill="#E4E6EB"/>
<path d="M215.507 224.966C215.468 225.55 215.312 226.133 214.923 226.794C212.202 231.615 203.415 233.248 202.016 231.07C201.743 230.643 201.666 230.06 201.899 229.321C201.938 229.127 202.015 228.932 202.054 228.738C203.415 223.295 204.465 215.091 204.815 212.992C205.165 210.814 204.815 201.756 204.815 201.756C213.252 199.656 213.446 200.356 213.524 200.667C214.729 205.566 214.301 212.914 214.262 214.43C213.951 220.884 215.623 222.867 215.507 224.966Z" fill="white" stroke="#2E3433" stroke-width="1.6611" stroke-miterlimit="10" stroke-linecap="round" stroke-linejoin="round"/>
<path d="M183.546 150.746C183.546 150.746 134.442 142.037 128.104 150.746C121.767 159.455 152.754 168.592 157.847 168.553C162.94 168.553 188.989 171.702 188.989 171.702L183.546 150.746Z" fill="#2E3433"/>
<path d="M191.945 172.247C190.818 175.241 190.934 179.751 190.506 183.25C190.429 183.95 190.312 184.611 190.157 185.194C189.262 188.771 186.58 191.026 184.791 191.026C183.392 191.026 185.102 188.81 185.297 185.661C185.336 184.727 185.258 183.756 184.947 182.667C183.469 178.04 180.359 176.252 174.527 173.53C168.695 170.848 177.21 165.016 177.21 165.016C177.21 165.016 179.893 166.377 186.619 165.016C193.306 163.733 193.306 168.67 191.945 172.247Z" fill="white" stroke="#2E3433" stroke-width="1.6611" stroke-miterlimit="10" stroke-linecap="round" stroke-linejoin="round"/>
<path d="M220.365 184.144C219.277 193.552 218.421 200.628 217.994 204.05C215.933 204.516 213.25 205.022 210.062 205.216C206.68 205.41 203.725 205.255 201.47 204.983C201.314 204.944 201.12 204.944 200.965 204.905C199.759 192.969 198.593 181.072 197.388 169.136C194.433 168.32 190.273 167.076 185.53 165.093C178.065 161.982 174.332 160.466 173.671 157.9C172.583 153.818 178.726 148.18 186.346 147.519C192.022 147.014 196.377 149.502 197.427 150.124C199.487 150.902 202.092 151.952 204.969 153.312C206.952 154.284 209.09 155.412 211.306 156.734C213.639 158.133 215.7 159.378 217.255 160.777C222.426 165.443 221.804 171.741 220.365 184.144Z" fill="#96999E" stroke="#2E3433" stroke-width="1.5" stroke-miterlimit="10"/>
<path d="M201.47 204.983C201.314 204.944 201.12 204.944 200.964 204.905C199.759 193.319 198.593 181.694 197.387 170.108C194.433 169.331 190.273 168.086 185.529 166.181C178.453 163.343 174.993 161.866 173.671 159.183C173.516 158.872 172.272 156.189 174.06 153.585C176.976 149.347 185.179 149.113 186.346 149.113C191.828 148.958 198.515 150.28 200.07 151.135C202.131 151.874 204.93 153.429 207.807 154.79C201.586 154.868 185.957 155.101 184.285 156.773C183.274 158.872 188.912 162.799 193.888 165.132C196.066 166.142 196.96 166.376 198.243 167.387C202.325 170.575 201.936 175.124 201.82 177.223C201.353 183.405 201.392 192.736 201.47 204.983Z" fill="#2E3433"/>
<path d="M266.047 125.903L264.531 124.387L259.438 119.177L246.336 102.886C245.092 101.331 243.225 100.398 241.243 100.243L201.78 97.9099L208.934 110.662L238.521 111.207C244.003 115.483 249.524 119.721 255.006 123.998H255.045C255.356 125.281 256.25 128.858 256.6 130.18C256.794 130.957 257.222 131.968 257.65 132.901L259.399 130.763C259.399 130.685 259.399 130.568 259.399 130.491C259.399 130.491 259.438 130.568 259.516 130.646C260.254 131.929 264.881 140.094 265.114 140.016C265.348 139.899 266.086 140.055 266.047 138.694L262.16 131.812L266.669 138.539C266.669 138.539 268.108 138.85 267.603 136.906C267.603 136.906 269.469 137.45 269.274 135.428L266.281 129.324L269.43 133.99C269.585 134.223 269.935 134.34 270.169 134.184C270.207 134.145 270.246 134.106 270.285 134.106C270.946 133.29 269.274 130.841 266.047 125.903Z" fill="white" stroke="#2E3433" stroke-width="1.6611" stroke-miterlimit="10" stroke-linecap="round" stroke-linejoin="round"/>
<path d="M255.551 114.317L249.136 119.488L250.769 120.732L257.339 116.533L255.551 114.317Z" fill="#2E3433"/>
<path d="M257.494 117.428C257.455 119.099 256.094 120.421 254.422 120.382C252.751 120.343 251.429 118.983 251.468 117.311C251.507 115.639 252.867 114.317 254.539 114.356C256.211 114.356 257.533 115.756 257.494 117.428Z" fill="white" stroke="#2E3433" stroke-width="1.3512" stroke-miterlimit="10" stroke-linecap="round" stroke-linejoin="round"/>
<path d="M169.277 96.8984C165.195 99.2312 161.851 101.292 159.324 102.886C159.324 102.886 151.626 107.746 141.556 117.854C140.818 118.593 139.418 120.032 139.573 121.82C139.729 123.725 141.634 125.397 143.384 125.902C147.038 126.991 151.043 123.414 153.414 121.353C158.08 117.349 164.884 111.984 174.798 105.568C172.971 102.691 171.143 99.7755 169.277 96.8984Z" fill="white" stroke="#2E3433" stroke-width="1.5" stroke-miterlimit="10" stroke-linecap="round" stroke-linejoin="round"/>
<path d="M235.8 97.6762C226.975 97.1319 218.188 96.5487 209.363 96.0044C209.285 96.0044 209.246 96.0044 209.168 95.9655C206.252 95.5379 202.481 95.1102 198.36 94.7992C193.539 94.4492 188.251 94.2937 183.43 94.6436C183.352 94.6436 183.275 94.6436 183.158 94.6825C179.892 94.1771 174.838 93.8661 169.278 95.7323C166.207 96.7431 163.835 98.1428 160.569 100.475C156.137 103.625 149.955 108.562 143.151 115.911C144.745 117.738 148.478 121.548 154.66 123.686C156.876 124.464 158.936 124.853 160.841 125.047C163.057 125.28 164.963 125.164 166.401 125.008L161.386 146.664C161.386 146.664 161.386 146.664 161.425 146.664C165.662 148.297 170.483 149.813 175.888 151.018C181.37 152.262 186.579 152.962 191.4 153.312C197.038 153.74 202.131 153.623 206.524 153.351C206.68 152.262 206.835 151.174 206.991 150.085C208.468 140.132 209.907 130.218 211.384 120.265H231.873C232.884 118.282 233.856 115.911 234.634 113.15C236.383 106.891 236.228 101.409 235.8 97.6762Z" fill="#635BFF" stroke="#2E3433" stroke-width="1.5" stroke-miterlimit="10"/>
<path d="M170.678 110.235C170.678 110.235 170.445 110.935 169.356 115.601L166.673 124.854C165.196 125.087 163.758 125.32 160.803 125.009L170.678 110.235Z" fill="#2E3433"/>
<path d="M178.804 161.826C178.765 163.537 178.649 165.403 178.415 167.386C178.376 167.542 178.376 167.736 178.338 167.892C177.988 170.652 177.404 173.14 176.821 175.317C172.389 174.54 133.316 167.619 127.328 159.494C126.745 158.677 125.384 156.85 125.268 154.634C125.268 154.245 125.268 153.856 125.345 153.467C125.929 150.124 129.622 148.258 130.866 147.636C141.752 142.115 157.615 149.813 164.535 153.195C168.579 155.061 173.517 157.861 178.804 161.826Z" fill="#96999E" stroke="#2E3433" stroke-width="1.5" stroke-miterlimit="10"/>
<path d="M215.507 224.966C215.468 225.549 215.312 226.133 214.923 226.794C212.202 231.615 203.415 233.248 202.016 231.07C201.743 230.643 201.666 230.059 201.899 229.321C201.938 229.126 202.015 228.932 202.054 228.738C204.504 229.087 208.625 228.465 215.507 224.966Z" fill="#2E3433"/>
<path d="M190.505 183.25C190.428 183.95 190.311 184.611 190.155 185.194C189.261 188.771 186.578 191.026 184.79 191.026C183.39 191.026 185.101 188.81 185.295 185.66C186.501 185.427 188.211 184.766 190.505 183.25Z" fill="#2E3433"/>
<path d="M178.338 167.853C177.988 170.613 177.404 173.101 176.821 175.278C172.389 174.501 133.316 167.58 127.328 159.455C126.745 158.638 125.384 156.811 125.268 154.595C127.25 157.627 132.655 162.993 146.612 166.22C166.402 170.807 172.545 173.918 178.338 167.853Z" fill="#2E3433"/>
<path d="M198.593 95.888C198.593 98.4151 195.133 100.437 190.856 100.437C186.58 100.437 183.158 98.4151 183.158 95.888C183.158 95.4603 183.275 95.0326 183.469 94.6438C188.29 94.255 193.539 94.4494 198.36 94.7994C198.515 95.1493 198.593 95.4992 198.593 95.888Z" fill="#2E3433"/>
<path d="M180.747 142.037C179.814 141.104 178.647 140.171 178.647 140.171L168.578 134.339C166.284 133.756 163.951 133.173 161.657 132.59C157.575 128.157 147.272 117.466 143.19 117.466C138.058 117.466 137.552 126.136 140.779 127.963C146.728 131.54 152.715 135.156 158.664 138.732C159.674 139.938 160.685 141.104 161.696 142.309C163.835 143.553 165.934 144.798 168.072 146.003C168.15 146.586 168.578 150.124 169.666 150.241C169.939 150.28 170.561 150.124 170.716 149.696C170.794 149.463 170.755 149.269 170.716 149.152C170.327 147.791 170.444 146.314 170.172 144.914L167.528 142.27C168.578 143.165 169.666 144.02 170.716 144.914C170.872 145.303 171.066 145.847 171.26 146.508C171.805 148.452 171.649 149.23 172.31 149.696C172.816 150.046 173.554 150.046 173.904 149.696C174.254 149.346 174.06 148.685 173.904 148.102C173.632 147.13 173.282 145.77 172.855 143.864C172.155 142.97 171.455 142.115 170.716 141.221L173.904 144.409C174.449 145.225 174.798 146.003 174.954 146.547C175.421 147.947 175.343 148.88 176.004 149.191C176.276 149.346 176.704 149.346 177.053 149.191C177.053 149.191 177.364 149.035 177.598 148.647C177.987 147.986 177.326 145.692 176.004 142.815L172.816 139.627C174.215 140.326 175.654 141.026 177.053 141.765C177.053 141.765 178.025 142.737 179.114 143.631C181.136 143.864 180.747 142.037 180.747 142.037Z" fill="white" stroke="#2E3433" stroke-width="1.6611" stroke-miterlimit="10" stroke-linecap="round" stroke-linejoin="round"/>
<path d="M119.824 122.442L129.932 148.685C129.971 148.802 130.088 148.88 130.205 148.88L170.561 150.591C170.794 150.591 170.95 150.28 170.833 150.007L159.403 123.686C159.364 123.57 159.247 123.492 159.131 123.492L120.096 121.859C119.863 121.859 119.707 122.17 119.824 122.442Z" fill="#2E3433"/>
<path d="M190.235 151.446L189.379 148.685L185.375 148.53L184.675 151.368L190.235 151.446Z" fill="#2E3433"/>
<path d="M185.335 151.251L184.48 148.491L180.475 148.335L179.775 151.173L185.335 151.251Z" fill="#2E3433"/>
<path d="M180.202 151.057L179.347 148.296L175.342 148.102L174.643 150.94L180.202 151.057Z" fill="#2E3433"/>
<path d="M175.229 150.823L174.373 148.063L170.369 147.907L169.669 150.745L175.229 150.823Z" fill="#2E3433"/>
<path d="M129.813 152.235L192.002 154.858L192.167 150.935L129.978 148.312L129.813 152.235Z" fill="#2E3433"/>
<path d="M231.913 98.3768C231.874 97.8713 231.835 97.5992 231.835 97.5992L232.224 97.5603C232.224 97.5603 232.263 97.8325 232.302 98.3379L231.913 98.3768Z" fill="#2E3433"/>
<path d="M228.647 118.555L228.336 118.321C228.608 117.933 228.841 117.505 229.114 117.077L229.463 117.272C229.191 117.699 228.919 118.166 228.647 118.555ZM230.085 115.911L229.736 115.755C229.93 115.328 230.124 114.861 230.28 114.395L230.63 114.511C230.474 115.017 230.28 115.483 230.085 115.911ZM231.135 113.112L230.746 112.995C230.902 112.528 231.019 112.062 231.135 111.556L231.524 111.634C231.407 112.179 231.291 112.645 231.135 113.112ZM231.874 110.235L231.485 110.157C231.563 109.69 231.68 109.185 231.718 108.718L232.107 108.757C232.029 109.263 231.952 109.729 231.874 110.235ZM232.302 107.28L231.913 107.241C231.952 106.774 231.991 106.269 232.029 105.764L232.418 105.802C232.379 106.269 232.34 106.774 232.302 107.28ZM232.496 104.286H232.107C232.107 103.82 232.146 103.314 232.146 102.886V102.809H232.535V102.886C232.535 103.314 232.535 103.781 232.496 104.286ZM232.107 101.292C232.107 100.748 232.068 100.243 232.029 99.815L232.418 99.7761C232.457 100.204 232.457 100.709 232.496 101.254L232.107 101.292Z" fill="#2E3433"/>
<path d="M227.247 120.382L226.975 120.11C227.13 119.915 227.325 119.721 227.48 119.526L227.791 119.76C227.597 119.993 227.402 120.187 227.247 120.382Z" fill="#2E3433"/>
<path d="M163.756 121.82C163.251 121.82 162.707 121.781 162.201 121.703L162.24 121.314C162.746 121.353 163.251 121.392 163.756 121.431V121.82ZM160.646 121.47C160.141 121.392 159.635 121.276 159.13 121.12L159.246 120.731C159.752 120.848 160.257 120.964 160.763 121.081L160.646 121.47ZM157.575 120.692C157.069 120.537 156.603 120.342 156.097 120.148L156.253 119.798C156.719 119.992 157.225 120.187 157.691 120.342L157.575 120.692ZM154.698 119.487C154.231 119.254 153.764 119.021 153.298 118.748L153.492 118.398C153.959 118.671 154.387 118.904 154.853 119.137L154.698 119.487ZM151.976 117.971C151.548 117.699 151.121 117.388 150.693 117.077L150.926 116.766C151.354 117.077 151.782 117.349 152.209 117.621L151.976 117.971ZM149.449 116.105C149.06 115.794 148.632 115.444 148.244 115.094L148.516 114.822C148.905 115.171 149.293 115.521 149.682 115.832L149.449 116.105ZM147.116 114.005C146.416 113.305 146.066 112.839 146.066 112.839L146.377 112.605C146.377 112.605 146.727 113.072 147.427 113.733L147.116 114.005Z" fill="#2E3433"/>
<path d="M176.548 111.712C179.269 111.556 181.991 111.44 184.712 111.362C187.434 111.323 190.156 111.323 192.916 111.44C194.277 111.479 195.637 111.595 197.037 111.79C197.737 111.906 198.398 111.984 199.098 112.217C199.292 112.256 199.448 112.334 199.642 112.412C199.836 112.528 199.992 112.567 200.186 112.723C200.264 112.8 200.42 112.878 200.536 113.073C200.614 113.189 200.653 113.384 200.575 113.578C200.536 113.695 200.497 113.734 200.458 113.772C200.42 113.811 200.381 113.889 200.342 113.928C200.07 114.161 199.875 114.2 199.681 114.239C198.942 114.433 198.242 114.511 197.581 114.55C196.882 114.628 196.221 114.667 195.521 114.705C194.16 114.783 192.799 114.822 191.439 114.861C188.717 114.939 185.995 114.978 183.313 115.133C181.991 115.211 180.591 115.289 179.386 115.639C179.231 115.677 179.114 115.716 179.036 115.794L178.997 115.833C179.036 115.794 179.036 115.755 179.036 115.716C178.997 115.639 179.036 115.755 179.153 115.833C179.231 115.911 179.386 115.988 179.503 116.066C180.047 116.377 180.669 116.611 181.291 116.805C183.857 117.621 186.54 118.166 189.184 118.632C190.505 118.866 191.866 119.099 193.188 119.293C193.849 119.371 194.549 119.449 195.21 119.526C195.871 119.565 196.571 119.643 197.232 119.526L197.27 119.604C196.609 119.76 195.91 119.682 195.21 119.682C194.51 119.643 193.849 119.604 193.188 119.526C191.827 119.41 190.467 119.215 189.145 119.021C186.462 118.593 183.779 118.127 181.136 117.349C180.475 117.155 179.853 116.922 179.231 116.611C178.958 116.455 178.608 116.261 178.492 115.872C178.453 115.677 178.608 115.483 178.764 115.405C178.919 115.328 179.075 115.25 179.231 115.211C180.552 114.822 181.913 114.783 183.274 114.667C185.995 114.472 188.717 114.433 191.439 114.356C192.799 114.317 194.16 114.278 195.521 114.2C196.882 114.122 198.242 114.083 199.564 113.772C199.72 113.734 199.875 113.656 199.992 113.578C200.109 113.5 200.031 113.345 199.875 113.267C199.759 113.15 199.564 113.111 199.448 113.034L198.981 112.878C198.32 112.684 197.659 112.567 196.998 112.45C195.637 112.256 194.316 112.139 192.955 112.062C187.512 111.751 182.069 111.79 176.626 111.906L176.548 111.712Z" fill="#2E3433"/>
<path d="M228.453 120.226H211.385C209.907 130.334 208.43 140.482 206.952 150.59C206.019 149.269 207.458 127.496 207.885 120.226C207.963 118.982 208.002 118.165 208.002 117.932C208.002 117.504 209.518 117.504 211.735 117.699C216.75 118.165 225.264 119.643 228.453 120.226Z" fill="#2E3433"/>
<path d="M197.583 96.0831C191.284 102.693 185.375 98.1825 185.375 98.1825C185.336 96.8606 185.336 95.4999 185.297 94.1391C185.258 91.5731 185.18 89.0459 185.141 86.4799C185.102 85.0414 185.063 83.6417 185.063 82.2032C188.018 80.8424 190.973 79.4817 193.928 78.082L197.583 96.0831Z" fill="white"/>
<path d="M194.278 84.1839C193.578 86.9054 183.314 91.532 181.292 91.221C179.27 90.9099 175.616 82.7065 175.849 79.5572C176.005 77.5744 175.616 73.1811 175.305 70.2263C176.821 68.8266 180.165 66.8438 185.647 67.8546C189.884 68.6322 192.684 75.6305 192.684 75.6305C192.684 75.6305 194.978 81.5012 194.278 84.1839Z" fill="white"/>
<path d="M183.664 69.5661C179.543 72.4043 174.216 71.5101 172.039 68.4386C170.367 66.1448 170.601 62.7623 172.622 60.3907C174.644 58.019 178.143 57.1248 181.215 58.2134C182.07 57.1637 183.625 55.6085 186.036 54.7921C192.217 52.6537 200.46 56.6583 200.654 60.1963C200.693 60.8572 200.46 61.7126 199.449 62.7623C200.81 62.7234 202.248 62.9178 203.22 63.812C206.253 66.4558 204.037 74.1539 199.527 78.5472C196.572 81.4243 196.261 81.0355 194.317 81.4631C193.967 79.5969 192.917 74.9703 191.945 75.4758C191.517 74.8537 190.701 72.6765 190.235 72.0544C188.524 70.1104 186.619 69.2162 183.664 69.5661Z" fill="#2E3433"/>
<path d="M192.296 76.7188C192.141 77.0687 191.985 77.5352 191.907 78.1573C191.752 79.1293 191.946 79.868 192.063 80.5289C192.296 81.5786 192.53 82.6673 193.229 82.8228C193.424 82.8617 193.618 82.8228 193.735 82.7839C194.124 82.5506 199.1 79.0515 198.284 75.3969C198.245 75.1636 197.817 73.4529 196.612 73.1419C195.329 72.792 193.502 74.1527 192.296 76.7188Z" fill="white"/>
<path d="M185.141 98.4533C185.063 98.3755 185.024 98.2978 185.024 98.1811L184.869 90.7163C183.625 91.2218 181.797 91.805 180.942 91.6494H180.903C178.57 91.2218 174.955 82.9016 175.188 79.6358C175.343 77.6141 174.916 72.9486 174.644 70.3437C174.644 70.2271 174.682 70.1493 174.76 70.0715C175.927 68.9829 179.309 66.6113 185.413 67.6222C188.951 68.2053 190.467 71.0824 191.867 73.8428C192.061 74.2705 192.295 74.6593 192.528 75.0869C193.85 73.0652 195.833 72.5598 196.727 72.7542C198.127 73.1041 198.593 74.9314 198.671 75.2813C199.293 78.0806 196.805 80.7244 195.172 82.1241L198.01 96.0039C198.049 96.1205 198.01 96.1983 197.932 96.3149C194.472 99.9696 191.089 100.319 188.679 99.8529C186.541 99.4641 185.18 98.4922 185.141 98.4533ZM194.355 82.0852C194.316 81.9685 194.394 81.8519 194.472 81.7741C195.988 80.53 198.476 78.0029 197.893 75.4757C197.854 75.2813 197.466 73.7262 196.494 73.454C195.872 73.2985 193.889 73.8039 192.8 75.9812C192.722 76.0978 192.606 76.1756 192.489 76.1756C192.334 76.1756 192.217 76.0978 192.139 75.9812C191.789 75.3591 191.478 74.737 191.167 74.115C189.768 71.3934 188.407 68.7885 185.258 68.2831C179.698 67.3889 176.588 69.4106 175.382 70.4603C175.693 73.6484 176.043 77.7696 175.927 79.7136C175.693 82.785 179.27 90.6775 181.059 90.9885C181.059 90.9885 181.059 90.9885 181.097 90.9885C181.525 91.0663 182.847 90.7941 185.141 89.8999C185.258 89.861 185.374 89.861 185.491 89.9388C185.607 90.0165 185.646 90.0943 185.646 90.2109L185.802 98.0256C186.696 98.6477 191.75 101.641 197.232 96.0039L194.355 82.0852Z" fill="#2E3433"/>
<path d="M193.189 85.4685C193.228 86.4405 192.995 87.4125 192.101 89.162C190.196 92.9333 185.997 93.983 185.297 94.1774C185.258 91.6114 185.18 92.4667 185.103 89.9007C185.647 89.6286 189.807 88.4233 193.189 85.4685Z" fill="#2E3433"/>
<path d="M198.593 61.9073C198.593 61.9073 204.075 57.203 208.352 60.6243C208.352 60.6243 205.047 57.9028 199.565 62.6072C194.083 67.3115 198.593 61.9073 198.593 61.9073Z" fill="#2E3433"/>
<path d="M201.547 62.529C201.547 62.529 207.34 63.8898 206.796 68.0888C206.796 68.0888 207.263 64.8229 201.47 63.4621C195.677 62.1014 201.547 62.529 201.547 62.529Z" fill="#2E3433"/>
<path d="M175.461 59.3792C174.761 59.7291 174.061 60.1568 173.478 60.6233C172.856 61.0899 172.312 61.6342 171.884 62.2174C171.456 62.8394 171.107 63.4615 170.834 64.1613C170.562 64.8612 170.368 65.561 170.407 66.2219C170.407 66.9218 170.601 67.5827 170.99 68.127C171.379 68.7102 172.001 69.1379 172.662 69.4878C173.323 69.8377 174.1 70.071 174.878 70.1876C175.655 70.3431 176.472 70.3431 177.249 70.3431V70.382C175.655 70.6153 173.984 70.4598 172.506 69.7988C171.768 69.4489 171.107 68.9823 170.64 68.3603C170.173 67.7382 169.901 66.9606 169.94 66.2219C169.94 65.4443 170.173 64.7056 170.446 64.0058C170.757 63.306 171.107 62.6062 171.612 62.023C172.584 60.8177 173.984 59.9235 175.461 59.3403V59.3792Z" fill="#2E3433"/>
<path d="M183.547 86.2842C185.258 85.8176 185.063 83.3293 185.063 83.3293C185.063 83.3293 183.664 85.0011 181.098 85.6621" fill="#2E3433"/>
</svg>
