<svg width="14" height="14" viewBox="0 0 14 14" fill="#000" xmlns="http://www.w3.org/2000/svg">
<path fill-rule="evenodd" clip-rule="evenodd" d="M2.44654 6.49081H4.48044C4.59458 5.0841 5.06539 3.73379 5.84257 2.56563C4.03178 3.03712 2.65683 4.58846 2.44654 6.49081ZM7.00039 2.69849C6.15037 3.79361 5.63032 5.10956 5.50244 6.49081H8.49834C8.37046 5.10956 7.85041 3.79361 7.00039 2.69849ZM8.49834 7.50899C8.37046 8.89024 7.85041 10.2062 7.00039 11.3013C6.15037 10.2062 5.63032 8.89024 5.50244 7.50899H8.49834ZM4.48044 7.50899H2.44654C2.65683 9.41135 4.03178 10.9627 5.84257 11.4342C5.06539 10.266 4.59458 8.91571 4.48044 7.50899ZM8.15821 11.4342C8.93539 10.266 9.4062 8.91571 9.52034 7.50899H11.5542C11.344 9.41135 9.969 10.9627 8.15821 11.4342ZM11.5542 6.49081H9.52034C9.4062 5.0841 8.93539 3.73379 8.15821 2.56563C9.969 3.03712 11.344 4.58846 11.5542 6.49081ZM1.40039 6.9999C1.40039 3.90711 3.9076 1.3999 7.00039 1.3999C10.0932 1.3999 12.6004 3.90711 12.6004 6.9999C12.6004 10.0927 10.0932 12.5999 7.00039 12.5999C3.9076 12.5999 1.40039 10.0927 1.40039 6.9999Z" fill="#000"/>
</svg>
