<svg width="16" height="16" viewBox="0 0 16 16" fill="#000000" xmlns="http://www.w3.org/2000/svg">
<path fill-rule="evenodd" clip-rule="evenodd" d="M5.3335 2.00001C5.3335 1.63182 5.63197 1.33334 6.00016 1.33334H10.0002C10.3684 1.33334 10.6668 1.63182 10.6668 2.00001C10.6668 2.3682 10.3684 2.66668 10.0002 2.66668H6.00016C5.63197 2.66668 5.3335 2.3682 5.3335 2.00001ZM3.32833 3.33334H2.00016C1.63197 3.33334 1.3335 3.63182 1.3335 4.00001C1.3335 4.3682 1.63197 4.66668 2.00016 4.66668H2.70979L3.13759 11.0836C3.17116 11.5873 3.19894 12.004 3.24874 12.3433C3.3006 12.6965 3.38286 13.0192 3.55422 13.32C3.82098 13.7883 4.22336 14.1647 4.70832 14.3997C5.01985 14.5507 5.34736 14.6113 5.70322 14.6396C6.04502 14.6667 6.46271 14.6667 6.96746 14.6667H9.03287C9.53761 14.6667 9.95531 14.6667 10.2971 14.6396C10.653 14.6113 10.9805 14.5507 11.292 14.3997C11.777 14.1647 12.1793 13.7883 12.4461 13.32C12.6175 13.0192 12.6997 12.6965 12.7516 12.3433C12.8014 12.004 12.8292 11.5872 12.8627 11.0835L13.2905 4.66668H14.0002C14.3684 4.66668 14.6668 4.3682 14.6668 4.00001C14.6668 3.63182 14.3684 3.33334 14.0002 3.33334H12.672C12.6681 3.33331 12.6642 3.33331 12.6603 3.33334H3.33999C3.33611 3.33331 3.33222 3.33331 3.32833 3.33334ZM11.9542 4.66668H4.04609L4.46621 10.9685C4.50199 11.5052 4.52673 11.8689 4.56793 12.1496C4.60796 12.4222 4.65686 12.5619 4.71275 12.66C4.84613 12.8941 5.04731 13.0824 5.28979 13.1999C5.39139 13.2491 5.53407 13.2886 5.80873 13.3104C6.09151 13.3329 6.45606 13.3333 6.99393 13.3333H9.00639C9.54426 13.3333 9.90881 13.3329 10.1916 13.3104C10.4663 13.2886 10.6089 13.2491 10.7105 13.1999C10.953 13.0824 11.1542 12.8941 11.2876 12.66C11.3435 12.5619 11.3924 12.4222 11.4324 12.1496C11.4736 11.8689 11.4983 11.5052 11.5341 10.9685L11.9542 4.66668ZM6.66683 6.33334C7.03502 6.33334 7.3335 6.63182 7.3335 7.00001V10.3333C7.3335 10.7015 7.03502 11 6.66683 11C6.29864 11 6.00016 10.7015 6.00016 10.3333V7.00001C6.00016 6.63182 6.29864 6.33334 6.66683 6.33334ZM9.3335 6.33334C9.70169 6.33334 10.0002 6.63182 10.0002 7.00001V10.3333C10.0002 10.7015 9.70169 11 9.3335 11C8.96531 11 8.66683 10.7015 8.66683 10.3333V7.00001C8.66683 6.63182 8.96531 6.33334 9.3335 6.33334Z" />
</svg>
