<svg width="18" height="18" viewBox="0 0 18 18" fill="#000" xmlns="http://www.w3.org/2000/svg">
<path fill-rule="evenodd" clip-rule="evenodd" d="M9 3C7.55025 3 6.375 4.17525 6.375 5.625C6.375 7.07475 7.55025 8.25 9 8.25C10.4497 8.25 11.625 7.07475 11.625 5.625C11.625 4.17525 10.4497 3 9 3ZM4.875 5.625C4.875 3.34683 6.72183 1.5 9 1.5C11.2782 1.5 13.125 3.34683 13.125 5.625C13.125 7.90317 11.2782 9.75 9 9.75C6.72183 9.75 4.875 7.90317 4.875 5.625ZM6.9947 10.875C7.0375 10.875 7.08093 10.875 7.125 10.875H10.875C10.9191 10.875 10.9625 10.875 11.0053 10.875C11.9258 10.8746 12.5543 10.8744 13.0886 11.0365C14.2871 11.4 15.225 12.3379 15.5885 13.5364C15.7506 14.0707 15.7504 14.6992 15.75 15.6197C15.75 15.6625 15.75 15.7059 15.75 15.75C15.75 16.1642 15.4142 16.5 15 16.5C14.5858 16.5 14.25 16.1642 14.25 15.75C14.25 14.6488 14.2419 14.2644 14.1531 13.9719C13.935 13.2528 13.3722 12.69 12.6531 12.4719C12.3606 12.3831 11.9762 12.375 10.875 12.375H7.125C6.02376 12.375 5.63941 12.3831 5.34686 12.4719C4.62776 12.69 4.06502 13.2528 3.84689 13.9719C3.75814 14.2644 3.75 14.6488 3.75 15.75C3.75 16.1642 3.41422 16.5 3 16.5C2.58579 16.5 2.25 16.1642 2.25 15.75C2.25 15.7059 2.24999 15.6625 2.24997 15.6197C2.24963 14.6992 2.2494 14.0707 2.41148 13.5364C2.77504 12.3379 3.71293 11.4 4.91143 11.0365C5.44573 10.8744 6.07425 10.8746 6.9947 10.875Z" fill="#000"/>
</svg>
