<svg width="26" height="26" viewBox="0 0 26 26" fill="none" xmlns="http://www.w3.org/2000/svg">
<path d="M25.5938 13V16.6562C25.5931 16.8715 25.5073 17.0778 25.3551 17.2301C25.2028 17.3823 24.9965 17.4681 24.7812 17.4688H19.0938C18.8785 17.4681 18.6722 17.3823 18.5199 17.2301C18.3677 17.0778 18.2819 16.8715 18.2812 16.6562V14.2188C18.2819 14.0035 18.3677 13.7972 18.5199 13.6449C18.6722 13.4927 18.8785 13.4069 19.0938 13.4062H23.9688V12.1875H24.7812C24.9965 12.1881 25.2028 12.274 25.3551 12.4262C25.5073 12.5784 25.5931 12.7847 25.5938 13ZM21.125 15.4375C21.125 15.2768 21.0773 15.1197 20.9881 14.9861C20.8988 14.8525 20.7719 14.7483 20.6234 14.6868C20.475 14.6254 20.3116 14.6093 20.154 14.6406C19.9964 14.672 19.8516 14.7493 19.738 14.863C19.6243 14.9766 19.547 15.1214 19.5156 15.279C19.4843 15.4366 19.5004 15.6 19.5618 15.7484C19.6233 15.8969 19.7275 16.0238 19.8611 16.1131C19.9947 16.2023 20.1518 16.25 20.3125 16.25C20.5278 16.2494 20.7341 16.1635 20.8863 16.0113C21.0385 15.8591 21.1244 15.6528 21.125 15.4375Z" fill="#E03E3E"/>
<path d="M22.1975 0.40625L25.5938 10.0669L23.9688 10.6478V8.125C23.9681 7.90971 23.8823 7.70342 23.7301 7.55119C23.5778 7.39895 23.3715 7.31314 23.1562 7.3125H22.4859L21.3403 4.05438C21.1459 4.12365 20.9397 4.15377 20.7336 4.14303C20.5275 4.13228 20.3256 4.08087 20.1394 3.99176C19.9532 3.90265 19.7866 3.77759 19.6489 3.6238C19.5113 3.47 19.4055 3.2905 19.3375 3.09563L7.5075 7.29625V7.3125H4.0625C3.96179 7.31263 3.86125 7.30447 3.76188 7.28813L3.65625 6.99563L17.485 2.08L22.1975 0.40625Z" fill="#36CE94"/>
<path d="M2.07187 5.67534C2.15263 6.08574 2.35842 6.46108 2.66101 6.74985C2.9636 7.03862 3.34815 7.22666 3.76188 7.28815C3.86125 7.3045 3.96179 7.31265 4.0625 7.31253H23.1562C23.3715 7.31317 23.5778 7.39898 23.7301 7.55121C23.8823 7.70344 23.9681 7.90973 23.9688 8.12503V13.4063H19.0938C18.8785 13.4069 18.6722 13.4927 18.5199 13.645C18.3677 13.7972 18.2819 14.0035 18.2812 14.2188V16.6563C18.2819 16.8716 18.3677 17.0779 18.5199 17.2301C18.6722 17.3823 18.8785 17.4681 19.0938 17.4688H23.9688V21.9375C23.9688 22.4291 23.2416 23.1563 22.3438 23.1563H16.6562V16.6563C16.6556 16.441 16.5698 16.2347 16.4176 16.0825C16.2653 15.9302 16.059 15.8444 15.8438 15.8438H2.84375C2.62846 15.8444 2.42217 15.9302 2.26994 16.0825C2.1177 16.2347 2.03189 16.441 2.03125 16.6563V23.1563C1.60027 23.1563 1.18695 22.9851 0.882201 22.6803C0.577455 22.3756 0.40625 21.9623 0.40625 21.5313V5.68753C0.40625 5.04106 0.663057 4.42107 1.12018 3.96395C1.5773 3.50683 2.19728 3.25002 2.84375 3.25002H4.14781C3.63232 3.24176 3.13194 3.42424 2.74278 3.76241C2.35362 4.10058 2.10312 4.5706 2.03937 5.08221C2.01931 5.28041 2.03028 5.48052 2.07187 5.67534Z" fill="#FEBD55"/>
<path d="M21.3401 4.05439L22.4858 7.31252H7.50732V7.29627L19.3373 3.09564C19.4053 3.29051 19.5111 3.47002 19.6488 3.62381C19.7864 3.77761 19.9531 3.90267 20.1392 3.99178C20.3254 4.08089 20.5273 4.1323 20.7334 4.14305C20.9395 4.15379 21.1457 4.12366 21.3401 4.05439Z" fill="#2FB380"/>
<path d="M20.3125 16.25C20.7612 16.25 21.125 15.8862 21.125 15.4375C21.125 14.9888 20.7612 14.625 20.3125 14.625C19.8638 14.625 19.5 14.9888 19.5 15.4375C19.5 15.8862 19.8638 16.25 20.3125 16.25Z" fill="#2B2B37"/>
<path d="M8.78303 3.25L16.6562 0.40625L17.4687 2.03125L17.4849 2.08L3.65615 6.99562L3.76178 7.28813C3.34805 7.22663 2.9635 7.0386 2.66092 6.74983C2.35833 6.46106 2.15253 6.08571 2.07178 5.67531L8.78303 3.25Z" fill="#2FB380"/>
<path d="M8.78328 3.25002L2.07203 5.67534C2.03043 5.48052 2.01947 5.28041 2.03953 5.08221C2.10327 4.5706 2.35377 4.10058 2.74293 3.76241C3.13209 3.42424 3.63247 3.24176 4.14797 3.25002H8.78328Z" fill="#BD6F08"/>
<path d="M16.6562 23.1562V24.7812C16.6556 24.9965 16.5698 25.2028 16.4176 25.3551C16.2653 25.5073 16.059 25.5931 15.8438 25.5938H2.84375C2.62846 25.5931 2.42217 25.5073 2.26994 25.3551C2.1177 25.2028 2.03189 24.9965 2.03125 24.7812V19.5H16.6562V23.1562Z" fill="#FF6161"/>
<path d="M16.6562 18.2812V19.5H16.25H2.4375H2.03125V18.2812H2.4375H16.25H16.6562Z" fill="#EDF4FA"/>
<path d="M16.6562 16.6562V18.2812H2.03125V16.6562C2.03189 16.441 2.1177 16.2347 2.26994 16.0824C2.42217 15.9302 2.62846 15.8444 2.84375 15.8438H15.8438C16.059 15.8444 16.2653 15.9302 16.4176 16.0824C16.5698 16.2347 16.6556 16.441 16.6562 16.6562Z" fill="#CB3541"/>
<path d="M15.8438 24.375H11.375C9.86385 24.3741 8.39013 23.9048 7.15669 23.0318C5.92324 22.1588 4.99071 20.9249 4.48744 19.5H2.03125V24.7812C2.03189 24.9965 2.1177 25.2028 2.26994 25.3551C2.42217 25.5073 2.62846 25.5931 2.84375 25.5938H15.8438C16.059 25.5931 16.2653 25.5073 16.4176 25.3551C16.5698 25.2028 16.6556 24.9965 16.6562 24.7812V23.5625C16.6562 23.778 16.5706 23.9847 16.4183 24.137C16.2659 24.2894 16.0592 24.375 15.8438 24.375Z" fill="#E03E3E"/>
<path d="M4.48744 19.5C4.34727 19.1036 4.24179 18.6959 4.17219 18.2812H2.03125V19.5H4.48744Z" fill="#C1CFE8"/>
<path d="M4.17219 18.2812C4.10181 17.8788 4.06512 17.4711 4.0625 17.0625V15.8438H2.84375C2.62846 15.8444 2.42217 15.9302 2.26994 16.0824C2.1177 16.2347 2.03189 16.441 2.03125 16.6562V18.2812H4.17219Z" fill="#A81E29"/>
<path d="M17.4687 2.03127L17.1388 1.37152L4.80097 5.82686C4.60281 5.89841 4.38461 5.89019 4.1924 5.80394C4.00019 5.71768 3.849 5.56014 3.77071 5.36455L3.66468 5.09968L2.07178 5.67533C2.15253 6.08573 2.35833 6.46108 2.66092 6.74985C2.9635 7.03862 3.34805 7.22665 3.76178 7.28815L3.65615 6.99565L17.4849 2.08002L17.4687 2.03127Z" fill="#2AA173"/>
<path d="M10.894 6.09375H6.19328L3.65625 6.99562L3.76188 7.28813C3.86125 7.30447 3.96179 7.31263 4.0625 7.3125H7.5075V7.29625L10.894 6.09375Z" fill="#2FB380"/>
<path d="M25.5939 10.0669L24.1973 6.09375H22.0596L22.4882 7.3125H23.1564C23.3717 7.31314 23.578 7.39895 23.7303 7.55119C23.8825 7.70342 23.9683 7.90971 23.9689 8.125V10.6478L25.5939 10.0669Z" fill="#2FB380"/>
<path d="M10.8938 6.09375L7.50732 7.29625V7.3125H22.4858L22.0572 6.09375H10.8938Z" fill="#2AA173"/>
<path d="M25.1875 16.6562H21.125C20.9523 16.6558 20.7816 16.6185 20.6245 16.5466C20.4674 16.4748 20.3275 16.3702 20.2142 16.2398C20.0173 16.2172 19.8355 16.1229 19.7036 15.975C19.5717 15.827 19.4988 15.6357 19.4988 15.4375C19.4988 15.2393 19.5717 15.048 19.7036 14.9C19.8355 14.7521 20.0173 14.6578 20.2142 14.6352C20.3275 14.5048 20.4674 14.4002 20.6245 14.3284C20.7816 14.2565 20.9523 14.2192 21.125 14.2188H23.9688C24.1842 14.2188 24.3909 14.1331 24.5433 13.9808C24.6956 13.8284 24.7812 13.6217 24.7812 13.4062V12.1875H23.9688V13.4062H19.0938C18.8785 13.4069 18.6722 13.4927 18.5199 13.6449C18.3677 13.7972 18.2819 14.0035 18.2812 14.2188V16.6562C18.2819 16.8715 18.3677 17.0778 18.5199 17.2301C18.6722 17.3823 18.8785 17.4681 19.0938 17.4688H24.7812C24.9965 17.4681 25.2028 17.3823 25.3551 17.2301C25.5073 17.0778 25.5931 16.8715 25.5938 16.6562V16.25C25.5938 16.3577 25.5509 16.4611 25.4748 16.5373C25.3986 16.6134 25.2952 16.6562 25.1875 16.6562Z" fill="#CB3541"/>
<path d="M19.5 18.6875H23.9688V17.4688H19.0938C18.9506 17.4679 18.8104 17.4287 18.6875 17.3554V17.875C18.6875 18.0905 18.7731 18.2972 18.9255 18.4495C19.0778 18.6019 19.2845 18.6875 19.5 18.6875Z" fill="#FC9E20"/>
<path d="M2.03125 18.2813V16.6563C2.03189 16.441 2.1177 16.2347 2.26994 16.0825C2.42217 15.9302 2.62846 15.8444 2.84375 15.8438H3.65625V7.26377C3.26481 7.18507 2.90545 6.99221 2.62348 6.70952C2.34151 6.42683 2.14958 6.06698 2.07187 5.67534C2.03028 5.48052 2.01931 5.28041 2.03937 5.08221C2.10312 4.5706 2.35362 4.10058 2.74278 3.76241C3.13194 3.42424 3.63232 3.24176 4.14781 3.25002H2.84375C2.19728 3.25002 1.5773 3.50683 1.12018 3.96395C0.663057 4.42107 0.40625 5.04106 0.40625 5.68753V21.5313C0.40625 21.9623 0.577455 22.3756 0.882201 22.6803C1.18695 22.9851 1.60027 23.1563 2.03125 23.1563V18.2813Z" fill="#FC9E20"/>
<path d="M22.75 21.5312H19.5C19.069 21.5312 18.6557 21.36 18.351 21.0553C18.0462 20.7506 17.875 20.3372 17.875 19.9062V17.875C17.875 17.6595 17.7894 17.4528 17.637 17.3005C17.4847 17.1481 17.278 17.0625 17.0625 17.0625H16.6562V23.1562H22.3438C23.2416 23.1562 23.9688 22.4291 23.9688 21.9375V20.3125C23.9688 20.6357 23.8403 20.9457 23.6118 21.1743C23.3832 21.4028 23.0732 21.5312 22.75 21.5312Z" fill="#FC9E20"/>
<path d="M17.875 22.75H18.6875V23.5625H17.875V22.75Z" fill="black"/>
<path d="M24.7812 11.7809H24.375V10.9327L25.7298 10.4513C25.8312 10.4152 25.9141 10.3405 25.9604 10.2434C26.0067 10.1463 26.0126 10.0348 25.9768 9.93331L22.579 0.271059C22.5612 0.220607 22.5337 0.174157 22.4979 0.134376C22.4622 0.0945941 22.4189 0.0622636 22.3706 0.0392392C22.3224 0.0162148 22.27 0.00294977 22.2166 0.000205349C22.1632 -0.00253907 22.1098 0.00529109 22.0594 0.0232465L17.6946 1.5739L17.0219 0.22434C16.9773 0.134794 16.9012 0.0648438 16.8083 0.0278877C16.7153 -0.00906832 16.612 -0.0104316 16.5181 0.024059L2.44806 5.10462C2.506 4.69704 2.71104 4.32474 3.02451 4.05789C3.33798 3.79103 3.73824 3.64807 4.14984 3.65593H5.6875V2.84343H2.84375C2.0898 2.84429 1.36699 3.14418 0.833865 3.6773C0.300745 4.21042 0.000860178 4.93324 0 5.68718L0 21.5309C0.000590901 21.999 0.162537 22.4526 0.458542 22.8152C0.754547 23.1778 1.16651 23.4273 1.625 23.5216V24.7809C1.625 25.1042 1.7534 25.4142 1.98196 25.6427C2.21052 25.8713 2.52052 25.9997 2.84375 25.9997H15.8438C16.167 25.9997 16.477 25.8713 16.7055 25.6427C16.9341 25.4142 17.0625 25.1042 17.0625 24.7809V16.6559C17.0625 16.3327 16.9341 16.0227 16.7055 15.7941C16.477 15.5656 16.167 15.4372 15.8438 15.4372H2.84375C2.52052 15.4372 2.21052 15.5656 1.98196 15.7941C1.7534 16.0227 1.625 16.3327 1.625 16.6559V22.6749C1.38819 22.5912 1.18304 22.4364 1.0376 22.2316C0.892159 22.0268 0.813541 21.7821 0.8125 21.5309V5.68718C0.813823 5.26916 0.944267 4.86175 1.18599 4.5207C1.42771 4.17965 1.76889 3.9216 2.16287 3.78187C1.86557 4.13984 1.6817 4.57829 1.63475 5.04125C1.60127 5.38008 1.63915 5.72217 1.74594 6.04547C1.85274 6.36877 2.02608 6.66612 2.2548 6.91834C2.48352 7.17056 2.76255 7.37206 3.0739 7.50987C3.38525 7.64767 3.72202 7.71872 4.0625 7.71843H23.1562C23.264 7.71843 23.3673 7.76123 23.4435 7.83742C23.5197 7.91361 23.5625 8.01694 23.5625 8.12468V12.9997H19.0938C18.7705 12.9997 18.4605 13.1281 18.232 13.3566C18.0034 13.5852 17.875 13.8952 17.875 14.2184V16.6559C17.875 16.9792 18.0034 17.2892 18.232 17.5177C18.4605 17.7463 18.7705 17.8747 19.0938 17.8747H23.5625V21.9372C23.5625 22.1809 23.0478 22.7497 22.3438 22.7497H19.5V23.5622H22.3438C23.4378 23.5622 24.375 22.6684 24.375 21.9372V17.8747H24.7812C25.1045 17.8747 25.4145 17.7463 25.643 17.5177C25.8716 17.2892 26 16.9792 26 16.6559V12.9997C26 12.6765 25.8716 12.3665 25.643 12.1379C25.4145 11.9093 25.1045 11.7809 24.7812 11.7809ZM2.4375 16.6559C2.4375 16.5482 2.4803 16.4449 2.55649 16.3687C2.63267 16.2925 2.73601 16.2497 2.84375 16.2497H15.8438C15.9515 16.2497 16.0548 16.2925 16.131 16.3687C16.2072 16.4449 16.25 16.5482 16.25 16.6559V17.8747H2.4375V16.6559ZM2.4375 18.6872H16.25V19.0934H2.4375V18.6872ZM2.4375 19.9059H16.25V24.7809C16.25 24.8887 16.2072 24.992 16.131 25.0682C16.0548 25.1444 15.9515 25.1872 15.8438 25.1872H2.84375C2.73601 25.1872 2.63267 25.1444 2.55649 25.0682C2.4803 24.992 2.4375 24.8887 2.4375 24.7809V19.9059ZM9.82231 6.90593L19.1291 3.59906C19.3283 3.92737 19.6187 4.19056 19.965 4.3565C20.3113 4.52243 20.6984 4.58391 21.0791 4.53343L21.9119 6.90593H9.82231ZM23.1562 6.90593H22.7732L21.723 3.91959C21.7052 3.86914 21.6777 3.82269 21.642 3.78291C21.6062 3.74313 21.5629 3.71079 21.5147 3.68777C21.4664 3.66475 21.414 3.65148 21.3606 3.64874C21.3072 3.64599 21.2538 3.65382 21.2034 3.67178C21.0603 3.72313 20.9084 3.74552 20.7566 3.73764C20.6048 3.72975 20.456 3.69176 20.319 3.62587C20.1801 3.55987 20.0557 3.4669 19.953 3.35238C19.8504 3.23787 19.7715 3.10408 19.721 2.95881C19.7033 2.90843 19.6757 2.86205 19.6401 2.82232C19.6044 2.78258 19.5612 2.75028 19.513 2.72725C19.4155 2.68099 19.3036 2.67515 19.2018 2.711L7.39375 6.90593H5.11469L6.32369 6.47612L6.0515 5.71075L3.52016 6.61059C3.45353 6.63622 3.39512 6.67947 3.35116 6.73571C2.99967 6.57257 2.72311 6.28222 2.57725 5.92322L16.4531 0.910497L16.9232 1.84812L8.3395 4.89825L8.61169 5.66362L21.9477 0.925122L25.0758 9.822L24.375 10.0702V8.12468C24.375 7.80145 24.2466 7.49146 24.018 7.2629C23.7895 7.03434 23.4795 6.90593 23.1562 6.90593ZM25.1875 16.6559C25.1875 16.7637 25.1447 16.867 25.0685 16.9432C24.9923 17.0194 24.889 17.0622 24.7812 17.0622H19.0938C18.986 17.0622 18.8827 17.0194 18.8065 16.9432C18.7303 16.867 18.6875 16.7637 18.6875 16.6559V14.2184C18.6875 14.1107 18.7303 14.0074 18.8065 13.9312C18.8827 13.855 18.986 13.8122 19.0938 13.8122H23.9688C24.0765 13.8122 24.1798 13.7694 24.256 13.6932C24.3322 13.617 24.375 13.5137 24.375 13.4059V12.5934H24.7812C24.889 12.5934 24.9923 12.6362 25.0685 12.7124C25.1447 12.7886 25.1875 12.8919 25.1875 12.9997V16.6559Z" fill="black"/>
<path d="M20.3125 14.2188C20.0715 14.2188 19.8358 14.2902 19.6354 14.4241C19.435 14.5581 19.2788 14.7484 19.1865 14.9711C19.0943 15.1938 19.0701 15.4389 19.1172 15.6753C19.1642 15.9117 19.2803 16.1288 19.4507 16.2993C19.6212 16.4697 19.8383 16.5858 20.0747 16.6328C20.3111 16.6799 20.5562 16.6557 20.7789 16.5635C21.0016 16.4712 21.1919 16.315 21.3259 16.1146C21.4598 15.9142 21.5313 15.6785 21.5313 15.4375C21.5313 15.1143 21.4028 14.8043 21.1743 14.5757C20.9457 14.3472 20.6357 14.2188 20.3125 14.2188ZM20.3125 15.8438C20.2322 15.8438 20.1536 15.8199 20.0868 15.7753C20.02 15.7306 19.9679 15.6672 19.9372 15.593C19.9064 15.5187 19.8984 15.437 19.9141 15.3582C19.9297 15.2794 19.9684 15.2071 20.0252 15.1502C20.0821 15.0934 20.1544 15.0547 20.2332 15.0391C20.312 15.0234 20.3937 15.0314 20.468 15.0622C20.5422 15.0929 20.6056 15.145 20.6503 15.2118C20.6949 15.2786 20.7188 15.3572 20.7188 15.4375C20.7188 15.5452 20.6759 15.6486 20.5998 15.7248C20.5236 15.8009 20.4202 15.8438 20.3125 15.8438Z" fill="black"/>
<path d="M6.76904 5.4541L7.58127 5.16525L7.85352 5.93078L7.04129 6.21963L6.76904 5.4541Z" fill="black"/>
</svg>
