<svg width="16" height="14" viewBox="0 0 16 14" fill="#000" xmlns="http://www.w3.org/2000/svg">
<path fill-rule="evenodd" clip-rule="evenodd" d="M7.98846 1.25737C7.97684 1.27002 7.95616 1.2944 7.92589 1.33713C7.84487 1.45153 7.7469 1.61956 7.58953 1.89138L2.10627 11.3625C1.94835 11.6352 1.851 11.8046 1.79191 11.9323C1.76981 11.9801 1.75891 12.0103 1.7537 12.0268C1.75644 12.0338 1.76025 12.0404 1.765 12.0464C1.78184 12.0501 1.81347 12.0558 1.86588 12.0606C2.00604 12.0735 2.20135 12.0741 2.51655 12.0741H13.4831C13.7983 12.0741 13.9936 12.0735 14.1337 12.0606C14.1861 12.0558 14.2178 12.0501 14.2346 12.0464C14.2394 12.0404 14.2432 12.0338 14.2459 12.0268C14.2407 12.0103 14.2298 11.9801 14.2077 11.9323C14.1486 11.8046 14.0513 11.6352 13.8933 11.3625L8.41008 1.89138C8.2527 1.61956 8.15474 1.45153 8.07371 1.33713C8.04344 1.2944 8.02276 1.27002 8.01115 1.25737C8.00363 1.2562 7.99597 1.2562 7.98846 1.25737ZM8.51144 0.179932C8.75918 0.29009 8.92268 0.485235 9.04086 0.652092C9.15722 0.816373 9.28244 1.03268 9.42286 1.27526L14.932 10.791C15.0729 11.0345 15.1986 11.2515 15.2834 11.4347C15.3694 11.6206 15.4575 11.8603 15.4293 12.1306C15.3923 12.4857 15.2062 12.8085 14.9174 13.0185C14.6976 13.1783 14.446 13.2221 14.242 13.2408C14.041 13.2593 13.7902 13.2593 13.5089 13.2593H2.49073C2.20939 13.2593 1.95864 13.2593 1.7576 13.2408C1.55356 13.2221 1.30204 13.1783 1.08223 13.0185C0.793407 12.8085 0.607325 12.4857 0.570296 12.1306C0.542115 11.8603 0.630221 11.6206 0.716253 11.4347C0.80102 11.2515 0.926665 11.0345 1.06764 10.791L6.57675 1.27526C6.71717 1.03268 6.84238 0.816374 6.95874 0.652093C7.07693 0.485235 7.24043 0.29009 7.48817 0.179932C7.81388 0.0351001 8.18572 0.0351005 8.51144 0.179932ZM7.40721 4.99999C7.40721 4.67271 7.67252 4.4074 7.9998 4.4074C8.32708 4.4074 8.59239 4.67271 8.59239 4.99999V7.66666C8.59239 7.99394 8.32708 8.25925 7.9998 8.25925C7.67252 8.25925 7.40721 7.99394 7.40721 7.66666V4.99999ZM7.40721 10.3333C7.40721 10.006 7.67252 9.74073 7.9998 9.74073H8.00647C8.33375 9.74073 8.59906 10.006 8.59906 10.3333C8.59906 10.6606 8.33375 10.9259 8.00647 10.9259H7.9998C7.67252 10.9259 7.40721 10.6606 7.40721 10.3333Z" fill="#000"/>
</svg>
